<svg width="531" height="119" viewBox="0 0 531 119" fill="none" xmlns="http://www.w3.org/2000/svg">
<path d="M44.9 43.3C44.9 48.5 42.7 53.1 39.1 56.7C35.1 60.7 29.3 61.7 29.3 65.1C29.3 69.7 36.7 68.3 43.8 75.4C48.5 80.1 51.4 86.3 51.4 93.5C51.4 107.7 40 119 25.7 119C11.4 119 0 107.71 0 93.51C0 86.31 2.9 80.11 7.6 75.41C14.7 68.31 22.1 69.71 22.1 65.11C22.1 61.71 16.3 60.71 12.3 56.71C8.7 53.11 6.5 48.51 6.5 43.11C6.5 32.71 15 24.31 25.4 24.31C27.4 24.31 29.2 24.61 30.7 24.61C33.4 24.61 34.8 23.41 34.8 21.51C34.8 20.41 34.3 19.01 34.3 17.51C34.3 14.11 37.2 11.31 40.7 11.31C44.2 11.31 47 14.21 47 17.71C47 21.41 44.1 23.11 41.9 23.91C40.1 24.51 38.7 25.31 38.7 27.11C38.7 30.5 44.9 33.8 44.9 43.3ZM42.9 93.51C42.9 83.61 35.6 75.61 25.7 75.61C15.8 75.61 8.5 83.61 8.5 93.51C8.5 103.31 15.8 111.41 25.7 111.41C35.6 111.41 42.9 103.3 42.9 93.51ZM37 43.1C37 36.8 31.9 31.6 25.7 31.6C19.5 31.6 14.4 36.8 14.4 43.1C14.4 49.4 19.5 54.6 25.7 54.6C31.9 54.6 37 49.4 37 43.1Z" fill="#3A8363"/>
<path d="M80.8999 25.3C84.0999 25.3 86.4999 27.7 86.4999 30.7C86.4999 33.7 84.1999 36.1 80.9999 36.1C77.6999 36.1 75.8999 34 72.5999 34C69.3999 34 66.8999 36.3 66.8999 40.2V71.7C66.8999 74.1 64.9999 76 62.5999 76C60.2999 76 58.3999 74.1 58.3999 71.7V29.3C58.3999 26.9 60.2999 25 62.5999 25C66.8999 25 66.0999 29.1 70.3999 29.1C74.4999 29.1 75.9999 25.3 80.8999 25.3Z" fill="#3A8363"/>
<path d="M90.2002 50.5C90.2002 35.4 100.6 24.5 114.9 24.5C128 24.5 138.4 34.1 138.4 47.2C138.4 50.3 136.4 52.4 133.5 52.4H101C99.6002 52.4 99.1002 52.9 99.1002 54C99.1002 56.5 101.1 61.1 104.1 64.1C107.1 67.1 111.2 68.9 117 68.9C121.3 68.9 125.1 67.3 128 65.2C128.9 64.5 129.9 64.1 130.9 64.1C133 64.1 134.7 66 134.7 68C134.7 69.2 134.3 70.2 133.3 71.1C129.1 74.6 123.2 76.5 116.8 76.5C101.3 76.5 90.2002 65.3 90.2002 50.5ZM125.6 36.1C122.8 33.3 119.2 31.9 114.9 31.9C110.6 31.9 106.6 33.6 103.7 36.5C101.4 38.8 99.8002 41.8 99.8002 43.8C99.8002 44.8 100.4 45.2 101.7 45.2H127.7C128.9 45.2 129.5 44.8 129.5 43.8C129.5 41.4 127.6 38.1 125.6 36.1Z" fill="#3A8363"/>
<path d="M147 50.5C147 35.4 157.4 24.5 171.7 24.5C184.8 24.5 195.2 34.1 195.2 47.2C195.2 50.3 193.2 52.4 190.3 52.4H157.8C156.4 52.4 155.9 52.9 155.9 54C155.9 56.5 157.9 61.1 160.9 64.1C163.9 67.1 168 68.9 173.8 68.9C178.1 68.9 181.9 67.3 184.8 65.2C185.7 64.5 186.7 64.1 187.7 64.1C189.8 64.1 191.5 66 191.5 68C191.5 69.2 191.1 70.2 190.1 71.1C185.9 74.6 180 76.5 173.6 76.5C158.1 76.5 147 65.3 147 50.5ZM182.4 36.1C179.6 33.3 176 31.9 171.7 31.9C167.4 31.9 163.4 33.6 160.5 36.5C158.2 38.8 156.6 41.8 156.6 43.8C156.6 44.8 157.2 45.2 158.5 45.2H184.5C185.7 45.2 186.3 44.8 186.3 43.8C186.3 41.4 184.4 38.1 182.4 36.1Z" fill="#3A8363"/>
<path d="M245.3 76C242.9 76 241 74.1 241 71.7V44.5C241 37.4 235.4 32 228.2 32C220.9 32 215.3 37.5 215.3 44.5V71.7C215.3 74.1 213.4 76 211 76C208.7 76 206.8 74.1 206.8 71.7V29.2C206.8 26.9 208.7 25 210.9 25C215.1 25 214.9 28.8 217.1 28.8C219.3 28.8 222.3 24.5 230.1 24.5C241 24.5 249.5 33.6 249.5 44.5V71.7C249.5 74.1 247.6 76 245.3 76Z" fill="#3A8363"/>
<path d="M302.7 76C300.3 76 298.4 74.1 298.4 71.7V44.5C298.4 37.4 292.8 32 285.6 32C278.3 32 272.7 37.5 272.7 44.5V71.7C272.7 74.1 270.8 76 268.4 76C266.1 76 264.2 74.1 264.2 71.7V4.3C264.2 1.9 266.1 0 268.4 0C270.8 0 272.7 1.9 272.7 4.3V26.4C272.7 27.6 273.2 28.3 274.5 28.3C276.7 28.3 279.7 24.5 287.5 24.5C298.4 24.5 306.9 33.6 306.9 44.5V71.7C306.9 74.1 305 76 302.7 76Z" fill="#3A8363"/>
<path d="M318.59 50.5C318.59 36 330.19 24.5 344.79 24.5C359.39 24.5 370.99 36 370.99 50.5C370.99 65 359.39 76.5 344.79 76.5C330.2 76.5 318.59 65 318.59 50.5ZM362.5 50.5C362.5 40.4 355 32.1 344.8 32.1C334.7 32.1 327.2 40.4 327.2 50.5C327.2 60.6 334.7 68.9 344.8 68.9C355 68.9 362.5 60.6 362.5 50.5Z" fill="#3A8363"/>
<path d="M386.89 25C389.29 25 391.19 26.9 391.19 29.3V56.5C391.19 63.6 396.79 69 403.99 69C411.29 69 416.89 63.5 416.89 56.5V29.3C416.89 26.9 418.79 25 421.19 25C423.49 25 425.39 26.9 425.39 29.3V71.8C425.39 74.1 423.49 76 421.29 76C417.09 76 417.29 72.2 415.09 72.2C412.89 72.2 409.89 76.5 402.09 76.5C391.19 76.5 382.69 67.4 382.69 56.5V29.3C382.7 26.9 384.59 25 386.89 25Z" fill="#3A8363"/>
<path d="M440.49 72.8C438.59 71.6 437.29 70.4 437.29 68.1C437.29 65.9 438.99 64.2 441.09 64.2C443.59 64.2 444.69 65.7 446.79 66.8C449.39 68.3 452.39 69.1 456.09 69.1C462.89 69.1 466.29 66 466.29 62.2C466.29 56.8 461.29 55.8 454.49 54C446.09 51.8 437.99 49.3 437.99 39.6C437.99 31 444.59 24.5 456.29 24.5C460.89 24.5 465.19 25.7 468.59 27.8C469.79 28.5 470.99 30 470.99 31.7C470.99 33.9 469.19 35.8 466.89 35.8C465.39 35.8 464.19 34.8 462.69 33.8C461.19 32.8 458.99 31.9 455.99 31.9C449.29 31.9 446.39 34.8 446.39 38.7C446.39 43.8 451.29 45 458.29 46.7C466.49 48.7 474.59 51.3 474.59 61.2C474.59 69.8 468.19 76.5 455.89 76.5C449.89 76.5 444.49 75.3 440.49 72.8Z" fill="#3A8363"/>
<path d="M482.59 50.5C482.59 35.4 492.99 24.5 507.29 24.5C520.39 24.5 530.79 34.1 530.79 47.2C530.79 50.3 528.79 52.4 525.89 52.4H493.39C491.99 52.4 491.49 52.9 491.49 54C491.49 56.5 493.49 61.1 496.49 64.1C499.49 67.1 503.59 68.9 509.39 68.9C513.69 68.9 517.49 67.3 520.39 65.2C521.29 64.5 522.29 64.1 523.29 64.1C525.39 64.1 527.09 66 527.09 68C527.09 69.2 526.69 70.2 525.69 71.1C521.49 74.6 515.59 76.5 509.19 76.5C493.7 76.5 482.59 65.3 482.59 50.5ZM518 36.1C515.2 33.3 511.6 31.9 507.3 31.9C503 31.9 499 33.6 496.1 36.5C493.8 38.8 492.2 41.8 492.2 43.8C492.2 44.8 492.8 45.2 494.1 45.2H520.1C521.3 45.2 521.9 44.8 521.9 43.8C521.9 41.4 520 38.1 518 36.1Z" fill="#3A8363"/>
</svg>
