<svg width="1016" height="190" viewBox="0 0 1016 190" fill="none" xmlns="http://www.w3.org/2000/svg">
<path d="M335.144 167.05L305.767 122.234L276.794 167.05H231.004L282.67 93.94L233.233 22.4824H278.414L306.779 64.2004L334.739 22.4824H378.099L328.662 92.2878L381.34 167.05H335.144Z" fill="#3F4A78"/>
<path d="M431.742 54.0807V85.8854H494.349V117.484H431.742V167.05H391.625V22.4824H502.857V54.0807H431.742Z" fill="#3F4A78"/>
<path d="M518.23 22.4824H558.346V134.625H626.018V167.05H518.23V22.4824Z" fill="#3F4A78"/>
<path d="M707.94 169.956C692.946 169.956 679.439 166.72 667.418 160.249C655.532 153.778 646.144 144.828 639.255 133.401C632.501 121.973 629.125 109.099 629.125 94.7804C629.125 80.4614 632.501 67.5881 639.255 56.1604C646.144 44.7326 655.532 35.7832 667.418 29.3121C679.439 22.841 692.946 19.6055 707.94 19.6055C722.933 19.6055 736.372 22.841 748.258 29.3121C760.28 35.7832 769.668 44.7326 776.421 56.1604C783.31 67.5881 786.755 80.4614 786.755 94.7804C786.755 109.099 783.31 121.973 776.421 133.401C769.668 144.828 760.28 153.778 748.258 160.249C736.372 166.72 722.933 169.956 707.94 169.956ZM707.94 136.085C715.098 136.085 721.582 134.364 727.39 130.922C733.197 127.48 737.791 122.661 741.168 116.466C744.544 110.132 746.233 102.904 746.233 94.7804C746.233 86.6571 744.544 79.4976 741.168 73.3018C737.791 66.9685 733.197 62.0808 727.39 58.6386C721.582 55.1966 715.098 53.4755 707.94 53.4755C700.78 53.4755 694.297 55.1966 688.489 58.6386C682.681 62.0808 678.088 66.9685 674.711 73.3018C671.335 79.4976 669.646 86.6571 669.646 94.7804C669.646 102.904 671.335 110.132 674.711 116.466C678.088 122.661 682.681 127.48 688.489 130.922C694.297 134.364 700.78 136.085 707.94 136.085Z" fill="#3F4A78"/>
<path d="M1015.92 22.4824L969.926 167.05H926.973L899.822 79.0701L871.459 167.05H828.504L782.512 22.4824H823.845L852.413 114.799L882.399 22.4824H919.274L947.842 115.625L977.626 22.4824H1015.92Z" fill="#3F4A78"/>
<path d="M20.2836 30.3896L0.81267 64.3601C0.114251 65.5757 -0.0762598 67.018 0.28253 68.3735C0.641321 69.729 1.52042 70.888 2.72888 71.5991L39.6587 93.3482C39.9838 93.5345 40.254 93.8036 40.4418 94.1278C40.6298 94.4523 40.7287 94.8204 40.7287 95.1952C40.7287 95.5699 40.6298 95.9382 40.4418 96.2625C40.254 96.5867 39.9838 96.8558 39.6587 97.0423C28.1827 103.43 10.6919 113.16 2.54792 118.131C1.35852 118.858 0.501572 120.022 0.161188 121.374C-0.179197 122.725 0.0241212 124.156 0.727486 125.36L20.7839 159.617C21.495 160.828 22.6561 161.71 24.0141 162.069C25.3721 162.427 26.8169 162.236 28.0335 161.534L64.9954 140.242C65.3188 140.056 65.6859 139.957 66.0594 139.957C66.433 139.957 66.7999 140.055 67.1235 140.242C67.4471 140.428 67.716 140.697 67.903 141.02C68.09 141.344 68.1886 141.71 68.1891 142.084V184.667C68.1891 186.079 68.7499 187.433 69.748 188.43C70.7463 189.429 72.1002 189.99 73.5119 189.99H112.901C114.313 189.99 115.666 189.429 116.665 188.43C117.663 187.433 118.224 186.079 118.224 184.667V154.539C118.224 152.671 117.732 150.835 116.797 149.217C115.863 147.598 114.519 146.255 112.901 145.32L64.0799 117.162C62.7849 116.415 61.7096 115.339 60.9621 114.044C60.2146 112.749 59.8212 111.28 59.8215 109.785V53.0011C59.8253 51.1288 59.3351 49.2886 58.4006 47.6663C57.466 46.0441 56.1201 44.6968 54.4988 43.7606L27.544 28.4095C26.3185 27.7098 24.8653 27.5252 23.5038 27.8965C22.1423 28.2678 20.9841 29.1646 20.2836 30.3896Z" fill="#3F4A78"/>
<path d="M112.868 0H73.4791C72.0674 0 70.7135 0.560801 69.7152 1.55903C68.7171 2.55726 68.1563 3.91113 68.1563 5.32283V107C68.1551 107.748 68.3513 108.484 68.7251 109.132C69.099 109.781 69.6371 110.319 70.2854 110.694L158.293 161.547C159.512 162.252 160.96 162.445 162.32 162.084C163.682 161.723 164.844 160.837 165.554 159.621L185.515 125.619C186.224 124.403 186.423 122.955 186.069 121.592C185.713 120.229 184.832 119.063 183.619 118.348L146.657 96.5987C146.335 96.4115 146.067 96.143 145.881 95.8197C145.694 95.4965 145.597 95.13 145.597 94.7571C145.597 94.3841 145.694 94.0175 145.881 93.6944C146.067 93.3712 146.335 93.1025 146.657 92.9154L183.491 72.1137C184.104 71.7678 184.642 71.3037 185.076 70.7482C185.508 70.1928 185.827 69.5569 186.012 68.8779C186.196 68.1986 186.245 67.4894 186.154 66.7913C186.063 66.0932 185.834 65.42 185.481 64.8107L165.574 30.3933C164.87 29.1709 163.706 28.2788 162.343 27.9135C160.979 27.5481 159.526 27.7394 158.304 28.4452L121.374 49.7366C121.05 49.9238 120.682 50.0222 120.307 50.0218C119.933 50.0215 119.565 49.9223 119.241 49.7344C118.917 49.5466 118.648 49.2767 118.462 48.9518C118.276 48.6269 118.179 48.2586 118.18 47.8843V5.30154C118.175 3.89538 117.613 2.54856 116.617 1.55524C115.622 0.561919 114.274 0.00280112 112.868 0Z" fill="#3F4A78"/>
</svg>
