<svg width="175" height="45" viewBox="0 0 175 45" fill="none" xmlns="http://www.w3.org/2000/svg">
<path d="M9.75843 2.52141C5.20629 6.10577 1.94452 11.2314 0.618303 16.6796C-0.206101 20.0489 -0.206101 25.9631 0.618303 29.0457C1.51439 32.3074 3.30658 35.9993 5.27797 38.6159C7.6795 41.7702 11.694 45.0319 12.6976 44.6377C13.3428 44.3868 15.6368 40.3006 15.4576 39.6554C15.3859 39.4045 14.4898 38.4726 13.4145 37.6123C11.1205 35.7484 8.75481 32.4867 7.60781 29.5116C6.49666 26.6442 6.24575 20.6941 7.106 17.7191C8.28884 13.5971 10.9413 9.72598 14.4181 7.10939C15.3859 6.39252 15.6009 6.03408 15.4217 5.35305C15.135 4.27775 12.9844 1.01597 12.4467 0.836755C12.1958 0.765067 11.013 1.51779 9.75843 2.52141Z" fill="#276EF1"/>
<path d="M38.6124 1.01604C38.0747 1.37448 35.96 5.20975 35.96 5.78325C35.96 6.07 36.9277 7.03777 38.0747 7.96971C40.4046 9.83358 42.6627 12.952 43.9172 16.0704C45.4421 19.8063 45.4445 25.79 43.8814 29.5117C42.6986 32.4868 40.3687 35.7844 38.0747 37.6124C36.9994 38.4727 36.1033 39.4046 36.0316 39.6913C35.8883 40.1931 38.003 44.1001 38.6124 44.5302C39.2217 44.9603 39.3651 44.8887 41.6949 43.1682C45.817 40.0498 49.1863 34.9958 50.6917 29.5834C51.7312 25.9274 51.8028 19.9773 50.8709 16.5363C49.2221 10.4788 45.7453 5.31728 41.0139 1.87629C39.3293 0.657606 39.2217 0.585919 38.6124 1.01604Z" fill="#276EF1"/>
<path d="M71.2665 2.16288C68.6499 2.73638 67.5029 4.20597 67.5029 7.00177C67.5029 8.32799 67.718 8.86564 68.6858 9.94095C69.7252 11.0521 70.1554 11.2672 71.84 11.3747C73.3454 11.4822 74.0265 11.3747 74.9584 10.7653C76.9298 9.54667 77.7184 6.75087 76.6789 4.74362C75.6036 2.70054 73.5247 1.69691 71.2665 2.16288ZM74.3849 4.67194C75.3168 5.63971 75.4602 5.96231 75.281 7.1093C74.9942 8.75811 73.9189 9.69004 72.2343 9.69004C69.0442 9.69004 68.0764 5.56803 70.9081 4.02675C72.1268 3.34572 73.2379 3.56078 74.3849 4.67194Z" fill="black"/>
<path d="M80.1197 6.71535C80.2273 11.1241 80.2631 11.3033 81.0158 11.4109C81.7327 11.5184 81.8044 11.3392 81.9119 9.7979L82.0195 8.07741L83.8833 7.96987C85.3888 7.89819 85.8906 7.68313 86.4999 6.93041C87.4677 5.67588 87.4318 4.13461 86.3207 3.0593C85.568 2.27074 85.1378 2.16321 82.7363 2.16321H80.0122L80.1197 6.71535ZM85.2095 4.38551C85.8547 5.42498 85.0662 6.28522 83.4174 6.28522C82.2345 6.28522 82.0195 6.17769 81.9119 5.46082C81.6969 3.99123 82.0911 3.56111 83.489 3.66864C84.2776 3.74033 84.9945 4.02707 85.2095 4.38551Z" fill="black"/>
<path d="M90.1559 6.71523L90.2634 11.3032H92.9517C95.389 11.3032 95.6399 11.2315 95.6399 10.5863C95.6399 9.977 95.3532 9.86947 93.7761 9.76194C91.9481 9.65441 91.8764 9.61856 91.8764 8.5791C91.8764 7.57547 91.9481 7.53963 93.4893 7.53963C94.8514 7.53963 95.1023 7.4321 95.1023 6.8586C95.1023 6.2851 94.8155 6.14173 93.5969 6.0342C92.1631 5.92667 92.0556 5.85498 92.0556 4.85136C92.0556 3.81189 92.1273 3.77605 93.9553 3.66852C95.5324 3.56099 95.8192 3.45346 95.8192 2.84412C95.8192 2.23477 95.5683 2.16309 92.9517 2.16309H90.0483L90.1559 6.71523Z" fill="black"/>
<path d="M99.0449 6.8586C99.0449 11.5183 99.0449 11.5183 99.8693 11.4107C100.586 11.3032 100.658 11.0881 100.837 8.2565L101.016 5.2098L103.525 8.32819C105.318 10.5863 106.249 11.4824 106.859 11.4824C107.647 11.4824 107.647 11.4107 107.647 6.82276V2.16309H106.751C105.891 2.16309 105.891 2.23477 105.784 5.28148L105.676 8.43572L103.203 5.28148C101.339 2.95165 100.515 2.16309 99.8693 2.16309C99.0449 2.16309 99.0449 2.16309 99.0449 6.8586Z" fill="black"/>
<path d="M70.1906 18.4362C68.1117 19.3682 67.0364 21.6263 67.5382 23.9562C68.1834 26.967 71.8036 28.4725 74.6352 26.967C75.9614 26.2502 77.1801 24.3863 77.1801 23.0601C77.1801 22.3074 77.0367 22.2357 75.0295 22.2357C73.1298 22.2357 72.8789 22.3074 72.8789 22.9525C72.8789 23.526 73.1298 23.6694 73.9542 23.6694C75.2446 23.6694 75.3879 24.458 74.2409 25.2465C72.162 26.7161 69.2945 25.2824 69.2945 22.7733C69.2945 20.336 71.9111 18.9022 73.8825 20.3001C74.7428 20.8736 76.2482 20.6585 75.9973 19.9775C75.4955 18.4721 72.0545 17.576 70.1906 18.4362Z" fill="black"/>
<path d="M82.3419 18.4361C79.1159 19.9057 78.4707 24.0635 81.159 26.3217C85.066 29.6193 90.9802 25.3897 88.7937 20.9451C88.3994 20.1924 87.6826 19.2963 87.1807 18.902C85.9621 18.0418 83.7398 17.7909 82.3419 18.4361ZM86.3563 20.5867C87.1091 21.196 87.36 21.7695 87.36 22.7015C87.36 25.4614 84.4208 26.7876 82.3419 24.9596C80.2629 23.2033 81.625 19.7264 84.3491 19.7264C84.9226 19.7264 85.8187 20.1207 86.3563 20.5867Z" fill="black"/>
<path d="M91.1951 18.7229C91.1951 18.9738 91.912 21.0527 92.7364 23.3108C94.206 27.182 94.3494 27.4329 95.2813 27.4329C96.1774 27.4329 96.3566 27.182 97.9696 22.8449L99.6901 18.2927H98.7223C97.8979 18.2927 97.6828 18.5436 96.9301 20.6943C95.353 25.1389 95.4605 24.9597 95.1021 24.3862C94.887 24.0994 94.3494 22.594 93.8117 21.0527C92.9873 18.6153 92.7723 18.2927 92.0195 18.2927C91.5536 18.2927 91.1593 18.5078 91.1951 18.7229Z" fill="black"/>
<path d="M102.342 22.8449L102.45 27.4329H105.138C107.647 27.4329 107.826 27.397 107.934 26.6085C108.042 25.8916 107.934 25.8199 106.249 25.8199C104.457 25.8199 104.421 25.7841 104.421 24.7804C104.421 23.7768 104.529 23.7051 105.963 23.5976C107.181 23.5259 107.468 23.3467 107.468 22.7732C107.468 22.1997 107.181 22.0205 105.963 21.9488C104.529 21.8413 104.421 21.7696 104.421 20.7659C104.421 19.7623 104.457 19.7265 106.214 19.7265C107.755 19.7265 108.006 19.6189 108.006 19.0096C108.006 18.3644 107.755 18.2927 105.138 18.2927H102.235L102.342 22.8449Z" fill="black"/>
<path d="M111.303 22.8446C111.411 27.1459 111.447 27.4326 112.128 27.4326C112.737 27.4326 112.845 27.1459 112.952 25.5329C113.06 23.8841 113.167 23.669 113.848 23.669C114.422 23.669 114.924 24.1708 115.64 25.4971C116.716 27.3609 117.468 27.9703 118.078 27.3609C118.329 27.11 118.078 26.3931 117.397 25.2103L116.321 23.3823L117.074 22.6654C118.042 21.6618 117.97 19.7621 116.931 18.9377C116.357 18.4717 115.533 18.2925 113.705 18.2925H111.196L111.303 22.8446ZM115.855 20.228C116.608 21.1241 115.927 21.8768 114.422 21.8768C113.096 21.8768 113.024 21.8052 113.024 20.8015C113.024 19.8338 113.131 19.7262 114.243 19.7262C114.888 19.7262 115.64 19.9413 115.855 20.228Z" fill="black"/>
<path d="M121.339 22.8449C121.447 27.2896 121.483 27.4329 122.271 27.5405C123.024 27.648 123.06 27.5763 123.06 24.6013C123.06 22.8808 123.203 21.5187 123.418 21.5187C123.598 21.5187 124.816 22.8449 126.143 24.4579C127.791 26.501 128.759 27.4329 129.297 27.4329C130.014 27.4329 130.049 27.2537 130.157 22.8449L130.265 18.2928H129.333C128.437 18.2928 128.437 18.3286 128.437 21.1603C128.437 22.7374 128.293 24.0278 128.114 24.0278C127.935 24.0278 126.752 22.7374 125.497 21.1603C123.633 18.7946 123.06 18.2928 122.236 18.2928H121.232L121.339 22.8449Z" fill="black"/>
<path d="M133.885 22.845C133.992 27.1462 134.028 27.4329 134.709 27.4329C135.354 27.4329 135.426 27.1462 135.534 24.6371C135.605 23.1317 135.749 21.8772 135.892 21.8772C136.071 21.8772 136.717 23.1676 137.362 24.7447C138.007 26.3218 138.688 27.6122 138.867 27.6122C139.19 27.6122 139.692 26.6085 141.555 22.4148C141.77 21.913 141.914 22.4865 142.057 24.5655C142.236 27.3254 142.272 27.4329 143.133 27.4329H144.029L144.136 22.845L144.244 18.2928H142.846H141.484L140.301 21.1962C139.656 22.7733 138.975 23.9561 138.831 23.7769C138.688 23.6335 138.079 22.3431 137.505 20.9811C136.466 18.5796 136.394 18.472 135.104 18.3645L133.777 18.257L133.885 22.845Z" fill="black"/>
<path d="M147.792 22.9524V27.6479L150.409 27.5404C152.775 27.4329 152.99 27.3612 153.097 26.6085C153.205 25.8916 153.097 25.8199 151.413 25.8199C149.621 25.8199 149.585 25.7841 149.585 24.7446C149.585 23.7051 149.656 23.6693 151.198 23.6693C152.667 23.6693 152.811 23.5976 152.811 22.7732C152.811 21.9488 152.667 21.8771 151.198 21.8771C149.656 21.8771 149.585 21.8413 149.585 20.8018C149.585 19.7623 149.621 19.7265 151.377 19.7265C152.918 19.7265 153.169 19.619 153.169 19.0096C153.169 18.3644 152.918 18.2928 150.481 18.2928H147.792V22.9524Z" fill="black"/>
<path d="M156.466 22.8448C156.574 27.1461 156.61 27.4328 157.291 27.4328C157.936 27.4328 158.008 27.1461 158.115 24.4578C158.187 22.8448 158.366 21.5186 158.545 21.5186C158.725 21.5186 159.943 22.8807 161.269 24.5653C163.097 26.8952 163.886 27.612 164.424 27.5404C165.141 27.4328 165.176 27.1461 165.284 22.8448L165.391 18.2927H164.46C163.563 18.2927 163.563 18.3285 163.563 21.1602C163.563 22.7373 163.42 24.0277 163.241 24.0277C163.062 24.0277 161.879 22.7373 160.624 21.1602C158.76 18.7945 158.187 18.2927 157.363 18.2927H156.359L156.466 22.8448Z" fill="black"/>
<path d="M168.223 19.0094C168.223 19.5829 168.474 19.7263 169.298 19.7263H170.338L170.445 23.5616C170.553 27.2534 170.589 27.4327 171.342 27.5402C172.13 27.6477 172.13 27.5402 172.238 23.7766L172.345 19.9055L173.528 19.798C174.388 19.7263 174.675 19.5112 174.675 18.9736C174.675 18.3642 174.388 18.2925 171.449 18.2925C168.474 18.2925 168.223 18.3284 168.223 19.0094Z" fill="black"/>
<path d="M68.1117 34.3149C67.9684 34.4224 67.8608 36.5372 67.8608 38.9745V43.3833H68.7569C69.5813 43.3833 69.653 43.2399 69.653 41.7703V40.1574H71.0868C74.707 40.1574 76.2841 37.4333 73.9901 35.1034C73.0582 34.1715 72.6997 34.064 70.6208 34.064C69.3663 34.064 68.2193 34.1715 68.1117 34.3149ZM73.0582 37.1107C73.0582 38.1501 72.9865 38.186 71.3735 38.2935L69.653 38.401V37.1107V35.8203L71.3735 35.9278C72.9865 36.0354 73.0582 36.0712 73.0582 37.1107Z" fill="black"/>
<path d="M78.1484 34.3149C78.005 34.4224 77.8975 36.5372 77.8975 38.9745V43.3833H78.7577C79.5821 43.3833 79.6538 43.2399 79.7613 41.4836C79.8689 39.9065 79.9764 39.6197 80.5857 39.6197C81.0875 39.6197 81.6252 40.1932 82.3062 41.4836C83.0948 42.989 83.4891 43.3833 84.2059 43.3833C85.2812 43.3833 85.2812 43.3475 84.0984 41.2327C83.1306 39.5122 83.1306 39.4763 83.8117 38.7595C84.8153 37.6483 84.6719 35.9278 83.4891 34.8884C82.7005 34.2432 82.0912 34.064 80.4424 34.064C79.2954 34.064 78.2559 34.1715 78.1484 34.3149ZM82.7005 36.4296C83.0589 37.3257 82.2704 38.0068 80.9083 38.0068C79.7972 38.0068 79.6896 37.8992 79.6896 36.9314C79.6896 35.9278 79.7613 35.8561 81.0875 35.8561C82.0553 35.8561 82.5571 36.0354 82.7005 36.4296Z" fill="black"/>
<path d="M89.833 34.6015C87.1089 35.7844 86.392 39.763 88.5068 41.9853C90.1914 43.7417 92.593 44.0284 95.0662 42.7022C96.8942 41.6986 97.5394 37.8633 96.1415 36.0711C94.6361 34.1356 92.1628 33.5621 89.833 34.6015ZM94.3493 36.788C95.102 37.7199 95.3171 39.1895 94.887 40.3365C94.6002 41.0175 92.9156 41.9495 91.8761 41.9495C90.6933 41.9495 89.0086 40.0498 89.0086 38.7236C89.0086 36.107 92.7363 34.7449 94.3493 36.788Z" fill="black"/>
<path d="M100.121 38.7236V43.3833H102.558C106.608 43.3833 108.4 41.5194 107.863 37.8634C107.469 35.3185 105.569 34.064 102.056 34.064H100.121V38.7236ZM105.031 36.3938C105.999 37.0748 106.357 38.5086 105.856 39.9782C105.461 41.1968 104.278 41.9496 102.809 41.9496C101.913 41.9496 101.913 41.9137 101.913 38.9028V35.8561H103.096C103.741 35.8561 104.601 36.107 105.031 36.3938Z" fill="black"/>
<path d="M111.124 34.3147C110.981 34.4222 110.874 36.1068 110.874 37.9707C110.874 40.5156 111.017 41.6268 111.411 42.2003C112.164 43.3114 114.315 43.8132 115.999 43.3473C118.042 42.7738 118.401 41.9852 118.401 37.7198C118.401 34.0638 118.401 34.0279 117.612 34.1354C116.824 34.243 116.788 34.458 116.609 37.7557C116.429 41.4475 116.178 41.9494 114.565 41.9494C113.024 41.9494 112.666 41.0891 112.666 37.4331C112.666 34.4222 112.594 34.0638 112.021 34.0638C111.662 34.0638 111.232 34.1713 111.124 34.3147Z" fill="black"/>
<path d="M123.777 34.7089C122.128 35.5333 121.196 37.3613 121.375 39.3686C121.734 42.9171 125.963 44.7093 129.153 42.6662C129.619 42.3794 129.619 42.2719 129.082 41.7343C128.58 41.1966 128.293 41.1608 127.541 41.5192C126.071 42.2002 125.247 42.021 124.1 40.9099C122.056 38.8309 123.275 35.8559 126.214 35.8559C126.967 35.8559 127.756 36.0351 128.006 36.286C128.293 36.5728 128.544 36.5728 128.974 36.2143C129.763 35.5692 129.655 35.2107 128.437 34.6014C127.075 33.8845 125.318 33.9203 123.777 34.7089Z" fill="black"/>
<path d="M131.914 34.3149C131.77 34.4224 131.663 34.8525 131.663 35.211C131.663 35.7128 131.949 35.8561 132.917 35.8561H134.172V39.6197V43.3833H135.068H135.964V39.6197V35.8561H137.039C137.935 35.8561 138.114 35.7128 138.114 34.96C138.114 34.064 138.079 34.064 135.139 34.064C133.491 34.064 132.021 34.1715 131.914 34.3149Z" fill="black"/>
<path d="M141.52 34.9599C139.907 36.5729 140.444 38.0066 143.312 39.5837C145.068 40.5515 145.283 41.6985 143.706 41.8777C143.133 41.9494 142.523 41.8419 142.308 41.6268C141.735 41.0533 140.731 41.1608 140.48 41.806C140.193 42.5946 143.025 43.8133 144.495 43.5265C146.108 43.2039 146.789 42.272 146.645 40.659C146.538 39.4045 146.359 39.1894 144.566 38.1858C143.491 37.5765 142.559 36.8238 142.487 36.5012C142.344 35.7126 143.563 35.39 144.71 35.8918C145.462 36.2503 145.749 36.2503 146.108 35.8918C146.43 35.5334 146.359 35.3183 145.678 34.7448C144.495 33.7771 142.595 33.8487 141.52 34.9599Z" fill="black"/>
</svg>
