<svg width="137" height="36" viewBox="0 0 137 36" fill="none" xmlns="http://www.w3.org/2000/svg">
<path d="M18.7979 14.3372L6.05371 7.32791L19.1165 0L31.8607 7.32791L18.7979 14.3372Z" fill="#42D38B"/>
<path d="M37.914 24.214L19.1163 35.0465L0 24.214V9.87671L19.1163 21.0279L37.914 9.87671V24.214Z" fill="#2D0065"/>
<path d="M49.0654 26.1255V8.9209H53.5259V22.3023H60.5352V26.1255H49.0654Z" fill="#2D0165"/>
<path fill-rule="evenodd" clip-rule="evenodd" d="M70.73 26.7628C76.0088 26.7628 80.2882 22.4834 80.2882 17.2046C80.2882 11.9258 76.0088 7.64648 70.73 7.64648C65.4512 7.64648 61.1719 11.9258 61.1719 17.2046C61.1719 22.4834 65.4512 26.7628 70.73 26.7628ZM70.7298 22.3025C73.5452 22.3025 75.8275 20.0202 75.8275 17.2048C75.8275 14.3894 73.5452 12.1071 70.7298 12.1071C67.9145 12.1071 65.6322 14.3894 65.6322 17.2048C65.6322 20.0202 67.9145 22.3025 70.7298 22.3025Z" fill="#2D0165"/>
<path fill-rule="evenodd" clip-rule="evenodd" d="M99.4798 21.8429C97.8481 24.7772 94.7162 26.7625 91.1206 26.7625C85.8418 26.7625 81.5625 22.4832 81.5625 17.2044C81.5625 11.9256 85.8418 7.64624 91.1206 7.64624C94.5613 7.64624 97.5773 9.46417 99.2606 12.1919L95.035 13.9389C94.0999 12.8192 92.6934 12.1069 91.1206 12.1069C88.3052 12.1069 86.0229 14.3892 86.0229 17.2046C86.0229 20.02 88.3052 22.3023 91.1206 22.3023C92.901 22.3023 94.4682 21.3896 95.3798 20.0066L99.4798 21.8429Z" fill="#2D0165"/>
<path fill-rule="evenodd" clip-rule="evenodd" d="M106.413 8.92114H112.148L118.839 26.4444H114.06L113.423 23.8956H105.776L105.139 26.4444H99.7227L106.413 8.92114ZM109.281 13.3817L107.05 19.7538H112.467L109.281 13.3817Z" fill="#2D0165"/>
<path fill-rule="evenodd" clip-rule="evenodd" d="M120.433 8.92114H128.079V12.756C127.966 12.7482 127.851 12.7443 127.736 12.7443H124.893V22.0084H127.736C127.851 22.0084 127.966 22.0044 128.079 21.9967V26.1258H120.433V8.92114ZM128.079 21.9967V26.1259C133.006 26.1259 137 22.2745 137 17.5235C137 12.7726 133.006 8.92122 128.079 8.92122V12.756C130.572 12.9259 132.539 14.9296 132.539 17.3763C132.539 19.8231 130.572 21.8268 128.079 21.9967Z" fill="#2D0165"/>
</svg>
