<svg width="357" height="89" viewBox="0 0 357 89" fill="none" xmlns="http://www.w3.org/2000/svg">
<path d="M82.8492 4.57873C82.4328 5.58978 81.7192 6.54136 80.8865 7.25505C72.8576 15.3435 64.7692 23.3724 56.9187 31.5798C52.2797 36.4566 47.3434 41.155 42.645 46.0319C36.2218 52.8713 29.3823 59.2945 22.9592 66.0745C16.0008 73.2708 8.80445 80.1698 1.9055 87.485C1.60813 87.7229 1.42971 87.9608 1.25129 88.2582C0.359183 88.1987 0.180762 87.485 0.0618144 86.7713C0.00234079 86.355 0.00235531 85.8792 0.00235531 85.4629V66.134C-0.0571183 63.5766 1.0134 61.1977 2.79761 59.4134C6.84182 55.2503 11.005 51.2656 14.9897 47.0429C20.4613 41.274 26.2302 35.8024 31.7018 30.0335C35.9839 25.573 40.385 21.2314 44.6671 16.8303C49.4844 11.9535 54.2423 7.1361 59.0002 2.19979C60.7844 0.296629 63.4013 -0.417048 65.8992 0.237162C70.4786 1.12927 75.1176 2.14033 79.6971 3.03243C80.8865 3.21085 81.9571 3.7461 82.8492 4.57873Z" fill="#AFAFAF"/>
<path d="M86.2988 28.3681C83.3251 31.5202 80.173 34.4939 77.1399 37.5271C76.0693 38.5382 75.0583 39.6087 74.1067 40.7387C73.2741 41.6903 72.3225 42.5229 71.3114 43.2961C66.1967 48.4108 61.082 53.4661 56.0267 58.5808C53.6478 60.9597 51.0309 63.1603 48.7114 65.5987C47.5814 66.7881 46.6299 68.0371 45.4404 69.1671C39.612 74.5792 34.1404 80.4076 28.4309 85.9387C26.8251 87.4255 24.7436 88.3176 22.6025 88.3771C15.9415 88.7339 9.33988 88.615 2.73831 88.615C2.20304 88.615 1.60831 88.7934 1.25146 88.3771C1.42989 88.0797 1.60831 87.7823 1.90568 87.6039C8.80462 80.2887 16.0009 73.4492 22.9593 66.1934C29.442 59.4134 36.222 52.9902 42.6452 46.1508C47.2841 41.2145 52.1609 36.5755 56.9188 31.6987C64.8288 23.4913 72.8578 15.4624 80.8867 7.37395C81.7788 6.66026 82.433 5.70868 82.8493 4.69763C84.0983 5.64921 84.9309 7.0171 85.1688 8.56342C85.7636 11.3587 86.0609 14.2729 86.7746 17.0087C87.2504 18.9118 87.4883 20.815 87.9641 22.7181C88.4398 24.7402 87.7856 26.8813 86.2988 28.3681Z" fill="#D9D9D9"/>
<path d="M348.28 59.5324C348.042 59.1756 347.745 58.8187 347.507 58.4619C346.912 57.5698 346.912 57.4508 347.923 57.1534C348.399 57.0345 348.875 56.8561 349.291 56.6777C351.373 55.845 353.038 54.2392 353.871 52.1576C355.952 47.3998 353.811 41.8687 349.053 39.7871C348.459 39.5492 347.804 39.3113 347.21 39.1924C345.663 38.895 344.117 38.7166 342.571 38.7166H331.984C330.557 38.7166 330.557 38.7166 330.557 40.144V69.8808C330.557 71.784 330.379 71.6055 332.341 71.6055H335.553C337.634 71.6055 337.396 71.8434 337.396 69.7024V59.1161C337.396 58.0455 337.753 57.8671 338.645 58.224C339.537 58.5213 340.311 59.1161 340.786 59.9487C341.381 60.7219 341.976 61.5545 342.511 62.3277C344.355 65.1229 346.199 67.9776 348.042 70.8918C348.28 71.3082 348.518 71.7245 349.172 71.7245H356.904C353.93 67.3829 351.194 63.3387 348.28 59.5324ZM344.593 52.5145C342.333 52.9903 340.073 53.1687 337.753 52.9903C337.218 52.9903 337.218 52.5145 337.218 52.1576V48.4703V44.7829C337.218 44.3071 337.337 44.0098 337.872 44.0098C339.954 43.8314 342.035 43.9503 344.057 44.3666C346.377 44.8424 347.923 47.1024 347.447 49.4219C347.388 49.7787 347.269 50.195 347.091 50.5519C346.555 51.444 345.663 52.2171 344.593 52.5145Z" fill="black"/>
<path d="M299.928 71.5461H281.075C279.469 71.5461 279.588 71.7245 279.588 70.0592V39.3708C279.588 38.776 279.826 38.5977 280.361 38.6571H299.214C300.463 38.6571 300.463 38.6571 300.225 39.9061C300.106 40.7387 299.868 41.6308 299.75 42.5229C299.393 44.4261 299.393 44.1287 297.906 44.1287H287.319C286.725 44.1287 286.427 44.3071 286.427 44.9613V50.8492C286.427 51.6224 286.844 51.6818 287.498 51.6818H296.657C297.133 51.6818 297.371 51.8603 297.371 52.3361V56.3208C297.371 56.9155 297.133 57.094 296.597 57.094H287.736C286.606 57.094 286.546 57.1534 286.546 58.2834V64.5876C286.546 65.7771 286.546 65.7771 287.855 65.7771H299.333C301.177 65.7771 300.998 65.5987 300.998 67.4424C300.998 68.5129 300.939 69.4645 300.998 70.535C301.058 71.3676 300.701 71.5461 299.928 71.5461Z" fill="black"/>
<path d="M197.098 71.5461H178.483C177.293 71.5461 177.293 71.5461 177.293 70.2971V39.3708C177.293 38.8356 177.531 38.6571 178.007 38.7166H197.336C197.871 38.7166 198.169 38.895 198.05 39.4898C197.812 40.7982 197.574 42.1066 197.336 43.4151C197.217 44.1287 196.682 44.1287 196.147 44.1287H186.69C184.133 44.1287 184.133 44.1287 184.133 46.6861V50.4924C184.133 51.6224 184.192 51.6819 185.322 51.6819H193.411C195.195 51.6819 195.076 51.6224 195.076 53.2877C195.076 54.2987 195.017 55.2503 195.076 56.2613C195.076 56.975 194.838 57.1535 194.184 57.1535H185.977C184.311 57.1535 184.311 57.1535 184.311 58.7592V64.2308C184.311 65.8961 184.311 65.8961 186.036 65.8961H197.336C198.645 65.8961 198.645 65.8961 198.645 67.264V70.0592C198.645 71.665 198.823 71.5461 197.098 71.5461Z" fill="black"/>
<path d="M253.955 38.6572C252.825 41.3929 251.933 43.9503 250.922 46.4482C247.829 54.3582 244.736 62.2682 241.644 70.1782C241.525 70.4756 241.406 70.7134 241.287 71.0108C241.168 71.5461 240.692 71.9029 240.157 71.784C240.157 71.784 240.157 71.784 240.097 71.784C238.67 71.7245 237.302 71.7245 235.815 71.784C234.983 71.8434 234.626 71.5461 234.329 70.7134C233.02 67.145 231.652 63.6361 230.284 60.1271C227.727 53.4066 225.17 46.7456 222.612 40.0845C222.374 39.7277 222.315 39.2519 222.255 38.8356C222.493 38.4787 222.91 38.6572 223.266 38.6572H228.738C229.392 38.5382 229.987 39.014 230.106 39.6682C230.701 41.5119 231.414 43.2961 232.009 45.0803C233.734 49.9571 235.637 54.715 237.064 59.7108C237.243 60.4245 237.481 61.1382 237.6 61.8519C237.659 62.0898 237.718 62.4466 238.135 62.5061C238.492 61.7329 238.789 60.9003 238.908 60.0082C240.216 55.3692 242.238 50.8492 243.904 46.3292C244.677 44.0692 245.629 41.9282 246.402 39.7871C246.521 39.0735 247.234 38.6571 247.889 38.7761C249.792 38.7166 251.695 38.6572 253.955 38.6572Z" fill="black"/>
<path d="M85.5848 88.3176C85.0496 88.496 84.5143 88.5555 83.9791 88.496H48.3543C47.7001 88.5555 47.0459 88.4366 46.4512 88.3176C45.6185 87.9608 45.3807 87.485 45.9754 86.7118C46.2133 86.4145 46.5106 86.1171 46.7485 85.8792C50.5549 82.3108 54.2422 78.6829 58.108 75.2334C59.9517 73.5681 61.6764 71.7245 63.6391 70.1782C64.8286 68.9887 66.7317 68.8697 68.0401 69.9402C68.397 70.1187 68.6943 70.416 68.9322 70.6539C72.6791 74.1629 76.307 77.6718 80.1133 81.1213C81.957 82.7865 83.6222 84.5113 85.5254 86.1171C85.7633 86.2955 85.9417 86.5334 86.1201 86.7713C86.5959 87.5444 86.4175 87.9608 85.5848 88.3176Z" fill="#AFAFAF"/>
<path d="M149.698 66.7882C149.341 68.0966 149.103 69.3456 148.806 70.654C148.746 71.1892 148.27 71.6055 147.735 71.6055H147.675H130.25C129.358 71.6055 129.358 71.5461 129.358 70.4161V40.2035C129.358 38.7166 129.179 38.7166 130.844 38.7166H135.364C136.019 38.7166 136.257 38.9545 136.197 39.5493V64.885C136.257 65.8961 136.257 65.9555 137.327 65.9555H148.806C149.638 65.8366 149.817 66.1935 149.698 66.7882Z" fill="black"/>
</svg>
