<svg width="136" height="40" viewBox="0 0 136 40" fill="none" xmlns="http://www.w3.org/2000/svg">
<path d="M6.45723 7.30961C6.02365 7.66887 5.91216 8.07767 6.12275 8.57319C6.20947 8.77139 7.81991 11.3976 9.70288 14.4079L13.1343 19.871L9.61616 25.297C7.68364 28.2825 6.06081 30.8468 6.02365 31.0078C5.92454 31.4166 6.14753 31.9741 6.49439 32.1971C6.75454 32.3705 7.37394 32.3953 10.7559 32.3953C13.3202 32.3953 14.8191 32.3457 15.0173 32.259C15.2651 32.1475 16.3676 30.5371 17.656 28.4063C17.8542 28.0719 18.04 27.8117 18.0771 27.8117C18.1143 27.8117 18.7213 28.7284 19.4274 29.8681C20.1336 30.9954 20.8521 32.0236 21.0255 32.1599C21.3104 32.3829 21.5582 32.3953 25.3365 32.3953H29.3254L29.7095 32.0732C30.3908 31.5033 30.2793 31.1069 28.9042 28.9762C28.2477 27.9604 26.6496 25.4952 25.3613 23.5007L23.02 19.871L26.5629 14.2469C29.6475 9.32885 30.0935 8.5608 30.0935 8.12722C30.0935 7.7308 30.0192 7.58215 29.7095 7.322L29.3254 6.99991H25.6214C21.8307 6.99991 21.5582 7.03708 21.2113 7.48304C21.137 7.59453 20.4061 8.69707 19.6009 9.93586C18.7957 11.187 18.1143 12.2029 18.0771 12.2029C18.04 12.2029 17.3215 11.1375 16.4915 9.84915C15.6491 8.54841 14.8191 7.38394 14.6457 7.24767C14.3484 7.0123 14.1378 6.99991 10.57 6.99991H6.82887L6.45723 7.30961Z" fill="url(#paint0_linear_517_2924)"/>
<path d="M88.5647 12.0295C86.4712 12.4754 84.6749 13.8753 83.7582 15.7954C83.1388 17.0962 82.9282 18.1739 83.0273 19.7472C83.1388 21.6921 83.8077 23.2034 85.1456 24.5289C88.255 27.5888 93.7553 27.0561 96.2205 23.4388C97.4965 21.5806 97.7938 18.8676 97.0009 16.5635C95.8241 13.1568 92.2316 11.2366 88.5647 12.0295ZM91.6122 14.6433C92.851 15.0645 93.6686 15.7954 94.226 16.9723C94.5481 17.6536 94.5729 17.8271 94.5729 19.2021C94.5729 20.6391 94.5605 20.7258 94.1641 21.5187C93.6933 22.4725 93.0244 23.1291 92.0457 23.5751C91.4635 23.86 91.1786 23.9095 90.2371 23.9095C88.7877 23.8972 87.8586 23.5131 86.9543 22.5221C86.0871 21.5682 85.8022 20.7506 85.7898 19.2021C85.7898 17.8147 86.0252 17.0094 86.7065 16.0927C87.7223 14.7053 89.9026 14.0611 91.6122 14.6433Z" fill="#5B69F2"/>
<path d="M106.961 12.017C104.719 12.5001 102.947 13.8752 102.018 15.8325C101.473 17.0093 101.287 17.8146 101.287 19.202C101.287 21.3823 101.931 22.9927 103.356 24.4174C104.818 25.8791 106.341 26.4985 108.509 26.4985C110.045 26.4985 111.098 26.226 112.337 25.4951C113.229 24.9624 114.369 23.7856 114.852 22.8936C116.041 20.7257 115.967 17.3562 114.691 15.2379C113.18 12.7355 109.909 11.3604 106.961 12.017ZM109.835 14.6185C111.891 15.2255 113.093 17.158 112.932 19.586C112.808 21.7168 111.594 23.29 109.686 23.7856C108.708 24.0333 108.076 24.0209 107.122 23.7236C105.053 23.0918 103.951 21.308 104.074 18.8304C104.149 17.542 104.471 16.6749 105.165 15.882C106.242 14.6556 108.187 14.1353 109.835 14.6185Z" fill="#5B69F2"/>
<path d="M39.3967 12.3514C39.3348 12.5125 38.1331 15.6466 36.7209 19.3135C35.3211 22.9927 34.1318 26.0525 34.1071 26.1021C34.0699 26.164 34.6893 26.1888 35.4821 26.1764L36.9315 26.1392L37.5014 24.5536L38.0712 22.9803H40.9824H43.9059L44.4758 24.566L45.0456 26.1392L46.495 26.1764C47.8453 26.2012 47.9444 26.1888 47.8825 25.9906C47.8453 25.8667 46.6437 22.6954 45.2191 18.9542L42.63 12.1408L41.0691 12.1037C39.5454 12.0665 39.5082 12.0789 39.3967 12.3514ZM41.9858 17.7402C42.4937 19.14 42.9273 20.3664 42.9521 20.4655C42.9892 20.5894 42.6052 20.6266 41.0072 20.6266C39.9046 20.6266 39.0127 20.5894 39.0127 20.5275C39.0127 20.3541 40.9204 15.1759 40.9948 15.1759C41.0319 15.1759 41.4779 16.328 41.9858 17.7402Z" fill="#5B69F2"/>
<path d="M52.0205 19.1403V26.2014H53.3832H54.7459L54.7706 21.1967L54.8078 16.1795L58.0039 21.1967L61.2124 26.2014H62.6246H64.0368V19.1403V12.0791H62.7361H61.4354L61.4106 16.8113L61.3734 21.5559L60.7788 20.6268C60.4443 20.1189 59.1064 18.0006 57.8057 15.9194L55.4272 12.1411L53.73 12.1039L52.0205 12.0667V19.1403Z" fill="#5B69F2"/>
<path d="M69.574 12.1658C69.5245 12.203 69.4873 15.3867 69.4873 19.227V26.2014H70.85H72.2127V23.538V20.8746H73.9346C75.8919 20.8746 76.7467 20.6888 77.6881 20.0322C79.6702 18.6695 79.9675 15.4363 78.2952 13.5285C77.7501 12.9091 76.5237 12.3269 75.4831 12.1906C74.4797 12.0667 69.6855 12.042 69.574 12.1658ZM75.5574 14.7054C76.3379 15.1018 76.6723 15.6592 76.6723 16.5388C76.6723 17.3688 76.3626 17.9262 75.6813 18.3227C75.3344 18.5209 74.9752 18.5828 73.7364 18.62L72.2127 18.6695V16.5512V14.4328H73.6125C74.8141 14.4328 75.0867 14.47 75.5574 14.7054Z" fill="#5B69F2"/>
<path d="M120.402 19.1403V26.2014H124.862H129.321V24.9626V23.7238H126.162H123.003V17.9015V12.0791H121.703H120.402V19.1403Z" fill="#5B69F2"/>
<defs>
<linearGradient id="paint0_linear_517_2924" x1="33.3155" y1="12.0171" x2="-11.049" y2="49.0881" gradientUnits="userSpaceOnUse">
<stop stop-color="#347FE0"/>
<stop offset="0.470985" stop-color="#A64CF2"/>
<stop offset="1" stop-color="#6674FC"/>
</linearGradient>
</defs>
</svg>
