<svg width="600" height="121" viewBox="0 0 600 121" fill="none" xmlns="http://www.w3.org/2000/svg">
<path d="M146.2 3.1001C131.1 3.1001 125.8 13.6001 125.8 23.4001V29.4001H122.6C120.3 29.4001 118.5 31.2001 118.5 33.5001C118.5 35.8001 120.3 37.6001 122.6 37.6001H125.8V79.0001C125.8 81.4001 127.7 83.4001 130.2 83.4001C132.6 83.4001 134.6 81.5001 134.6 79.0001V37.6001H144.3C146.6 37.6001 148.4 35.8001 148.4 33.5001C148.4 31.2001 146.6 29.4001 144.3 29.4001H134.6V23.4001C134.6 17.9001 136.6 11.4001 146.3 11.4001C148.6 11.4001 150.4 9.60008 150.4 7.30008C150.3 4.90008 148.5 3.1001 146.2 3.1001Z" fill="#4D4D4D"/>
<path d="M180.2 28C173.7 28 168.2 30.7 165.1 35.1V32.8C165.1 30.4 163.2 28.4 160.7 28.4C158.3 28.4 156.3 30.3 156.3 32.8V79C156.3 81.4 158.2 83.4 160.7 83.4C163.1 83.4 165.1 81.5 165.1 79V53.5C165.1 42.8 170.8 36.4 180.2 36.4C182.5 36.4 184.4 34.5 184.4 32.2C184.5 29.9 182.6 28 180.2 28Z" fill="#4D4D4D"/>
<path d="M233.7 50.7C233.7 48.2 233.3 41.7 229.5 36.3C225.6 30.7 219.5 27.8 211.2 27.8C195.8 27.8 187 38 187 55.8C187 74.2 195.8 84.0001 212.3 84.0001C223.4 84.0001 229.5 78.5001 230.6 77.4001C231.3 76.7001 232.1 75.8 232.1 74.3C232.1 72.1 230.3 70.3 228.1 70.3C227 70.3 226.3 70.6001 225.6 71.1001C222.4 73.5001 218.7 75.9001 212.4 75.9001C202.5 75.9001 196.2 69.4 195.9 58.8H228.4C233.7 58.7 233.7 53.9 233.7 50.7ZM211.2 35.8C220.2 35.8 224.9 40.9001 225.1 50.9001H196C196.8 41.2001 202.2 35.8 211.2 35.8Z" fill="#4D4D4D"/>
<path d="M263.1 51.3999C256.6 49.1999 251 47.1999 251 42.3999C251 37.0999 256.9 36.2999 260.4 36.2999C266.7 36.2999 269.8 38.4999 272.3 40.8999C273.1 41.6999 274.1 42.0999 275.2 42.0999C277.4 42.0999 279.2 40.2999 279.2 38.0999C279.2 36.8999 278.7 36.0999 278.3 35.4999C274.6 30.5999 268.3 27.8999 260.4 27.8999C249.2 27.8999 242.3 33.4999 242.3 42.3999C242.3 53.2999 251.9 56.5999 260.3 59.3999C266.7 61.5999 272.2 63.3999 272.2 68.0999C272.2 74.4999 265.1 75.4999 260.8 75.4999C255 75.4999 250.5 73.6999 246.8 70.0999C245.7 68.9999 244.5 68.7999 243.8 68.7999C241.6 68.7999 239.8 70.5999 239.8 72.7999C239.8 73.6999 240.1 74.3999 240.8 75.3999C244.1 79.5999 251.6 83.8999 260.8 83.8999C273.4 83.8999 280.9 77.9999 280.9 68.1999C280.9 57.5999 271.5 54.2999 263.1 51.3999Z" fill="#4D4D4D"/>
<path d="M315 27.8C309 27.8 303.6 30.2 300.6 34V4.39999C300.6 1.99999 298.7 0 296.2 0C293.8 0 291.8 1.89999 291.8 4.39999V79.1C291.8 81.5 293.7 83.5 296.2 83.5C298.6 83.5 300.6 81.6 300.6 79.1V51C300.6 40.9 305.5 35.8 315 35.8C324.2 35.8 328 40 328 50.2V79.1C328 81.5 329.9 83.5 332.4 83.5C334.8 83.5 336.8 81.6 336.8 79.1V48.7C336.6 34.8 329.3 27.8 315 27.8Z" fill="#4D4D4D"/>
<path d="M409.5 28.5C407.6 28.5 406.1 29.6 405.4 31.4L392.9 67L382.7 31.4C382.3 30 380.8 28.5 378.6 28.5C376.4 28.5 374.9 30 374.5 31.4L364.3 66.9L351.8 31.3C351.1 29.5 349.6 28.5 347.7 28.5C345.3 28.5 343.3 30.4 343.3 32.9C343.3 33.5 343.4 34.1 343.7 34.7L360.4 80.6C361.1 82.4 362.6 83.4 364.5 83.4C366.5 83.4 368.2 82.1 368.7 80.3L378.5 46.6L388.3 80.3C388.8 82.1 390.6 83.4 392.5 83.4C394.4 83.4 395.9 82.3 396.6 80.5L413.3 34.6C413.6 34 413.7 33.3 413.7 32.7C413.8 30.4 411.9 28.5 409.5 28.5Z" fill="#4D4D4D"/>
<path d="M441.3 27.8C425.4 27.8 416.7 37.8 416.7 55.8C416.7 74 425.4 84.0001 441.3 84.0001C457.2 84.0001 465.9 74 465.9 55.8C465.9 37.7 457.1 27.8 441.3 27.8ZM441.3 76.0001C430.7 76.0001 425.5 69.4001 425.5 55.9001C425.5 42.6001 430.8 35.9001 441.3 35.9001C451.8 35.9001 457.1 42.6001 457.1 55.9001C457.1 69.4001 451.9 76.0001 441.3 76.0001Z" fill="#4D4D4D"/>
<path d="M499.7 28C493.2 28 487.7 30.7 484.6 35.1V32.8C484.6 30.4 482.7 28.4 480.2 28.4C477.8 28.4 475.8 30.3 475.8 32.8V79C475.8 81.4 477.7 83.4 480.2 83.4C482.6 83.4 484.6 81.5 484.6 79V53.5C484.6 42.8 490.3 36.4 499.7 36.4C502 36.4 503.9 34.5 503.9 32.2C503.9 29.9 502 28 499.7 28Z" fill="#4D4D4D"/>
<path d="M532.9 50.8L551 36.3C552.5 35.1 552.7 33.6 552.7 32.8C552.7 30.4 550.8 28.4 548.3 28.4C547.6 28.4 546.4 28.5 545.3 29.5L519.6 50.5V4.39999C519.6 1.99999 517.7 0 515.2 0C512.8 0 510.8 1.89999 510.8 4.39999V79.1C510.8 81.5 512.7 83.5 515.2 83.5C517.6 83.5 519.6 81.6 519.6 79.1V61.1L525.7 56.2L545.4 81.5C546.5 82.8 547.7 83.5 549.1 83.5C551.5 83.5 553.5 81.6 553.5 79.1C553.5 78.4 553.4 77.4 552.6 76.4L532.9 50.8Z" fill="#4D4D4D"/>
<path d="M582.2 51.3999C575.7 49.1999 570.1 47.1999 570.1 42.3999C570.1 37.0999 576 36.2999 579.5 36.2999C585.8 36.2999 588.9 38.4999 591.4 40.8999C592.2 41.6999 593.2 42.0999 594.3 42.0999C596.5 42.0999 598.3 40.2999 598.3 38.0999C598.3 36.7999 597.6 35.8999 597.4 35.4999C593.7 30.5999 587.4 27.8999 579.5 27.8999C568.3 27.8999 561.4 33.4999 561.4 42.3999C561.4 53.2999 571 56.5999 579.4 59.3999C585.8 61.5999 591.3 63.3999 591.3 68.0999C591.3 74.4999 584.2 75.4999 579.9 75.4999C574.1 75.4999 569.6 73.6999 565.9 70.0999C564.8 68.9999 563.7 68.7999 562.9 68.7999C560.7 68.7999 558.9 70.5999 558.9 72.7999C558.9 73.6999 559.2 74.3999 559.9 75.3999C563.2 79.5999 570.7 83.8999 579.9 83.8999C592.5 83.8999 600 77.9999 600 68.1999C600 57.5999 590.6 54.2999 582.2 51.3999Z" fill="#4D4D4D"/>
<path d="M0.600098 76.6001C2.3001 87.7001 7.5001 97.7 15.0001 105.2L32.5001 87.7C32.5001 70 41.7001 52.8 58.1001 43.3L0.600098 76.6001Z" fill="#9B65C3"/>
<path d="M32.5001 87.7C23.8001 87.7 15.0001 85.5 6.9001 80.8C4.7001 79.5 2.6001 78.1 0.600098 76.5C2.3001 87.6 7.5001 97.6 15.0001 105.1L32.5001 87.7Z" fill="#9B65C3"/>
<path d="M32.5 87.7001L15 105.2C22.6 112.8 32.5 118 43.6 119.6L76.8 62.1001C67.4 78.5001 50.2 87.7001 32.5 87.7001Z" fill="#BE63C5"/>
<path d="M39.4 113.4C34.7 105.3 32.5 96.5 32.5 87.8L15 105.3C22.6 112.9 32.5 118.1 43.6 119.7C42.1 117.7 40.7 115.6 39.4 113.4Z" fill="#BF63C6"/>
<path d="M97.7001 20.5L58.2001 43.4C41.8001 52.9 22.3001 52.2 7.0001 43.4C2.6001 50.9 0.100098 59.7 0.100098 69C0.100098 71.6 0.300096 74.1 0.700096 76.6C2.7001 78.2 4.8001 79.6 7.0001 80.9C15.1001 85.6 23.9001 87.8 32.6001 87.8L98.8001 21.6C98.4001 21.2 98.1001 20.8 97.7001 20.5Z" fill="#3278B1"/>
<path d="M6.9 80.8999C15 85.5999 23.8 87.7999 32.5 87.7999C32.5 70.0999 41.7 52.8999 58.1 43.3999L0.5 76.5999C2.6 78.0999 4.7 79.5999 6.9 80.8999Z" fill="#3278B2"/>
<path d="M6.9 43.3999C2.5 50.8999 0 59.6999 0 68.9999C0 71.5999 0.2 74.0999 0.6 76.5999L58.2 43.3999C41.7 52.7999 22.2 52.1999 6.9 43.3999Z" fill="#45A4EC"/>
<path d="M98.7999 21.5C98.4999 21.2 98.0999 20.8 97.6999 20.5C97.1999 20.1 96.6999 19.7 96.0999 19.4C94.1999 18.3 91.9999 17.7 89.6999 17.7H51.2999C32.2999 17.7 15.7999 28 6.8999 43.3C22.1999 52.1 41.6999 52.8 58.0999 43.3C41.6999 52.8 32.4999 70 32.4999 87.7C50.1999 87.7 67.3999 78.5 76.8999 62.1L99.6999 22.6C99.3999 22.2 99.0999 21.8 98.7999 21.5Z" fill="#19BB7D"/>
<path d="M58.1999 43.4L97.6999 20.6C97.1999 20.2 96.6999 19.8 96.0999 19.5L6.8999 43.4C22.1999 52.2 41.6999 52.8 58.1999 43.4Z" fill="#08C7FB"/>
<path d="M89.6999 17.7H51.2999C32.2999 17.7 15.7999 28 6.8999 43.3L96.0999 19.4C94.1999 18.4 92.0999 17.7 89.6999 17.7Z" fill="#59F2F6"/>
<path d="M76.9 62.1L99.7 22.6C99.4 22.2 99.1 21.9 98.7 21.5L32.5 87.7C32.5 96.4 34.7 105.2 39.4 113.3C40.7 115.5 42.1 117.6 43.7 119.6C46.2 120 48.7 120.2 51.3 120.2C60.6 120.2 69.4 117.7 76.9 113.3C68.1 98 67.4 78.5 76.9 62.1Z" fill="#DA3757"/>
<path d="M32.5 87.7001C32.5 96.4001 34.7 105.2 39.4 113.3C40.7 115.5 42.1 117.6 43.7 119.6L76.9 62.1001C67.4 78.5001 50.2 87.7001 32.5 87.7001Z" fill="#D33C4E"/>
<path d="M76.8999 62.1001L43.7 119.7C46.2 120.1 48.6999 120.3 51.2999 120.3C60.5999 120.3 69.3999 117.8 76.8999 113.4C68.0999 98.0001 67.3999 78.5001 76.8999 62.1001Z" fill="#EE5A24"/>
<path d="M100.8 24.2C100.5 23.6 100.1 23.1 99.7001 22.6C99.4001 22.2 99.1001 21.9 98.7001 21.5C98.4001 21.2 98.0001 20.8 97.6001 20.5L58.2001 43.4C41.8001 52.9 32.6001 70.1 32.6001 87.8C50.3001 87.8 67.5001 78.6 77.0001 62.2C67.5001 78.6 68.2001 98.1 77.0001 113.4C92.3001 104.5 102.6 88 102.6 69V30.6C102.5 28.2 101.9 26 100.8 24.2Z" fill="#8BDF55"/>
<path d="M97.7001 20.5L58.2001 43.4C41.8001 52.9 32.6001 70.1 32.6001 87.8L98.8001 21.6C98.4001 21.2 98.1001 20.8 97.7001 20.5Z" fill="#25C16F"/>
<path d="M32.5 87.7C50.2 87.7 67.4 78.5 76.9 62.1L99.7 22.6C99.4 22.2 99.1 21.9 98.7 21.5L32.5 87.7Z" fill="#8BDF55"/>
<path d="M99.6999 22.6001L76.8999 62.1001C67.3999 78.5001 68.0999 98.0001 76.8999 113.3L100.8 24.1001C100.5 23.6001 100.1 23.1001 99.6999 22.6001Z" fill="#FFBB00"/>
<path d="M76.8999 113.4C92.1999 104.5 102.5 88 102.5 69V30.6C102.5 28.3 101.9 26.1 100.8 24.2L76.8999 113.4Z" fill="#FFA800"/>
</svg>
