<svg width="451" height="451" viewBox="0 0 451 451" fill="none" xmlns="http://www.w3.org/2000/svg">
<g filter="url(#filter0_dddii_287_1004)">
<g clip-path="url(#clip0_287_1004)">
<rect x="12" y="6" width="426.667" height="426.667" rx="112" fill="white"/>
<g filter="url(#filter1_f_287_1004)">
<circle cx="28.833" cy="342.833" r="123.5" fill="#55FFEB"/>
</g>
<g filter="url(#filter2_f_287_1004)">
<circle cx="473.833" cy="265.833" r="123.5" fill="#FF557E"/>
</g>
<g style="mix-blend-mode:hard-light" filter="url(#filter3_f_287_1004)">
<circle cx="198.333" cy="97.3335" r="186" fill="#73FF71"/>
</g>
<g style="mix-blend-mode:overlay" filter="url(#filter4_f_287_1004)">
<circle cx="384.333" cy="203.333" r="186" fill="#71FFF6"/>
</g>
<g style="mix-blend-mode:overlay" filter="url(#filter5_f_287_1004)">
<circle cx="139.833" cy="307.833" r="158.5" fill="#F4FF71"/>
</g>
<path fill-rule="evenodd" clip-rule="evenodd" d="M225.338 68.221C245.588 68.221 265.281 72.194 283.801 80.078C301.705 87.714 317.756 98.578 331.523 112.421C345.289 126.264 356.154 142.467 363.687 160.407C371.527 179.031 375.478 198.772 375.478 219.195C375.478 235.088 373.07 250.606 368.255 265.568L337.758 249.613C340.412 239.743 341.709 229.501 341.709 219.195C341.709 203.366 338.622 188.032 332.572 173.63C326.707 159.725 318.312 147.185 307.631 136.445C296.951 125.706 284.479 117.263 270.652 111.366C256.329 105.282 241.081 102.178 225.338 102.178C209.595 102.178 194.347 105.282 180.024 111.366C166.196 117.263 153.725 125.706 143.045 136.445C132.365 147.185 123.969 159.725 118.104 173.63C112.054 188.032 108.967 203.366 108.967 219.195C108.967 229.563 110.325 239.805 112.918 249.675L82.421 265.63C77.606 250.67 75.198 235.088 75.198 219.195C75.198 198.834 79.149 179.031 86.989 160.407C94.583 142.405 105.387 126.264 119.153 112.421C132.92 98.578 149.033 87.652 166.875 80.078C185.394 72.194 205.088 68.221 225.338 68.221ZM225.338 64C140.082 64 71 133.466 71 219.195C71 237.57 74.21 255.2 80.013 271.589L80.032 271.579C101.407 331.519 158.375 374.39 225.338 374.39C292.301 374.39 349.27 331.519 370.644 271.579L370.663 271.589C376.528 255.2 379.676 237.57 379.676 219.195C379.676 133.466 310.596 64 225.338 64ZM117.857 251.787L117.841 251.794C114.703 241.319 113.103 230.411 113.103 219.257C113.103 203.986 116.067 189.211 121.932 175.368C127.611 161.959 135.698 149.854 146.008 139.487C156.318 129.12 168.356 120.988 181.692 115.277C195.519 109.379 210.213 106.399 225.338 106.399C240.463 106.399 255.219 109.379 268.984 115.277C282.319 120.988 294.358 129.12 304.667 139.487C314.976 149.854 323.065 161.959 328.744 175.368C334.61 189.273 337.572 204.047 337.572 219.257C337.572 230.411 335.973 241.319 332.835 251.794L332.82 251.787C331.647 255.636 330.35 259.423 328.745 263.084C323.065 276.493 314.978 288.599 304.667 298.967C294.358 309.333 282.319 317.464 268.986 323.176C255.157 329.073 240.463 332.054 225.338 332.054C210.213 332.054 195.459 329.073 181.692 323.176C168.356 317.464 156.318 309.333 146.008 298.967C135.699 288.599 127.611 276.493 121.932 263.084C120.388 259.361 119.03 255.636 117.857 251.787ZM146.75 201.316H151.195L155.578 190.764H176.259L180.644 201.316H185.15L167.987 161.09H164.036L146.75 201.316ZM165.888 165.622L174.717 186.977H157.06L165.888 165.622ZM194.16 201.316H190.147V161.09H194.221V201.316H194.16ZM234.971 197.716C235.957 196.785 236.761 195.792 237.439 194.799L234.353 192.936C232.994 194.985 231.265 196.537 229.166 197.469C227.128 198.398 224.908 198.896 222.622 198.896C220.091 198.896 217.745 198.398 215.709 197.469C213.609 196.475 211.881 195.234 210.462 193.618C208.98 192.005 207.93 190.143 207.126 188.032C206.326 185.922 205.954 183.688 205.954 181.328C205.954 178.969 206.326 176.733 207.066 174.623C207.806 172.513 208.916 170.65 210.337 169.036C211.819 167.423 213.549 166.118 215.585 165.187C217.623 164.255 219.967 163.76 222.561 163.76C223.858 163.76 225.03 163.884 226.142 164.194C227.254 164.505 228.302 164.877 229.228 165.374C230.154 165.808 231.018 166.43 231.698 167.049C232.377 167.671 232.932 168.354 233.365 168.974L236.761 166.491C236.081 165.498 235.217 164.629 234.229 163.822C233.18 163.076 232.068 162.395 230.834 161.835C229.536 161.277 228.24 160.842 226.82 160.532C225.402 160.221 223.982 160.097 222.5 160.097C219.535 160.097 216.759 160.656 214.227 161.711C211.696 162.767 209.472 164.255 207.62 166.118C205.77 168.042 204.288 170.278 203.238 172.823C202.19 175.368 201.634 178.224 201.634 181.266C201.634 184.307 202.128 187.163 203.176 189.707C204.226 192.315 205.646 194.549 207.498 196.413C209.35 198.276 211.511 199.765 214.103 200.82C216.635 201.875 219.413 202.435 222.438 202.435C224.228 202.435 225.894 202.187 227.438 201.813C228.982 201.379 230.4 200.82 231.636 200.137C232.871 199.455 233.981 198.648 234.971 197.716ZM242.93 161.09H254.227C256.263 161.09 258.117 161.338 259.784 161.773C261.45 162.207 262.87 162.89 264.044 163.76C265.216 164.629 266.142 165.746 266.76 167.111C267.376 168.478 267.746 170.029 267.746 171.829C267.746 173.63 267.438 175.244 266.76 176.548C266.08 177.913 265.154 179.031 263.98 179.899C262.808 180.768 261.388 181.452 259.66 181.949C257.992 182.383 256.141 182.631 254.103 182.631H247.003V201.316H242.93V161.09ZM247.003 179.155H253.919C257.128 179.155 259.536 178.534 261.204 177.293C262.87 176.05 263.672 174.251 263.672 171.829C263.672 169.347 262.808 167.485 261.08 166.368C259.351 165.187 256.943 164.629 253.855 164.629H246.942V179.155H247.003ZM265.526 201.316H269.97L274.355 190.764H295.035L299.419 201.316H303.925L286.762 161.09H282.812L265.526 201.316ZM293.492 186.977H275.837L284.664 165.622L293.492 186.977ZM167.492 247.502C166.69 246.447 165.578 245.58 164.22 244.957C162.862 244.337 161.566 244.025 160.331 244.025C159.713 244.025 159.035 244.089 158.355 244.213C157.676 244.337 157.121 244.523 156.565 244.895C156.009 245.206 155.577 245.64 155.207 246.136C154.836 246.633 154.651 247.317 154.651 248.124C154.651 248.806 154.775 249.365 155.083 249.8C155.392 250.234 155.762 250.67 156.318 250.98L156.441 251.048L156.497 251.081C157.007 251.367 157.576 251.689 158.294 251.911C158.818 252.131 159.404 252.319 160.031 252.52C160.289 252.605 160.554 252.689 160.825 252.78C162.183 253.214 163.603 253.711 165.085 254.269C166.566 254.827 167.863 255.574 169.097 256.443C170.331 257.373 171.319 258.491 172.123 259.795C172.925 261.16 173.295 262.836 173.295 264.823C173.295 267.119 172.863 269.105 171.999 270.844C171.135 272.52 170.023 273.947 168.603 275.004C167.184 276.12 165.517 276.929 163.665 277.424C161.813 277.984 159.899 278.232 157.985 278.232C155.145 278.232 152.367 277.736 149.651 276.741C146.996 275.748 144.773 274.321 142.983 272.458L149.342 266.003C150.33 267.244 151.626 268.238 153.231 269.045C154.836 269.851 156.442 270.286 157.985 270.286C158.726 270.286 159.405 270.224 160.084 270.036C160.763 269.914 161.38 269.665 161.874 269.293C162.368 268.983 162.8 268.486 163.109 267.926C163.418 267.368 163.541 266.685 163.541 265.878C163.541 265.134 163.356 264.449 162.986 263.953C162.615 263.396 162.059 262.96 161.38 262.526C160.701 262.092 159.837 261.719 158.788 261.345C158.11 261.106 157.38 260.865 156.599 260.607C156.171 260.468 155.728 260.321 155.269 260.166C153.972 259.733 152.737 259.235 151.503 258.677C150.268 258.118 149.157 257.373 148.231 256.503C147.243 255.636 146.502 254.517 145.885 253.276C145.329 252.035 145.021 250.482 145.021 248.621C145.021 246.385 145.453 244.461 146.379 242.91C147.305 241.295 148.478 239.991 149.959 238.999C151.441 238.004 153.108 237.199 154.96 236.763C156.812 236.266 158.664 236.08 160.578 236.08C162.862 236.08 165.146 236.515 167.492 237.323C169.839 238.13 171.937 239.371 173.665 241.046L167.492 247.502ZM218.485 265.754C219.596 263.084 220.152 260.166 220.152 257.001C220.152 253.773 219.596 250.856 218.485 248.248C217.375 245.642 215.829 243.406 213.917 241.605C212.003 239.743 209.657 238.378 207.002 237.385C204.348 236.391 201.446 235.894 198.298 235.894C195.149 235.894 192.247 236.391 189.593 237.385C186.939 238.378 184.592 239.805 182.678 241.605C180.704 243.468 179.222 245.642 178.11 248.248C177 250.856 176.444 253.773 176.444 257.001C176.444 260.228 177 263.146 178.11 265.754C179.222 268.362 180.764 270.658 182.678 272.52C184.654 274.383 186.939 275.873 189.593 276.867C192.309 277.92 195.149 278.418 198.298 278.418C201.446 278.418 204.348 277.858 207.002 276.867C209.657 275.873 212.003 274.383 213.917 272.52C215.893 270.658 217.375 268.362 218.485 265.754ZM208.916 252.097C209.471 253.649 209.781 255.262 209.781 257.001C209.781 258.801 209.471 260.476 208.855 262.029C208.299 263.581 207.496 264.885 206.508 266.003C205.46 267.119 204.286 267.988 202.866 268.609C201.446 269.229 199.902 269.541 198.236 269.541C196.569 269.541 195.025 269.229 193.605 268.609C192.247 267.988 191.013 267.119 190.025 266.003C189.037 264.885 188.235 263.581 187.679 262.029C187.123 260.476 186.815 258.801 186.815 257.001C186.815 255.262 187.062 253.586 187.617 252.097C188.173 250.544 188.975 249.241 189.963 248.186C191.013 247.131 192.185 246.261 193.605 245.64C195.025 245.02 196.507 244.711 198.236 244.711C199.964 244.711 201.508 245.02 202.928 245.64C204.348 246.261 205.582 247.131 206.57 248.186C207.558 249.303 208.361 250.606 208.916 252.097ZM254.167 276.555C251.573 277.736 248.548 278.356 245.154 278.356C242.066 278.356 239.226 277.858 236.571 276.805C233.979 275.81 231.695 274.321 229.781 272.458C227.867 270.596 226.323 268.362 225.274 265.754C224.162 263.146 223.606 260.292 223.606 257.125C223.606 253.897 224.162 250.98 225.274 248.372C226.386 245.764 227.929 243.53 229.903 241.669C231.879 239.805 234.165 238.44 236.819 237.446C239.474 236.453 242.312 235.958 245.338 235.958C248.178 235.958 250.957 236.453 253.673 237.446C256.389 238.44 258.611 239.93 260.34 241.853L253.733 248.434C252.807 247.193 251.635 246.261 250.153 245.64C248.671 245.02 247.19 244.711 245.646 244.711C243.98 244.711 242.374 245.02 240.956 245.64C239.536 246.261 238.301 247.131 237.312 248.248C236.325 249.365 235.521 250.67 234.965 252.159C234.411 253.649 234.103 255.324 234.103 257.063C234.103 258.863 234.411 260.54 234.965 262.092C235.521 263.581 236.325 264.885 237.312 266.003C238.301 267.057 239.536 267.926 240.892 268.547C242.312 269.167 243.794 269.479 245.462 269.479C247.374 269.479 249.042 269.107 250.461 268.362C251.881 267.616 253.055 266.623 253.919 265.382L260.649 271.775C258.919 273.763 256.759 275.376 254.167 276.555ZM278.677 269.293V277.239V277.424H307.63V269.107H291.27L300.531 260.788L300.744 260.588C301.59 259.795 302.388 259.046 303.185 258.242C304.049 257.435 304.791 256.505 305.469 255.512C306.087 254.517 306.643 253.462 307.013 252.283C307.384 251.104 307.569 249.8 307.569 248.372C307.569 246.261 307.137 244.461 306.334 242.91C305.531 241.357 304.421 240.053 303.061 239.061C301.703 238.004 300.161 237.261 298.433 236.763C296.704 236.267 294.914 236.02 293.062 236.02C291.086 236.02 289.234 236.267 287.506 236.889C285.715 237.446 284.171 238.314 282.813 239.433C281.455 240.55 280.343 241.915 279.479 243.53C278.615 245.144 278.059 246.945 277.811 248.993L286.888 250.234C287.072 248.434 287.69 246.945 288.678 245.826C289.666 244.71 290.962 244.151 292.568 244.151C294.11 244.151 295.284 244.585 296.209 245.454C297.135 246.323 297.568 247.502 297.568 248.931C297.568 250.172 297.259 251.227 296.642 252.221C296.086 253.214 295.284 254.207 294.296 255.138L278.677 269.293ZM303.927 218.264H146.75V220.003H303.927V218.264ZM101.747 215.906L101.871 214.353L98.413 212.615L98.969 205.352L102.735 204.109L102.858 202.497L88.412 207.401L88.289 208.766L101.747 215.906ZM97.549 205.724L97.055 211.931L89.894 208.208L97.549 205.724ZM103.414 199.393L103.167 200.82L89.4 198.71L89.647 197.283L103.414 199.393ZM105.136 185.109C104.89 184.739 104.644 184.368 104.336 184.059L103.41 184.867C103.966 185.486 104.336 186.17 104.522 186.977C104.645 187.784 104.645 188.528 104.46 189.335C104.213 190.205 103.904 190.95 103.41 191.571C102.916 192.193 102.361 192.688 101.682 193.062C101.003 193.434 100.324 193.618 99.521 193.744C98.78 193.868 97.978 193.806 97.175 193.618C96.373 193.434 95.694 193.122 95.014 192.688C94.397 192.253 93.841 191.757 93.409 191.136C92.977 190.516 92.73 189.833 92.545 189.025C92.36 188.282 92.421 187.413 92.607 186.543C92.73 186.108 92.854 185.736 93.039 185.362C93.162 185.208 93.271 185.053 93.379 184.898V184.896C93.487 184.741 93.595 184.586 93.718 184.431C93.965 184.183 94.273 183.935 94.52 183.75C94.594 183.705 94.665 183.66 94.732 183.617C94.947 183.481 95.135 183.362 95.323 183.314L94.767 181.949C94.397 182.135 94.026 182.321 93.656 182.631C93.348 182.88 93.039 183.252 92.731 183.624C92.485 183.996 92.238 184.428 91.992 184.862L91.989 184.867C91.804 185.3 91.619 185.796 91.495 186.294C91.249 187.351 91.187 188.342 91.372 189.273C91.557 190.205 91.866 191.074 92.36 191.881C92.854 192.688 93.471 193.372 94.273 193.93C95.014 194.551 96.002 194.923 96.99 195.172C97.978 195.418 99.027 195.418 99.953 195.296C100.879 195.172 101.743 194.861 102.546 194.365C103.349 193.868 104.028 193.246 104.583 192.441C105.139 191.633 105.509 190.764 105.756 189.707C105.88 189.087 105.941 188.528 105.941 187.97C105.88 187.413 105.818 186.915 105.694 186.418C105.571 185.984 105.386 185.486 105.139 185.115L105.136 185.109ZM93.907 178.41L95.203 174.623C95.45 173.94 95.697 173.382 96.068 172.823C96.376 172.327 96.747 171.891 97.179 171.643C97.611 171.334 98.105 171.148 98.599 171.086C99.092 171.022 99.648 171.086 100.266 171.272C100.883 171.458 101.377 171.767 101.747 172.141C102.118 172.513 102.365 172.946 102.55 173.444C102.735 173.94 102.797 174.499 102.735 175.121C102.673 175.74 102.55 176.362 102.303 177.045L101.5 179.403L107.674 181.514L107.242 182.88L93.907 178.41ZM100.327 179.093L101.13 176.795C101.5 175.74 101.562 174.871 101.315 174.127C101.068 173.444 100.574 172.946 99.772 172.699C98.969 172.389 98.228 172.513 97.673 172.946C97.117 173.382 96.623 174.127 96.314 175.183L95.512 177.479L100.327 179.093ZM109.585 175.43L110.202 174.003L107.486 171.024L110.388 164.381L114.401 164.443L115.018 163.014L99.769 162.89L99.214 164.195L109.585 175.43ZM108.968 164.443L106.498 170.093L100.942 164.257L108.968 164.443ZM111.809 145.322C111.315 145.384 110.821 145.509 110.327 145.757C109.833 146.005 109.463 146.44 109.092 146.998C108.907 147.309 108.784 147.619 108.66 147.992C108.537 148.364 108.537 148.736 108.537 149.047C108.598 149.42 108.66 149.73 108.845 150.102C109.031 150.413 109.339 150.723 109.71 150.971C110.08 151.22 110.451 151.344 110.759 151.344C111.068 151.344 111.438 151.282 111.747 151.158C112.056 151.033 112.364 150.847 112.673 150.599L113.599 149.854L113.758 149.72C114.09 149.441 114.462 149.128 114.834 148.861C115.266 148.55 115.698 148.302 116.13 148.116C116.562 147.93 117.056 147.868 117.612 147.868C118.106 147.868 118.661 148.116 119.279 148.488C119.896 148.861 120.328 149.295 120.637 149.792C120.945 150.289 121.131 150.785 121.131 151.344C121.192 151.903 121.131 152.399 121.007 152.958C120.884 153.517 120.637 154.013 120.328 154.51C120.081 154.882 119.834 155.193 119.526 155.503L119.524 155.504C119.216 155.814 118.908 156.124 118.538 156.31C118.167 156.558 117.797 156.745 117.427 156.869C117.056 156.993 116.624 157.117 116.192 157.117L116.068 155.565C116.624 155.565 117.241 155.441 117.797 155.131C118.353 154.82 118.846 154.386 119.217 153.765C119.402 153.455 119.526 153.144 119.649 152.772C119.773 152.399 119.773 152.027 119.711 151.654C119.649 151.282 119.587 150.909 119.34 150.599C119.155 150.289 118.846 149.978 118.476 149.73C118.044 149.481 117.674 149.357 117.303 149.357C116.933 149.357 116.562 149.42 116.192 149.606C115.822 149.792 115.513 149.978 115.142 150.226C114.834 150.475 114.464 150.785 114.094 151.095L114.093 151.096L112.982 152.027C112.611 152.337 112.179 152.523 111.747 152.648C111.315 152.772 110.821 152.834 110.389 152.834C109.895 152.772 109.401 152.586 108.845 152.275C108.29 151.903 107.858 151.468 107.549 151.033C107.302 150.537 107.117 150.04 107.055 149.481C106.993 148.923 107.055 148.426 107.24 147.868C107.364 147.371 107.611 146.874 107.858 146.44C108.352 145.633 108.907 145.012 109.586 144.64C110.203 144.267 110.821 144.019 111.377 143.957L111.809 145.322ZM125.203 138.804C125.08 138.742 125.018 138.68 124.956 138.618C124.401 138.245 123.907 137.997 123.289 137.873C122.734 137.687 122.178 137.625 121.622 137.687C121.067 137.687 120.573 137.873 120.017 138.183C119.524 138.432 119.03 138.928 118.598 139.487C118.227 139.984 117.918 140.542 117.795 141.163C117.671 141.784 117.61 142.343 117.733 142.963C117.857 143.584 118.104 144.143 118.412 144.702C118.783 145.198 119.215 145.695 119.77 146.129C120.326 146.564 120.943 146.812 121.561 146.998C122.178 147.185 122.795 147.185 123.413 147.123C124.03 147.06 124.586 146.812 125.141 146.502C125.697 146.191 126.129 145.757 126.561 145.198C127.055 144.577 127.364 143.895 127.487 143.212C127.611 142.529 127.611 141.722 127.364 140.853L126.129 141.163C126.314 141.66 126.376 142.156 126.314 142.777C126.253 143.398 126.067 143.957 125.635 144.515C125.388 144.95 125.018 145.198 124.648 145.446C124.215 145.695 123.845 145.819 123.413 145.881C122.981 145.943 122.549 145.943 122.116 145.819C121.684 145.695 121.252 145.508 120.882 145.26L125.45 139.052C125.407 138.966 125.334 138.909 125.273 138.862C125.246 138.842 125.222 138.823 125.203 138.804ZM121.561 138.866C122.302 138.804 123.042 138.99 123.783 139.487L120.017 144.639C119.709 144.391 119.462 144.081 119.276 143.708C119.091 143.398 118.968 143.025 118.906 142.591C118.844 142.156 118.844 141.784 118.968 141.349C119.091 140.915 119.276 140.542 119.524 140.17C120.141 139.363 120.82 138.928 121.561 138.866ZM124.156 134.521L124.149 134.515C123.843 134.268 123.537 134.023 123.292 133.838L124.095 132.907C124.278 133.03 124.523 133.214 124.768 133.399L124.774 133.403C125.021 133.589 125.206 133.776 125.329 133.9C125.083 133.341 125.021 132.782 125.083 132.162C125.144 131.541 125.453 130.982 125.885 130.486C126.009 130.361 126.132 130.237 126.194 130.113C126.317 129.989 126.379 129.927 126.502 129.865L127.367 130.858C127.341 130.884 127.305 130.91 127.263 130.94C127.203 130.982 127.13 131.034 127.058 131.106L126.687 131.479C126.441 131.727 126.255 132.038 126.194 132.41C126.07 132.72 126.07 133.093 126.132 133.465C126.194 133.838 126.317 134.21 126.564 134.645C126.811 135.079 127.181 135.451 127.613 135.886L131.194 138.99L130.33 140.046L124.835 135.328C124.717 134.971 124.485 134.785 124.195 134.552L124.156 134.521ZM126.992 125.333C126.992 125.085 126.868 124.836 126.683 124.65C126.498 124.464 126.251 124.402 126.004 124.402C125.757 124.464 125.572 124.526 125.386 124.712C125.201 124.899 125.139 125.147 125.139 125.395C125.139 125.644 125.263 125.892 125.448 126.078C125.634 126.264 125.88 126.326 126.127 126.326C126.374 126.264 126.56 126.202 126.745 126.016C126.93 125.83 126.992 125.581 126.992 125.333ZM134.894 134.645L135.82 133.652L129.091 127.258L128.165 128.251L134.894 134.645ZM140.821 128.686L139.771 129.741L130.635 125.644L131.746 124.588L139.339 128.189L136.129 120.367L137.179 119.374L140.821 128.686ZM143.909 115.401C144.341 115.339 144.835 115.339 145.205 115.463L145.699 114.221C145.02 114.035 144.403 114.097 143.724 114.284C143.045 114.47 142.489 114.78 141.995 115.153C141.378 115.649 140.946 116.208 140.637 116.767C140.328 117.387 140.143 117.946 140.081 118.567C140.02 119.188 140.081 119.808 140.267 120.429C140.452 121.05 140.76 121.609 141.193 122.167C141.625 122.726 142.119 123.161 142.674 123.471C143.23 123.781 143.786 123.968 144.403 124.03C145.02 124.092 145.638 124.03 146.255 123.844C146.872 123.657 147.49 123.347 148.045 122.85C148.663 122.291 149.095 121.795 149.342 121.174C149.589 120.553 149.712 119.933 149.712 119.312L148.477 119.374C148.477 119.808 148.416 120.243 148.23 120.678C148.107 121.112 147.737 121.547 147.305 121.919C146.872 122.23 146.44 122.478 146.008 122.602C145.576 122.726 145.082 122.726 144.65 122.664C144.218 122.54 143.786 122.416 143.353 122.167C142.921 121.919 142.551 121.609 142.242 121.174C141.933 120.74 141.686 120.305 141.501 119.87C141.378 119.436 141.316 118.939 141.316 118.505C141.378 118.07 141.501 117.636 141.686 117.201C141.872 116.767 142.18 116.394 142.613 116.022C142.983 115.711 143.415 115.525 143.909 115.401ZM155.947 110.497C155.977 110.528 156.008 110.574 156.039 110.621C156.07 110.667 156.101 110.714 156.132 110.745C156.194 110.807 156.255 110.931 156.317 111.055L150.02 115.401C150.267 115.773 150.637 116.084 151.008 116.332C151.378 116.58 151.749 116.705 152.181 116.829C152.613 116.891 153.045 116.891 153.477 116.829C153.909 116.767 154.342 116.58 154.712 116.27C155.268 115.897 155.7 115.401 155.947 114.842C156.194 114.284 156.255 113.787 156.255 113.228L157.552 113.29C157.49 114.159 157.305 114.966 156.934 115.587C156.564 116.208 156.07 116.767 155.453 117.201C154.897 117.574 154.28 117.884 153.662 118.008C153.045 118.132 152.428 118.132 151.81 118.008C151.193 117.884 150.637 117.636 150.082 117.325C149.526 116.953 149.094 116.518 148.662 115.96C148.292 115.401 147.983 114.78 147.859 114.159C147.736 113.539 147.674 112.918 147.798 112.297C147.921 111.676 148.106 111.117 148.415 110.621C148.724 110.124 149.156 109.628 149.711 109.255C150.329 108.821 150.884 108.572 151.502 108.448C152.119 108.324 152.675 108.324 153.23 108.448C153.786 108.572 154.28 108.821 154.774 109.193C155.206 109.504 155.638 109.938 155.947 110.497ZM154.589 110.869C154.033 110.186 153.415 109.752 152.675 109.566C151.934 109.379 151.131 109.566 150.329 110.124C149.958 110.373 149.65 110.683 149.464 111.055C149.218 111.428 149.094 111.8 149.032 112.173C148.971 112.545 148.971 112.98 149.032 113.352C149.094 113.725 149.218 114.097 149.464 114.47L154.589 110.869ZM175.211 101.061C175.149 100.067 174.901 99.136 174.407 98.143C173.975 97.212 173.359 96.405 172.617 95.722C171.877 95.039 171.075 94.604 170.211 94.294C169.285 93.984 168.419 93.859 167.432 93.922C166.444 93.984 165.518 94.294 164.592 94.729C163.666 95.225 162.863 95.784 162.246 96.529C161.567 97.274 161.135 98.081 160.826 98.95C160.517 99.819 160.394 100.75 160.456 101.743C160.517 102.737 160.764 103.668 161.258 104.661C161.752 105.654 162.308 106.461 163.049 107.082C163.789 107.765 164.592 108.199 165.456 108.51C166.382 108.82 167.247 108.944 168.234 108.882C169.223 108.82 170.149 108.51 171.075 108.075C172.001 107.579 172.803 107.02 173.421 106.275C174.099 105.53 174.531 104.723 174.839 103.854C175.149 102.985 175.271 102.054 175.211 101.061ZM171.691 96.901C172.247 97.46 172.679 98.081 173.049 98.826C173.421 99.571 173.667 100.316 173.667 101.123C173.729 101.868 173.667 102.613 173.481 103.358C173.297 104.04 172.927 104.723 172.433 105.344C171.939 105.903 171.259 106.461 170.457 106.834C169.655 107.206 168.852 107.455 168.049 107.455C167.247 107.517 166.506 107.331 165.827 107.082C165.148 106.772 164.53 106.399 163.975 105.841C163.419 105.282 162.987 104.661 162.616 103.916C162.246 103.171 161.999 102.426 161.937 101.619C161.876 100.874 161.937 100.129 162.122 99.385C162.308 98.702 162.678 98.019 163.172 97.398C163.666 96.839 164.345 96.28 165.148 95.908C165.95 95.536 166.753 95.287 167.555 95.287C168.358 95.225 169.099 95.349 169.777 95.66C170.519 95.908 171.137 96.343 171.691 96.901ZM176.814 96.094C176.74 95.872 176.643 95.672 176.552 95.48C176.49 95.351 176.432 95.226 176.382 95.101L177.554 94.666L177.924 95.411C177.946 95.466 177.965 95.517 177.984 95.564C178.072 95.787 178.132 95.941 178.234 96.094H178.296C178.356 95.473 178.542 94.915 178.912 94.418C179.282 93.921 179.776 93.549 180.394 93.3C180.444 93.284 180.489 93.267 180.53 93.252C180.645 93.21 180.735 93.176 180.826 93.176C180.95 93.114 181.072 93.114 181.258 93.114L181.566 94.356C181.504 94.356 181.382 94.356 181.196 94.418L180.64 94.604C180.332 94.728 180.024 94.915 179.776 95.163C179.53 95.411 179.344 95.722 179.22 96.032C179.098 96.404 179.036 96.777 179.036 97.274C179.036 97.77 179.16 98.267 179.406 98.826L181.072 103.295L179.838 103.792L177.184 96.963C177.122 96.777 176.998 96.467 176.814 96.094ZM188.607 103.854C187.927 103.73 187.31 103.482 186.816 103.109L186.26 104.413C186.939 104.785 187.68 105.034 188.545 105.158C189.347 105.22 190.211 105.158 191.013 104.909C192.003 104.599 192.743 104.227 193.299 103.73C193.793 103.296 194.163 102.737 194.409 102.178C194.657 101.619 194.719 100.999 194.719 100.44C194.719 99.824 194.597 99.33 194.475 98.838L194.471 98.826L191.877 90.011L190.581 90.383L191.013 91.935H190.953C190.397 91.501 189.779 91.19 189.101 91.066C188.359 90.942 187.68 91.004 187.062 91.19C186.384 91.377 185.766 91.687 185.272 92.121C184.778 92.556 184.346 92.99 184.1 93.549C183.852 94.108 183.668 94.667 183.606 95.287C183.544 95.908 183.606 96.529 183.79 97.15C183.976 97.833 184.284 98.391 184.654 98.888C185.026 99.385 185.52 99.757 186.012 100.067C186.568 100.316 187.124 100.502 187.742 100.564C188.359 100.626 189.039 100.502 189.717 100.316C190.397 100.067 190.953 99.757 191.507 99.26C192.003 98.764 192.373 98.205 192.557 97.522H192.619L193.175 99.198C193.299 99.695 193.359 100.192 193.359 100.626C193.359 101.123 193.299 101.557 193.113 101.93C192.927 102.302 192.619 102.675 192.247 102.985C191.817 103.296 191.323 103.544 190.705 103.73C190.027 103.978 189.285 103.978 188.607 103.854ZM185.766 97.895C185.52 97.522 185.272 97.15 185.148 96.653C185.026 96.218 184.964 95.722 184.964 95.225C184.964 94.729 185.086 94.294 185.272 93.922C185.458 93.549 185.704 93.177 186.074 92.866C186.446 92.556 186.878 92.37 187.433 92.184C187.927 92.059 188.359 91.997 188.853 92.059C189.347 92.121 189.779 92.246 190.149 92.494C190.581 92.68 190.891 92.99 191.199 93.363C191.507 93.735 191.755 94.108 191.877 94.605C192.063 95.101 192.125 95.598 192.063 96.094C192.063 96.539 191.915 96.884 191.751 97.264C191.732 97.308 191.714 97.353 191.693 97.398C191.507 97.833 191.199 98.143 190.829 98.453C190.459 98.764 190.027 99.012 189.533 99.136C189.039 99.26 188.545 99.323 188.051 99.26C187.556 99.198 187.124 99.074 186.754 98.826C186.384 98.578 186.012 98.267 185.766 97.895ZM201.692 91.19C201.506 90.383 201.198 89.886 200.704 89.576C200.21 89.266 199.594 89.204 198.79 89.39C198.234 89.514 197.74 89.7 197.308 90.011C196.876 90.321 196.568 90.631 196.258 91.004L195.332 90.259C195.642 89.824 196.074 89.39 196.63 89.017C197.184 88.645 197.864 88.396 198.666 88.21C199.16 88.086 199.654 88.086 200.086 88.148C200.52 88.21 200.95 88.334 201.32 88.521C201.692 88.707 202 89.017 202.31 89.39C202.556 89.762 202.74 90.259 202.866 90.818L203.666 94.79C203.697 94.977 203.744 95.147 203.79 95.318C203.837 95.489 203.883 95.66 203.914 95.846C203.957 95.976 203.993 96.1 204.026 96.215C204.088 96.428 204.143 96.616 204.222 96.777L203.05 97.025C203.026 96.955 202.995 96.876 202.961 96.792C202.904 96.652 202.842 96.497 202.802 96.343L202.618 95.598H202.556C202.246 96.28 201.876 96.839 201.444 97.212C200.95 97.584 200.394 97.832 199.654 98.019C199.284 98.081 198.914 98.143 198.544 98.081C198.174 98.081 197.805 97.957 197.435 97.834L197.432 97.832C197.062 97.646 196.754 97.46 196.506 97.15C196.258 96.839 196.074 96.405 195.95 95.908C195.827 95.225 195.888 94.604 196.136 94.108C196.383 93.611 196.814 93.239 197.37 92.928C197.926 92.618 198.604 92.307 199.346 92.121C199.544 92.071 199.745 92.017 199.952 91.962C200.515 91.811 201.103 91.654 201.692 91.562V91.19ZM201.568 92.618C201.012 92.742 200.456 92.866 199.964 92.99C199.408 93.177 198.914 93.363 198.544 93.549C198.112 93.797 197.804 94.046 197.556 94.356C197.308 94.666 197.248 95.039 197.308 95.474C197.37 95.784 197.494 96.032 197.678 96.28C197.864 96.467 198.048 96.591 198.296 96.715C198.544 96.839 198.79 96.839 199.038 96.839C199.284 96.839 199.53 96.839 199.84 96.777C200.334 96.653 200.704 96.529 201.012 96.28C201.32 96.032 201.63 95.784 201.814 95.411C202 95.101 202.124 94.729 202.184 94.356C202.246 93.984 202.246 93.549 202.124 93.177L202 92.494L201.568 92.618ZM207.016 87.019L207.004 86.969H205.708C205.77 87.279 205.83 87.652 205.892 88.024C205.908 88.136 205.925 88.24 205.939 88.337C205.982 88.615 206.016 88.833 206.016 89.017L206.88 96.219L208.238 96.032L207.682 91.314C207.62 90.694 207.62 90.197 207.744 89.7C207.868 89.266 207.99 88.831 208.238 88.521C208.424 88.211 208.732 87.962 209.04 87.776C209.35 87.59 209.658 87.527 210.028 87.466C210.522 87.466 210.955 87.466 211.263 87.59C211.634 87.714 211.881 87.9 212.127 88.148C212.313 88.459 212.499 88.769 212.623 89.142C212.745 89.514 212.807 89.949 212.869 90.445L213.487 95.536L214.843 95.349L214.165 89.7C214.043 88.521 213.671 87.652 212.993 87.031C212.375 86.41 211.449 86.162 210.276 86.286C209.658 86.41 209.04 86.596 208.486 87.031C207.93 87.466 207.56 87.962 207.374 88.521H207.312C207.278 88.416 207.262 88.292 207.245 88.148C207.231 88.036 207.216 87.912 207.19 87.776C207.131 87.487 207.073 87.251 207.016 87.019ZM218.546 82.313C218.546 82.561 218.485 82.81 218.299 82.996C218.115 83.182 217.929 83.306 217.682 83.306C217.435 83.306 217.251 83.244 217.003 83.058C216.817 82.872 216.695 82.686 216.695 82.375C216.695 82.127 216.755 81.878 216.941 81.692C217.127 81.506 217.311 81.382 217.559 81.382C217.805 81.382 217.991 81.444 218.238 81.63C218.423 81.816 218.546 82.065 218.546 82.313ZM219.041 95.225L217.682 95.287L217.189 85.976L218.546 85.914L219.041 95.225ZM222.68 93.921L228.114 86.658L228.053 85.665L221.014 85.789V86.907L226.261 86.844L220.89 94.17V95.101L228.423 94.977V93.797L222.68 93.921ZM236.699 89.514C236.761 88.707 236.575 88.086 236.205 87.652C235.835 87.217 235.218 86.969 234.415 86.907C233.859 86.845 233.365 86.907 232.872 87.093C232.377 87.279 231.946 87.466 231.636 87.776L230.956 86.845C231.39 86.472 231.882 86.224 232.5 85.976C233.118 85.789 233.859 85.665 234.662 85.727L234.664 85.728C235.156 85.79 235.65 85.852 236.019 86.038C236.453 86.224 236.823 86.472 237.131 86.721C237.439 87.031 237.687 87.404 237.809 87.838C237.995 88.272 237.995 88.769 237.995 89.328L237.687 93.363C237.687 93.549 237.671 93.735 237.656 93.922C237.64 94.108 237.625 94.294 237.625 94.48V94.481C237.625 94.853 237.625 95.163 237.687 95.474L236.515 95.412C236.515 95.287 236.499 95.163 236.484 95.039C236.468 94.915 236.453 94.791 236.453 94.667V93.86H236.389C235.897 94.48 235.403 94.853 234.847 95.101C234.291 95.35 233.673 95.412 232.872 95.35C232.5 95.35 232.13 95.225 231.76 95.101C231.39 94.977 231.082 94.791 230.772 94.542C230.464 94.294 230.216 93.984 230.092 93.611C229.908 93.239 229.846 92.804 229.908 92.308C229.97 91.563 230.156 91.066 230.586 90.632C230.956 90.259 231.452 89.949 232.13 89.825C232.748 89.638 233.428 89.576 234.229 89.576C235.033 89.576 235.835 89.576 236.699 89.638V89.514ZM236.205 90.818C235.649 90.756 235.093 90.756 234.539 90.756C233.983 90.756 233.488 90.818 232.994 90.942C232.5 91.066 232.13 91.252 231.822 91.439C231.512 91.687 231.327 91.997 231.327 92.432C231.327 92.742 231.327 93.053 231.452 93.301C231.574 93.549 231.698 93.735 231.946 93.86C232.129 93.983 232.375 94.107 232.621 94.231L232.624 94.232C232.872 94.356 233.118 94.356 233.428 94.356C233.921 94.418 234.353 94.356 234.723 94.17C235.093 94.046 235.403 93.797 235.711 93.549C235.959 93.301 236.205 92.99 236.329 92.618C236.515 92.245 236.575 91.873 236.575 91.439L236.637 90.756L236.205 90.818ZM243.18 88.086L245.772 88.459L245.896 87.403L243.302 87.031L243.674 84.424L242.315 84.237L241.945 86.845L240.03 86.596L239.907 87.714L241.82 87.962L241.08 93.735C241.019 94.232 241.019 94.667 241.142 94.977C241.265 95.287 241.45 95.598 241.636 95.784C241.883 96.032 242.13 96.156 242.376 96.281L243.118 96.467C243.426 96.529 243.736 96.529 243.982 96.529C244.228 96.529 244.476 96.467 244.722 96.405L244.846 95.225C244.662 95.287 244.414 95.349 244.228 95.349H243.612C243.426 95.349 243.242 95.287 243.056 95.225C242.871 95.163 242.746 95.039 242.624 94.915C242.562 94.791 242.501 94.605 242.438 94.356C242.376 94.108 242.376 93.86 242.438 93.487L243.18 88.086ZM247.807 97.088L246.509 96.839L248.115 87.652L249.411 87.9L247.807 97.088ZM250.275 84.486C250.213 84.734 250.089 84.982 249.843 85.106C249.597 85.231 249.411 85.293 249.163 85.231C248.917 85.169 248.731 85.044 248.547 84.858C248.361 84.672 248.299 84.424 248.361 84.113C248.423 83.865 248.547 83.617 248.793 83.493C249.041 83.368 249.227 83.306 249.471 83.368C249.719 83.43 249.905 83.555 250.089 83.741C250.275 83.927 250.337 84.175 250.275 84.486ZM259.911 97.088C260.281 96.591 260.527 95.97 260.713 95.287C260.897 94.605 260.959 93.922 260.837 93.301C260.773 92.68 260.527 92.121 260.219 91.563L260.214 91.556C259.846 91.062 259.475 90.568 258.923 90.197C258.367 89.825 257.749 89.576 257.071 89.39C256.331 89.204 255.651 89.204 255.033 89.266C254.354 89.39 253.798 89.576 253.242 89.887C252.687 90.197 252.254 90.631 251.884 91.128C251.514 91.625 251.268 92.245 251.082 92.928C250.896 93.611 250.834 94.294 250.958 94.915C251.02 95.536 251.268 96.094 251.576 96.653C251.946 97.15 252.316 97.646 252.872 98.019C253.428 98.391 254.045 98.64 254.725 98.826C255.465 99.012 256.083 99.074 256.761 98.95C257.441 98.826 257.997 98.64 258.551 98.329C259.107 98.019 259.539 97.584 259.911 97.088ZM259.477 93.425C259.539 93.922 259.477 94.418 259.355 94.915C259.231 95.412 259.047 95.908 258.799 96.281C258.491 96.715 258.181 97.026 257.811 97.274C257.441 97.522 257.071 97.708 256.577 97.77C256.145 97.833 255.651 97.833 255.095 97.708C254.54 97.584 254.107 97.398 253.737 97.088C253.366 96.777 253.058 96.405 252.872 96.032C252.687 95.66 252.564 95.225 252.502 94.729C252.44 94.232 252.502 93.735 252.625 93.239C252.687 92.742 252.934 92.308 253.181 91.873C253.49 91.439 253.798 91.128 254.169 90.88C254.54 90.631 254.91 90.445 255.403 90.383C255.837 90.321 256.331 90.321 256.885 90.445C257.441 90.569 257.873 90.756 258.243 91.066C258.613 91.376 258.921 91.749 259.107 92.121C259.293 92.494 259.417 92.928 259.477 93.425ZM265.899 92.059L265.887 92.109C265.831 92.341 265.772 92.577 265.714 92.866C265.67 93.085 265.596 93.273 265.535 93.43C265.509 93.496 265.486 93.556 265.467 93.611H265.529C265.961 93.177 266.517 92.928 267.196 92.804C267.876 92.68 268.492 92.742 269.11 92.928C270.22 93.301 270.962 93.921 271.27 94.79C271.58 95.66 271.58 96.591 271.21 97.708L269.356 103.109L268.06 102.674L269.728 97.832C269.91 97.402 269.972 96.972 270.034 96.542L270.036 96.529C270.098 96.156 270.098 95.784 269.974 95.411C269.912 95.101 269.728 94.79 269.48 94.542C269.234 94.294 268.864 94.108 268.43 93.921C268.122 93.797 267.752 93.735 267.382 93.797C267.011 93.797 266.64 93.921 266.332 94.108C265.961 94.294 265.653 94.604 265.343 94.977C265.035 95.349 264.789 95.846 264.603 96.404L263.059 100.936L261.763 100.502L264.109 93.611C264.151 93.448 264.218 93.258 264.293 93.042V93.041C264.333 92.928 264.376 92.807 264.417 92.68C264.472 92.516 264.514 92.353 264.555 92.195C264.607 91.992 264.657 91.799 264.727 91.624L265.899 92.059ZM287.015 110C287.447 109.876 287.877 109.689 288.249 109.503L287.693 108.386C286.951 108.758 286.151 109.006 285.347 108.944C284.545 108.882 283.805 108.696 283.063 108.324C282.261 107.889 281.644 107.393 281.149 106.772C280.655 106.151 280.285 105.468 280.099 104.723C279.915 103.978 279.853 103.233 279.976 102.426C280.038 101.619 280.285 100.874 280.655 100.129C281.025 99.385 281.519 98.764 282.075 98.205C282.631 97.646 283.309 97.212 283.989 96.963C284.669 96.653 285.409 96.529 286.211 96.591C287.015 96.653 287.817 96.839 288.619 97.274C289.051 97.522 289.359 97.77 289.668 98.019C289.915 98.267 290.224 98.577 290.409 98.888C290.595 99.198 290.78 99.509 290.903 99.819C290.926 99.933 290.957 100.047 290.988 100.157V100.158C291.039 100.349 291.088 100.531 291.088 100.688L292.57 100.44C292.508 100.005 292.386 99.633 292.2 99.198C292.014 98.764 291.768 98.391 291.458 98.019C291.15 97.646 290.78 97.274 290.409 96.963C289.977 96.653 289.545 96.405 289.113 96.156C288.187 95.722 287.261 95.411 286.273 95.349C285.285 95.287 284.361 95.349 283.495 95.66C282.631 95.908 281.829 96.405 281.088 97.025C280.347 97.646 279.729 98.453 279.235 99.385C278.742 100.378 278.432 101.309 278.372 102.302C278.309 103.295 278.372 104.226 278.68 105.096C278.926 105.965 279.42 106.772 280.038 107.517C280.655 108.262 281.459 108.882 282.385 109.379C282.939 109.689 283.495 109.876 284.051 110C284.545 110.124 285.101 110.186 285.595 110.186C286.087 110.186 286.581 110.124 287.015 110ZM298.989 113.724C298.617 114.345 298.124 114.78 297.629 115.152C297.074 115.525 296.518 115.773 295.964 115.897C295.345 116.021 294.728 116.021 294.11 115.897C293.492 115.773 292.814 115.525 292.258 115.09C291.642 114.718 291.148 114.221 290.776 113.724C290.406 113.166 290.16 112.607 290.036 111.986C289.912 111.366 289.912 110.745 290.036 110.124C290.16 109.503 290.406 108.882 290.776 108.262C291.148 107.703 291.58 107.206 292.136 106.834C292.692 106.461 293.246 106.213 293.802 106.089C294.418 105.965 295.036 105.965 295.654 106.089C296.272 106.213 296.889 106.461 297.507 106.834C298.124 107.206 298.617 107.703 298.989 108.262C299.359 108.82 299.605 109.379 299.729 110C299.853 110.621 299.853 111.241 299.729 111.862C299.605 112.483 299.359 113.104 298.989 113.724ZM297.815 112.917C298.124 112.483 298.309 112.048 298.371 111.552C298.495 111.055 298.495 110.621 298.433 110.186C298.371 109.751 298.185 109.317 297.939 108.882C297.691 108.448 297.321 108.137 296.889 107.827C296.457 107.517 295.964 107.33 295.53 107.268C295.036 107.206 294.604 107.206 294.172 107.33C293.74 107.454 293.308 107.641 292.938 107.951C292.568 108.262 292.198 108.634 291.95 109.069C291.642 109.503 291.456 109.938 291.394 110.434C291.272 110.931 291.272 111.366 291.332 111.8C291.394 112.235 291.58 112.669 291.828 113.042C292.074 113.414 292.444 113.787 292.876 114.097C293.308 114.407 293.802 114.594 294.234 114.656C294.728 114.718 295.16 114.718 295.592 114.594C296.024 114.469 296.456 114.283 296.827 113.973C297.198 113.724 297.507 113.352 297.815 112.917ZM304.423 113.042C304.609 112.793 304.793 112.545 304.917 112.359L304.053 111.552C303.975 111.654 303.9 111.767 303.819 111.885C303.703 112.055 303.579 112.238 303.435 112.421C303.309 112.674 303.154 112.87 303.03 113.028H303.029V113.029C302.97 113.103 302.918 113.169 302.879 113.228L298.434 118.939L299.483 119.746L302.385 115.959C302.755 115.463 303.127 115.09 303.559 114.842C303.929 114.594 304.361 114.407 304.731 114.345C305.101 114.283 305.471 114.283 305.843 114.407C306.151 114.532 306.459 114.656 306.769 114.904C307.139 115.214 307.385 115.525 307.571 115.835C307.695 116.145 307.755 116.456 307.755 116.829C307.755 117.139 307.633 117.511 307.447 117.884C307.261 118.256 307.015 118.629 306.707 119.001L303.559 123.036L304.609 123.843L308.125 119.374C308.805 118.442 309.175 117.573 309.115 116.642C309.115 115.711 308.621 114.904 307.695 114.159C307.199 113.787 306.583 113.538 305.905 113.414C305.225 113.29 304.609 113.414 304.053 113.662H303.991C304.113 113.476 304.237 113.29 304.423 113.042ZM315.286 122.602L313.372 120.864L309.792 124.899C309.604 125.087 309.489 125.276 309.389 125.437L309.351 125.499C309.334 125.527 309.315 125.555 309.298 125.581C309.175 125.768 309.175 126.016 309.175 126.14C309.175 126.326 309.236 126.513 309.361 126.637C309.422 126.698 309.482 126.775 309.542 126.851C309.606 126.93 309.668 127.009 309.731 127.071C309.854 127.196 310.04 127.32 310.224 127.382C310.408 127.505 310.592 127.567 310.776 127.629L310.78 127.63L310.04 128.561C309.792 128.499 309.546 128.375 309.361 128.189C309.189 128.103 309.048 127.987 308.895 127.863C308.828 127.807 308.757 127.75 308.68 127.692L308.675 127.687C308.492 127.503 308.31 127.317 308.187 127.071C308.001 126.823 307.94 126.575 307.879 126.264C307.817 125.957 307.878 125.649 307.938 125.342L307.94 125.333C308.063 125.023 308.249 124.65 308.619 124.278L312.448 119.932L311.026 118.629L311.768 117.76L313.188 119.063L314.916 117.139L315.904 118.07L314.176 119.995L316.088 121.733L315.286 122.602ZM317.694 123.285C317.448 123.533 317.2 123.781 316.954 124.092C316.791 124.255 316.663 124.402 316.541 124.54C316.433 124.664 316.331 124.781 316.214 124.899L311.152 130.051L312.078 130.982L315.41 127.63C315.842 127.196 316.274 126.823 316.706 126.637C317.138 126.389 317.508 126.264 317.88 126.264C318.25 126.264 318.62 126.326 318.93 126.451C319.238 126.575 319.546 126.761 319.794 127.009C319.855 127.071 319.917 127.149 319.979 127.227C320.04 127.304 320.102 127.382 320.164 127.444C320.237 127.517 320.287 127.589 320.33 127.65C320.361 127.692 320.386 127.729 320.411 127.754L321.461 126.947C321.43 126.885 321.381 126.822 321.335 126.759C321.29 126.698 321.244 126.636 321.213 126.575C321.151 126.451 321.029 126.326 320.905 126.202C320.473 125.706 319.917 125.395 319.3 125.271C318.682 125.147 318.064 125.209 317.508 125.395L317.517 125.388C317.639 125.264 317.822 125.08 318.004 124.837C318.154 124.723 318.259 124.587 318.359 124.456C318.424 124.372 318.486 124.289 318.56 124.216L317.694 123.285ZM325.227 138.432C324.671 138.866 324.117 139.239 323.499 139.425C322.881 139.611 322.264 139.735 321.646 139.673C321.029 139.611 320.411 139.487 319.856 139.176C319.3 138.866 318.744 138.432 318.25 137.873C317.758 137.314 317.448 136.755 317.202 136.135C317.016 135.514 316.894 134.893 316.954 134.272C317.016 133.652 317.138 133.031 317.448 132.472C317.758 131.913 318.128 131.355 318.684 130.92C319.238 130.486 319.794 130.113 320.411 129.927C321.029 129.741 321.646 129.616 322.264 129.678C322.881 129.741 323.499 129.865 324.055 130.175C324.611 130.486 325.165 130.92 325.597 131.417C326.091 131.975 326.401 132.534 326.647 133.155C326.833 133.776 326.955 134.396 326.893 135.017C326.833 135.638 326.709 136.259 326.401 136.817C326.215 137.438 325.781 137.997 325.227 138.432ZM324.301 137.376C324.671 137.066 324.981 136.631 325.227 136.259C325.473 135.824 325.597 135.39 325.659 134.955C325.721 134.521 325.659 134.024 325.537 133.589C325.411 133.155 325.165 132.72 324.795 132.286C324.425 131.851 324.055 131.603 323.621 131.355C323.191 131.168 322.757 131.044 322.325 131.044C321.893 131.044 321.4 131.106 320.967 131.293C320.534 131.479 320.102 131.727 319.732 132.038C319.362 132.348 319.054 132.783 318.806 133.155C318.558 133.589 318.436 134.024 318.374 134.459C318.312 134.893 318.374 135.39 318.498 135.824C318.62 136.259 318.868 136.693 319.238 137.128C319.608 137.562 319.98 137.873 320.411 138.059C320.844 138.245 321.275 138.369 321.708 138.369C322.14 138.369 322.635 138.307 323.067 138.121C323.499 137.935 323.931 137.687 324.301 137.376ZM323.127 143.46L323.929 144.515L335.782 135.39L334.98 134.335L323.127 143.46ZM329.485 152.461L328.744 151.22L340.722 143.894L342.883 147.433C343.253 147.992 343.499 148.612 343.685 149.171C343.869 149.73 343.931 150.289 343.931 150.785C343.931 151.282 343.747 151.778 343.439 152.275C343.129 152.709 342.697 153.144 342.141 153.516C341.709 153.765 341.278 153.951 340.783 154.013C340.35 154.075 339.858 154.075 339.424 153.951C338.992 153.827 338.56 153.641 338.19 153.392C337.82 153.144 337.45 152.772 337.142 152.337L333.56 159.352L332.635 157.862L336.216 151.096L334.98 149.047L329.485 152.461ZM337.45 150.537C338.066 151.53 338.684 152.151 339.362 152.461C340.042 152.772 340.722 152.709 341.462 152.275C341.833 152.027 342.141 151.778 342.327 151.468C342.512 151.158 342.574 150.847 342.635 150.475C342.635 150.102 342.574 149.73 342.449 149.295C342.327 148.861 342.08 148.427 341.833 147.992L340.536 145.819L336.152 148.426L337.45 150.537ZM342.389 166.242C342.435 166.226 342.481 166.211 342.512 166.18C343.068 165.87 343.561 165.56 344.117 165.063C344.55 164.629 344.859 164.132 345.043 163.636C345.229 163.138 345.291 162.581 345.291 161.959C345.291 161.4 345.106 160.78 344.797 160.097C344.489 159.538 344.117 158.979 343.624 158.607C343.191 158.235 342.635 157.924 342.08 157.738C341.524 157.552 340.908 157.49 340.29 157.552C339.61 157.614 338.994 157.8 338.376 158.111C337.698 158.421 337.204 158.793 336.772 159.29C336.338 159.787 336.03 160.345 335.846 160.904C335.66 161.463 335.538 162.084 335.598 162.705C335.598 163.324 335.782 163.946 336.092 164.567C336.4 165.249 336.894 165.87 337.45 166.306C338.006 166.801 338.746 167.111 339.61 167.299L339.858 166.056C339.364 165.994 338.808 165.808 338.314 165.498C337.82 165.187 337.388 164.691 337.08 164.07C336.832 163.636 336.708 163.2 336.708 162.767C336.708 162.269 336.772 161.897 336.894 161.463C337.018 161.028 337.204 160.655 337.512 160.345C337.82 160.035 338.128 159.787 338.562 159.538L341.956 166.43C342.018 166.399 342.065 166.383 342.111 166.368C342.158 166.352 342.204 166.337 342.265 166.306C342.296 166.273 342.342 166.257 342.389 166.242ZM343.809 163.014C343.561 163.76 343.006 164.317 342.265 164.753L339.426 159.104C339.796 158.917 340.228 158.855 340.598 158.855C340.97 158.855 341.4 158.917 341.771 159.042C342.142 159.166 342.512 159.414 342.821 159.662C343.191 159.911 343.439 160.221 343.624 160.656C343.995 161.463 344.117 162.269 343.809 163.014ZM335.042 173.382L334.546 172.141L347.635 167.111L348.129 168.354L346.647 168.912V168.974C347.327 169.098 347.943 169.409 348.499 169.905C348.993 170.402 349.425 170.96 349.609 171.581C349.857 172.265 349.981 172.946 349.981 173.568C349.981 174.189 349.795 174.809 349.548 175.368C349.301 175.926 348.931 176.424 348.437 176.857C347.943 177.293 347.387 177.603 346.771 177.851C346.153 178.1 345.475 178.224 344.857 178.224C344.239 178.224 343.621 178.1 343.067 177.851C342.511 177.603 342.017 177.293 341.585 176.795C341.153 176.362 340.783 175.74 340.535 175.059C340.288 174.437 340.227 173.754 340.288 173.072C340.349 172.389 340.597 171.705 340.967 171.148V171.084L335.042 173.382ZM346.277 176.486C346.771 176.3 347.201 176.052 347.573 175.74C347.943 175.43 348.251 175.059 348.437 174.685C348.621 174.313 348.747 173.816 348.807 173.382C348.807 172.885 348.747 172.389 348.561 171.891C348.375 171.396 348.127 171.022 347.757 170.65C347.449 170.34 347.017 170.029 346.585 169.905C346.153 169.719 345.721 169.657 345.227 169.657C344.733 169.657 344.239 169.719 343.745 169.967C343.251 170.153 342.821 170.402 342.449 170.774C342.079 171.084 341.831 171.458 341.647 171.891C341.461 172.327 341.338 172.761 341.338 173.258C341.338 173.754 341.399 174.189 341.585 174.685C341.769 175.183 342.079 175.616 342.387 175.99C342.695 176.3 343.129 176.548 343.499 176.733C343.931 176.919 344.363 176.983 344.857 176.919C345.086 176.821 345.332 176.758 345.587 176.692C345.812 176.634 346.045 176.573 346.277 176.486ZM348.069 189.585C348.687 189.647 349.365 189.585 350.045 189.397C350.723 189.211 351.341 188.902 351.835 188.53C352.391 188.094 352.761 187.66 353.069 187.101C353.377 186.543 353.563 185.984 353.625 185.3C353.687 184.619 353.625 183.935 353.439 183.252C353.254 182.569 353.007 181.949 352.575 181.452C352.143 180.956 351.711 180.52 351.155 180.211C350.661 179.901 350.045 179.713 349.427 179.651C348.811 179.589 348.131 179.651 347.451 179.839C346.773 180.025 346.155 180.334 345.661 180.706C345.105 181.142 344.735 181.576 344.427 182.135C344.118 182.694 343.933 183.252 343.871 183.935C343.809 184.555 343.871 185.239 344.056 185.922C344.241 186.666 344.549 187.287 344.921 187.784C345.353 188.28 345.785 188.716 346.341 189.025C346.835 189.335 347.451 189.523 348.069 189.585ZM351.031 187.413C350.601 187.66 350.167 187.908 349.673 188.032C349.181 188.156 348.687 188.218 348.193 188.218C347.699 188.156 347.265 188.032 346.835 187.846C346.465 187.66 346.095 187.351 345.785 186.977C345.475 186.604 345.229 186.108 345.105 185.612C344.921 185.053 344.921 184.619 344.983 184.121C345.105 183.624 345.229 183.19 345.475 182.818C345.661 182.445 346.031 182.135 346.403 181.825C346.835 181.576 347.265 181.328 347.761 181.204C348.255 181.08 348.747 181.018 349.241 181.08C349.737 181.142 350.167 181.266 350.601 181.452C350.971 181.699 351.341 181.949 351.649 182.321C351.957 182.631 352.205 183.128 352.327 183.624C352.513 184.121 352.513 184.619 352.453 185.115C352.327 185.612 352.205 186.046 351.957 186.418C351.775 186.789 351.405 187.099 351.036 187.407L351.031 187.413ZM354.052 191.198C354.267 191.162 354.484 191.105 354.687 191.051C354.834 191.012 354.973 190.976 355.102 190.95L355.348 192.193C355.102 192.255 354.856 192.315 354.546 192.439C354.236 192.503 353.992 192.564 353.806 192.626V192.688C354.362 192.812 354.916 193.124 355.348 193.62C355.782 194.053 356.09 194.613 356.213 195.296C356.274 195.482 356.274 195.606 356.274 195.73V196.166L354.978 196.226V195.792C354.978 195.771 354.978 195.751 354.977 195.728L354.975 195.709L354.973 195.684C354.968 195.646 354.963 195.606 354.958 195.568L354.947 195.511C354.932 195.418 354.916 195.326 354.916 195.234C354.856 194.861 354.732 194.549 354.546 194.239C354.362 193.93 354.114 193.682 353.744 193.496C353.436 193.308 353.002 193.184 352.572 193.124C352.138 193.06 351.584 193.06 350.966 193.184L346.336 194.115L346.089 192.812L353.188 191.385C353.374 191.385 353.682 191.323 354.052 191.198ZM355.663 200.944L356.034 203.552L357.145 203.49L356.774 200.884L359.366 200.51L359.182 199.145L356.589 199.517L356.342 197.593L355.23 197.778L355.478 199.703L349.737 200.51C349.243 200.572 348.873 200.696 348.563 200.884C348.255 201.068 348.007 201.317 347.885 201.565C347.761 201.813 347.637 202.063 347.637 202.373C347.577 202.682 347.577 202.932 347.637 203.178C347.699 203.49 347.761 203.738 347.823 203.986C347.868 204.17 347.947 204.318 348.034 204.483L348.036 204.486L348.038 204.49L348.04 204.495C348.071 204.55 348.1 204.607 348.131 204.669L349.303 204.421L349.301 204.418V204.416C349.179 204.232 349.055 204.047 348.995 203.863C348.873 203.676 348.811 203.49 348.811 203.304V202.744C348.811 202.559 348.873 202.373 348.995 202.249C349.084 202.114 349.207 202.044 349.338 201.968C349.387 201.939 349.437 201.91 349.489 201.875C349.675 201.813 349.921 201.751 350.293 201.689L355.663 200.944ZM355.662 211.312C356.032 211.064 356.34 210.754 356.524 210.318C356.71 209.885 356.834 209.449 356.772 208.89C356.772 208.642 356.71 208.394 356.648 208.208C356.588 207.964 356.467 207.781 356.347 207.597L356.34 207.587C356.216 207.401 356.032 207.277 355.846 207.153C355.662 207.027 355.414 207.027 355.168 207.027C354.734 207.089 354.426 207.277 354.242 207.649C354.056 208.02 353.872 208.58 353.808 209.387C353.686 210.504 353.377 211.312 353.006 211.869C352.636 212.429 352.081 212.739 351.339 212.8C350.783 212.864 350.351 212.8 349.981 212.615C349.609 212.429 349.301 212.181 349.055 211.869C348.809 211.559 348.623 211.188 348.499 210.816C348.375 210.38 348.315 210.007 348.253 209.573C348.191 208.89 348.315 208.208 348.499 207.525C348.745 206.841 349.179 206.284 349.735 205.786L350.599 206.779C350.227 207.027 349.919 207.401 349.673 207.896C349.425 208.394 349.301 208.89 349.363 209.449C349.363 209.754 349.424 210 349.484 210.244L349.487 210.256C349.549 210.504 349.673 210.754 349.795 210.938C349.919 211.126 350.105 211.25 350.351 211.373C350.599 211.497 350.845 211.497 351.154 211.497C351.648 211.435 351.956 211.188 352.204 210.69C352.389 210.194 352.574 209.511 352.698 208.58C352.718 208.476 352.739 208.38 352.76 208.284C352.801 208.089 352.842 207.896 352.882 207.649C352.944 207.339 353.068 207.027 353.254 206.779C353.438 206.531 353.624 206.284 353.932 206.096C354.18 205.91 354.55 205.786 354.982 205.724C355.476 205.662 355.846 205.724 356.216 205.91C356.588 206.096 356.834 206.284 357.08 206.593C357.328 206.905 357.514 207.215 357.636 207.587C357.76 207.958 357.884 208.394 357.884 208.828C357.944 209.449 357.822 210.131 357.574 210.754C357.328 211.373 356.958 211.869 356.464 212.241L355.662 211.312ZM170.639 340.62C170.825 341.179 170.763 341.799 170.455 342.544L170.393 342.918L168.17 341.986C167.429 341.675 166.75 341.489 166.133 341.427C165.454 341.365 164.898 341.427 164.404 341.675C163.849 341.862 163.478 342.358 163.17 342.98C162.923 343.413 162.861 343.849 162.861 344.283C162.861 344.718 162.984 345.09 163.17 345.4C163.355 345.71 163.602 346.021 163.91 346.269C164.219 346.519 164.528 346.766 164.836 346.89C165.516 347.2 166.133 347.324 166.75 347.324C167.306 347.264 167.985 347.076 168.602 346.705H168.664L168.66 346.713C168.538 346.958 168.416 347.204 168.355 347.448C168.232 347.698 168.17 347.884 168.108 348.132L169.219 348.629C169.259 348.467 169.326 348.281 169.4 348.07C169.441 347.953 169.484 347.829 169.529 347.698C169.608 347.458 169.711 347.221 169.81 346.999C169.863 346.873 169.916 346.754 169.961 346.643L171.689 342.98C171.935 342.42 172.059 341.924 172.059 341.489C172.059 340.993 171.997 340.558 171.813 340.186C171.627 339.814 171.319 339.441 171.009 339.131C170.701 338.819 170.269 338.509 169.837 338.323C169.096 338.014 168.417 337.826 167.738 337.764C167.059 337.764 166.442 337.826 165.948 338.014L166.256 339.131C166.689 339.007 167.182 338.945 167.676 338.945C168.232 338.945 168.726 339.069 169.219 339.317C169.961 339.626 170.455 340.062 170.639 340.62ZM167.985 343.042C168.541 343.227 169.034 343.413 169.529 343.663L169.837 343.849L169.529 344.469C169.343 344.842 169.096 345.214 168.849 345.463C168.602 345.71 168.294 345.959 167.923 346.083C167.615 346.207 167.244 346.269 166.812 346.269C166.442 346.269 166.009 346.145 165.577 345.959C165.33 345.835 165.083 345.71 164.898 345.525C164.713 345.4 164.528 345.152 164.404 344.966C164.281 344.778 164.157 344.532 164.157 344.283C164.157 344.035 164.219 343.787 164.343 343.475C164.528 343.104 164.836 342.856 165.207 342.732C165.639 342.606 166.009 342.606 166.503 342.668C166.935 342.732 167.429 342.856 167.985 343.042ZM173.726 350.49L172.491 349.994L175.948 341.365L177.184 341.862L173.726 350.49ZM178.788 338.633C178.664 338.883 178.48 339.069 178.232 339.131C177.986 339.193 177.738 339.255 177.554 339.131C177.306 339.069 177.184 338.883 177.06 338.633C176.936 338.385 176.936 338.137 177.06 337.888C177.184 337.642 177.368 337.454 177.616 337.392L177.621 337.39C177.865 337.33 178.11 337.268 178.294 337.392C178.542 337.454 178.664 337.642 178.788 337.888C178.85 338.137 178.85 338.385 178.788 338.633ZM185.274 346.021C185.582 346.395 185.768 346.767 185.89 347.2L187.31 346.767C187.064 346.145 186.694 345.586 186.2 345.152C185.644 344.716 185.15 344.345 184.532 344.159C183.854 343.909 183.174 343.787 182.496 343.849C181.878 343.909 181.26 344.097 180.706 344.345C180.15 344.594 179.718 344.966 179.285 345.463C178.853 345.959 178.544 346.517 178.297 347.2C178.051 347.884 177.927 348.567 177.989 349.187C177.989 349.808 178.174 350.428 178.421 350.987C178.73 351.547 179.1 352.042 179.594 352.478C180.088 352.912 180.644 353.221 181.384 353.469C182.126 353.719 182.866 353.781 183.484 353.719C184.1 353.657 184.656 353.407 185.212 353.098L184.47 352.042C184.1 352.29 183.668 352.478 183.236 352.54C182.742 352.6 182.248 352.54 181.694 352.354C181.2 352.166 180.768 351.918 180.396 351.609C180.026 351.297 179.78 350.925 179.594 350.49C179.408 350.056 179.285 349.62 179.285 349.125C179.285 348.629 179.347 348.132 179.532 347.636C179.656 347.138 179.902 346.705 180.212 346.333C180.52 345.897 180.828 345.648 181.26 345.4C181.632 345.214 182.064 345.09 182.558 345.028C183.052 344.966 183.544 345.028 184.038 345.214C184.532 345.4 184.964 345.648 185.274 346.021ZM187.68 360.176L186.384 359.864L189.718 346.207L191.015 346.517L190.645 348.07H190.707C191.201 347.574 191.819 347.262 192.497 347.076C193.175 346.952 193.855 346.952 194.473 347.076C195.151 347.262 195.769 347.51 196.325 347.884C196.817 348.255 197.249 348.753 197.559 349.249C197.867 349.746 198.053 350.366 198.115 350.987C198.175 351.609 198.175 352.29 197.991 352.974C197.805 353.657 197.559 354.216 197.189 354.774C196.817 355.27 196.385 355.705 195.891 356.077C195.399 356.389 194.843 356.637 194.163 356.699C193.545 356.823 192.867 356.761 192.189 356.575C191.571 356.389 190.953 356.139 190.397 355.643C189.842 355.208 189.471 354.65 189.224 353.967H189.163L187.68 360.176ZM196.633 352.664C196.755 352.166 196.817 351.671 196.755 351.173C196.695 350.677 196.571 350.244 196.385 349.87C196.199 349.497 195.891 349.125 195.521 348.815C195.151 348.505 194.719 348.317 194.163 348.193C193.669 348.07 193.175 348.07 192.683 348.132C192.189 348.193 191.755 348.379 191.385 348.627C191.015 348.877 190.645 349.187 190.397 349.62C190.089 349.994 189.904 350.49 189.78 350.987C189.657 351.485 189.595 351.98 189.718 352.478C189.743 352.573 189.763 352.666 189.784 352.755C189.872 353.139 189.951 353.48 190.151 353.781C190.397 354.154 190.707 354.526 191.077 354.836C191.447 355.146 191.879 355.332 192.373 355.458C192.929 355.581 193.423 355.643 193.855 355.519C194.349 355.457 194.719 355.27 195.089 355.022C195.459 354.774 195.769 354.464 196.015 354.029C196.325 353.595 196.509 353.16 196.633 352.664ZM206.816 351.235C207.187 351.669 207.31 352.29 207.187 353.098L207.249 353.595C206.446 353.407 205.644 353.345 204.84 353.285C204.1 353.223 203.358 353.223 202.742 353.345C202.062 353.407 201.568 353.657 201.138 354.029C200.706 354.401 200.458 354.96 200.334 355.643C200.272 356.201 200.334 356.637 200.458 357.008C200.582 357.38 200.828 357.754 201.076 358.002C201.322 358.249 201.632 358.437 202.002 358.623C202.078 358.649 202.152 358.675 202.224 358.699C202.501 358.795 202.756 358.883 203.05 358.933C203.792 359.057 204.47 358.995 205.026 358.809C205.582 358.623 206.138 358.25 206.631 357.692H206.694C206.694 357.816 206.679 357.94 206.662 358.064C206.646 358.188 206.631 358.313 206.631 358.437V359.181L207.805 359.368C207.743 359.057 207.743 358.747 207.805 358.375C207.805 358.009 207.865 357.644 207.925 357.279L207.928 357.256L208.545 353.223C208.607 352.664 208.607 352.166 208.484 351.733C208.361 351.235 208.175 350.863 207.866 350.553C207.558 350.242 207.249 349.932 206.816 349.746C206.384 349.497 205.952 349.374 205.458 349.312C204.656 349.187 203.978 349.249 203.298 349.374C202.618 349.497 202.062 349.746 201.632 350.056L202.248 351.049C202.618 350.739 203.05 350.553 203.544 350.428C204.038 350.304 204.532 350.304 205.088 350.366C205.89 350.49 206.446 350.8 206.816 351.235ZM204.904 354.215L206.569 354.401L207.064 354.526L206.939 355.208C206.878 355.58 206.755 355.953 206.569 356.327C206.384 356.637 206.138 356.946 205.828 357.196C205.52 357.38 205.149 357.568 204.778 357.692C204.408 357.816 203.978 357.816 203.482 357.754C203.236 357.754 202.988 357.692 202.742 357.568C202.496 357.506 202.248 357.38 202.062 357.196C201.878 357.008 201.692 356.823 201.632 356.575C201.568 356.327 201.508 356.015 201.568 355.705C201.692 355.27 201.878 354.96 202.188 354.712C202.496 354.464 202.866 354.339 203.358 354.277C203.852 354.215 204.348 354.153 204.904 354.215ZM213.175 358.871C213.175 359.119 213.051 359.368 212.805 359.616C212.557 359.802 212.311 359.926 212.001 359.864C211.693 359.802 211.447 359.678 211.261 359.492C211.077 359.244 211.015 358.997 211.015 358.747C211.015 358.499 211.139 358.249 211.385 358.002C211.631 357.754 211.879 357.692 212.187 357.754C212.497 357.754 212.743 357.94 212.929 358.127C213.113 358.311 213.237 358.561 213.175 358.871ZM225.274 357.692C225.52 357.132 225.706 356.449 225.706 355.767C225.768 355.022 225.646 354.401 225.336 353.781C225.09 353.16 224.78 352.6 224.348 352.166C223.916 351.731 223.422 351.359 222.804 351.111C222.188 350.863 221.57 350.677 220.828 350.677C220.15 350.677 219.472 350.739 218.854 350.987C218.238 351.235 217.682 351.547 217.248 351.98C216.817 352.354 216.447 352.912 216.199 353.469C215.952 354.029 215.767 354.712 215.767 355.396C215.767 356.139 215.829 356.761 216.077 357.38C216.322 358.002 216.632 358.561 217.064 358.995C217.496 359.43 217.99 359.802 218.608 360.05C219.224 360.3 219.842 360.486 220.584 360.486C221.324 360.486 222.002 360.422 222.62 360.176C223.238 359.926 223.792 359.616 224.224 359.181C224.656 358.809 225.028 358.25 225.274 357.692ZM224.1 354.216C224.224 354.712 224.286 355.208 224.286 355.705C224.286 356.201 224.224 356.699 223.854 357.008C223.67 357.444 223.422 357.878 223.114 358.188C222.804 358.499 222.434 358.747 222.002 358.933C221.57 359.119 221.076 359.181 220.52 359.181C220.028 359.181 219.472 359.057 219.102 358.871C218.73 358.685 218.36 358.437 218.052 358.065C217.742 357.692 217.496 357.258 217.372 356.823C217.248 356.327 217.187 355.829 217.187 355.332C217.187 354.836 217.311 354.339 217.496 353.905C217.682 353.469 217.928 353.036 218.238 352.726C218.546 352.416 218.916 352.166 219.348 351.98C219.78 351.795 220.274 351.731 220.828 351.731C221.384 351.795 221.88 351.918 222.31 352.104C222.744 352.354 223.114 352.6 223.422 352.974C223.73 353.347 223.978 353.781 224.1 354.216ZM228.605 352.042C228.605 351.671 228.545 351.297 228.481 350.987L229.779 350.925C229.841 351.175 229.841 351.485 229.841 351.733C229.841 351.908 229.86 352.063 229.877 352.197C229.891 352.302 229.901 352.395 229.901 352.478H229.963C230.211 351.918 230.581 351.485 231.075 351.113C231.569 350.739 232.187 350.553 232.803 350.553H233.297C233.421 350.553 233.607 350.553 233.729 350.615L233.607 351.918C233.6 351.918 233.595 351.918 233.588 351.917C233.581 351.917 233.575 351.915 233.568 351.913C233.562 351.912 233.559 351.912 233.554 351.91L233.542 351.906L233.513 351.9C233.445 351.881 233.353 351.856 233.235 351.856H232.679C232.309 351.856 232.001 351.918 231.631 352.104C231.321 352.228 231.013 352.478 230.767 352.788C230.519 353.098 230.335 353.469 230.211 353.905C230.087 354.339 230.025 354.898 230.025 355.519L230.211 360.3L228.853 360.362L228.605 353.098V352.042ZM238.857 362.782C238.177 362.534 237.621 362.162 237.191 361.727L236.449 362.782C237.067 363.279 237.807 363.651 238.611 363.899C239.412 364.149 240.215 364.272 241.08 364.148C242.128 364.025 242.932 363.777 243.55 363.403C244.166 363.03 244.66 362.534 244.97 362.038C245.34 361.479 245.524 360.919 245.586 360.362C245.648 359.802 245.648 359.244 245.586 358.747L244.6 349.56L243.24 349.684L243.426 351.297H243.364C242.932 350.739 242.376 350.368 241.698 350.118C241.018 349.87 240.338 349.808 239.659 349.87C238.919 349.994 238.301 350.18 237.747 350.49C237.191 350.801 236.757 351.175 236.387 351.671C236.017 352.166 235.771 352.664 235.585 353.285C235.461 353.905 235.401 354.526 235.461 355.208C235.523 355.891 235.709 356.513 236.017 357.07C236.265 357.63 236.697 358.065 237.129 358.437C237.561 358.809 238.117 359.059 238.733 359.244C239.351 359.43 239.968 359.43 240.709 359.368C241.388 359.306 242.006 359.059 242.624 358.685C243.24 358.313 243.674 357.816 243.982 357.196H244.044L244.228 358.935C244.29 359.43 244.228 359.928 244.166 360.362C244.104 360.857 243.92 361.231 243.674 361.603C243.426 361.976 243.054 362.286 242.624 362.534C242.128 362.782 241.636 362.969 240.956 363.031C240.215 363.155 239.537 363.03 238.857 362.782ZM237.067 356.513C236.881 356.077 236.757 355.643 236.697 355.148C236.635 354.65 236.697 354.154 236.757 353.719C236.881 353.223 237.067 352.85 237.313 352.478C237.561 352.106 237.869 351.795 238.301 351.547C238.671 351.297 239.165 351.175 239.721 351.111C240.215 351.049 240.709 351.113 241.142 351.237C241.636 351.423 242.006 351.609 242.376 351.918C242.746 352.228 242.994 352.54 243.24 352.974C243.488 353.409 243.61 353.843 243.674 354.34C243.734 354.898 243.674 355.396 243.55 355.829C243.426 356.327 243.24 356.699 242.932 357.07C242.624 357.444 242.314 357.692 241.883 357.94C241.512 358.189 241.018 358.313 240.524 358.375C239.968 358.437 239.474 358.375 239.042 358.251C238.611 358.065 238.177 357.878 237.869 357.568C237.561 357.258 237.251 356.946 237.067 356.513ZM249.292 358.623L248.12 358.437L251.33 343.165L252.502 343.351L249.292 358.623ZM258.427 348.07C258.861 348.194 259.231 348.443 259.539 348.753L260.403 347.76C259.971 347.324 259.477 347.014 258.797 346.89C258.181 346.705 257.501 346.766 256.885 346.89C256.451 346.952 256.081 347.138 255.711 347.324C255.341 347.512 255.033 347.76 254.785 348.07C254.539 348.379 254.415 348.691 254.291 349.063C254.169 349.436 254.169 349.87 254.291 350.306C254.353 350.739 254.539 351.049 254.785 351.297C255.033 351.547 255.281 351.733 255.589 351.856L255.597 351.86C255.904 351.982 256.208 352.104 256.515 352.104H257.441C258.367 352.104 259.107 352.166 259.601 352.29C260.095 352.416 260.403 352.726 260.527 353.223C260.587 353.533 260.587 353.781 260.527 354.029C260.501 354.08 260.479 354.129 260.457 354.175C260.372 354.354 260.303 354.502 260.157 354.65C259.971 354.836 259.787 354.96 259.539 355.086C259.467 355.103 259.396 355.125 259.322 355.151C259.288 355.163 259.253 355.175 259.217 355.189C259.069 355.242 258.913 355.297 258.737 355.334C258.181 355.457 257.625 355.458 257.131 355.27C256.637 355.148 256.207 354.898 255.897 354.526L255.033 355.581C255.589 356.077 256.267 356.389 256.947 356.513C257.687 356.637 258.367 356.637 259.045 356.451C259.415 356.389 259.847 356.201 260.217 356.015C260.587 355.829 260.959 355.581 261.205 355.27C261.453 354.96 261.637 354.588 261.761 354.216C261.885 353.843 261.885 353.347 261.761 352.85C261.577 352.166 261.205 351.671 260.587 351.359C259.971 351.049 259.107 350.925 257.997 350.987C257.193 350.987 256.577 350.925 256.207 350.801C255.835 350.615 255.589 350.368 255.465 349.932C255.403 349.684 255.403 349.436 255.465 349.249C255.525 349.066 255.645 348.884 255.766 348.701L255.773 348.689C255.897 348.567 256.081 348.443 256.329 348.317C256.577 348.193 256.761 348.133 257.007 348.07C257.501 347.946 257.997 347.946 258.427 348.07ZM272.933 347.138C273.181 347.822 273.241 348.443 273.181 349.125C273.117 349.746 272.995 350.368 272.685 350.925C272.439 351.485 272.007 351.98 271.513 352.416C271.019 352.85 270.401 353.16 269.723 353.409C269.044 353.657 268.364 353.719 267.746 353.719C267.068 353.657 266.512 353.533 265.956 353.223C265.402 352.975 264.906 352.54 264.474 352.106C264.042 351.609 263.734 351.049 263.486 350.368C263.24 349.684 263.178 349.064 263.24 348.379C263.302 347.76 263.426 347.138 263.734 346.579C263.982 346.021 264.412 345.525 264.906 345.09C265.402 344.656 266.018 344.345 266.698 344.097C267.376 343.849 268.055 343.787 268.734 343.787C269.414 343.849 269.969 343.973 270.525 344.284C271.081 344.532 271.575 344.966 272.007 345.4C272.439 345.897 272.747 346.457 272.933 347.138ZM271.635 347.574C271.451 347.076 271.265 346.643 270.957 346.269C270.649 345.897 270.339 345.587 269.908 345.338C269.537 345.09 269.105 344.966 268.611 344.904C268.118 344.842 267.622 344.904 267.128 345.09C266.636 345.276 266.202 345.525 265.832 345.835C265.462 346.145 265.216 346.519 265.03 346.952C264.846 347.386 264.722 347.822 264.722 348.317C264.722 348.815 264.784 349.312 264.968 349.808C265.154 350.306 265.338 350.739 265.648 351.113C265.956 351.485 266.264 351.795 266.698 352.044C267.068 352.29 267.5 352.416 267.993 352.478C268.488 352.54 268.919 352.478 269.475 352.29C269.969 352.106 270.401 351.856 270.773 351.547C271.143 351.237 271.389 350.863 271.575 350.429C271.759 349.994 271.821 349.56 271.883 349.064V349.063C271.821 348.567 271.759 348.07 271.635 347.574ZM279.846 340.496C280.34 340.558 280.71 340.683 281.08 340.931L281.76 339.998C281.142 339.688 280.588 339.502 279.846 339.502C279.105 339.502 278.488 339.626 277.933 339.874C277.253 340.124 276.635 340.496 276.203 340.993C275.709 341.427 275.401 341.986 275.153 342.544C274.907 343.104 274.845 343.725 274.845 344.345C274.845 344.966 275.031 345.648 275.277 346.269C275.587 346.952 275.957 347.51 276.389 347.946C276.883 348.443 277.377 348.753 277.933 349.001C278.549 349.249 279.106 349.311 279.784 349.311C280.464 349.249 281.142 349.125 281.822 348.815C282.562 348.505 283.118 348.07 283.55 347.574C283.982 347.076 284.23 346.517 284.414 345.897L283.18 345.586C283.118 346.021 282.932 346.393 282.624 346.767C282.378 347.138 281.944 347.448 281.39 347.696C280.896 347.884 280.402 348.008 279.908 348.008C279.414 348.008 278.982 347.884 278.549 347.696C278.117 347.51 277.747 347.262 277.438 346.889C277.129 346.579 276.821 346.145 276.635 345.648C276.389 345.152 276.265 344.654 276.265 344.159C276.265 343.663 276.327 343.227 276.451 342.794C276.635 342.358 276.883 341.986 277.191 341.613C277.499 341.241 277.933 340.931 278.426 340.744C278.858 340.558 279.352 340.434 279.846 340.496Z" fill="url(#paint0_linear_287_1004)"/>
</g>
</g>
<defs>
<filter id="filter0_dddii_287_1004" x="0" y="0" width="450.667" height="450.667" filterUnits="userSpaceOnUse" color-interpolation-filters="sRGB">
<feFlood flood-opacity="0" result="BackgroundImageFix"/>
<feColorMatrix in="SourceAlpha" type="matrix" values="0 0 0 0 0 0 0 0 0 0 0 0 0 0 0 0 0 0 127 0" result="hardAlpha"/>
<feOffset dy="6"/>
<feGaussianBlur stdDeviation="6"/>
<feColorMatrix type="matrix" values="0 0 0 0 0 0 0 0 0 0 0 0 0 0 0 0 0 0 0.1 0"/>
<feBlend mode="normal" in2="BackgroundImageFix" result="effect1_dropShadow_287_1004"/>
<feColorMatrix in="SourceAlpha" type="matrix" values="0 0 0 0 0 0 0 0 0 0 0 0 0 0 0 0 0 0 127 0" result="hardAlpha"/>
<feOffset dy="4"/>
<feGaussianBlur stdDeviation="3"/>
<feColorMatrix type="matrix" values="0 0 0 0 0 0 0 0 0 0 0 0 0 0 0 0 0 0 0.1 0"/>
<feBlend mode="normal" in2="effect1_dropShadow_287_1004" result="effect2_dropShadow_287_1004"/>
<feColorMatrix in="SourceAlpha" type="matrix" values="0 0 0 0 0 0 0 0 0 0 0 0 0 0 0 0 0 0 127 0" result="hardAlpha"/>
<feOffset dy="1"/>
<feGaussianBlur stdDeviation="1"/>
<feColorMatrix type="matrix" values="0 0 0 0 0 0 0 0 0 0 0 0 0 0 0 0 0 0 0.1 0"/>
<feBlend mode="normal" in2="effect2_dropShadow_287_1004" result="effect3_dropShadow_287_1004"/>
<feBlend mode="normal" in="SourceGraphic" in2="effect3_dropShadow_287_1004" result="shape"/>
<feColorMatrix in="SourceAlpha" type="matrix" values="0 0 0 0 0 0 0 0 0 0 0 0 0 0 0 0 0 0 127 0" result="hardAlpha"/>
<feOffset dy="-2"/>
<feGaussianBlur stdDeviation="1"/>
<feComposite in2="hardAlpha" operator="arithmetic" k2="-1" k3="1"/>
<feColorMatrix type="matrix" values="0 0 0 0 0 0 0 0 0 0 0 0 0 0 0 0 0 0 0.05 0"/>
<feBlend mode="normal" in2="shape" result="effect4_innerShadow_287_1004"/>
<feColorMatrix in="SourceAlpha" type="matrix" values="0 0 0 0 0 0 0 0 0 0 0 0 0 0 0 0 0 0 127 0" result="hardAlpha"/>
<feOffset dy="2"/>
<feGaussianBlur stdDeviation="1"/>
<feComposite in2="hardAlpha" operator="arithmetic" k2="-1" k3="1"/>
<feColorMatrix type="matrix" values="0 0 0 0 1 0 0 0 0 1 0 0 0 0 1 0 0 0 1 0"/>
<feBlend mode="overlay" in2="effect4_innerShadow_287_1004" result="effect5_innerShadow_287_1004"/>
</filter>
<filter id="filter1_f_287_1004" x="-266.667" y="47.3335" width="591" height="591" filterUnits="userSpaceOnUse" color-interpolation-filters="sRGB">
<feFlood flood-opacity="0" result="BackgroundImageFix"/>
<feBlend mode="normal" in="SourceGraphic" in2="BackgroundImageFix" result="shape"/>
<feGaussianBlur stdDeviation="86" result="effect1_foregroundBlur_287_1004"/>
</filter>
<filter id="filter2_f_287_1004" x="90.333" y="-117.667" width="767" height="767" filterUnits="userSpaceOnUse" color-interpolation-filters="sRGB">
<feFlood flood-opacity="0" result="BackgroundImageFix"/>
<feBlend mode="normal" in="SourceGraphic" in2="BackgroundImageFix" result="shape"/>
<feGaussianBlur stdDeviation="130" result="effect1_foregroundBlur_287_1004"/>
</filter>
<filter id="filter3_f_287_1004" x="-246.712" y="-347.711" width="890.089" height="890.089" filterUnits="userSpaceOnUse" color-interpolation-filters="sRGB">
<feFlood flood-opacity="0" result="BackgroundImageFix"/>
<feBlend mode="normal" in="SourceGraphic" in2="BackgroundImageFix" result="shape"/>
<feGaussianBlur stdDeviation="129.522" result="effect1_foregroundBlur_287_1004"/>
</filter>
<filter id="filter4_f_287_1004" x="-60.7115" y="-241.711" width="890.089" height="890.089" filterUnits="userSpaceOnUse" color-interpolation-filters="sRGB">
<feFlood flood-opacity="0" result="BackgroundImageFix"/>
<feBlend mode="normal" in="SourceGraphic" in2="BackgroundImageFix" result="shape"/>
<feGaussianBlur stdDeviation="129.522" result="effect1_foregroundBlur_287_1004"/>
</filter>
<filter id="filter5_f_287_1004" x="-239.412" y="-71.4114" width="758.49" height="758.49" filterUnits="userSpaceOnUse" color-interpolation-filters="sRGB">
<feFlood flood-opacity="0" result="BackgroundImageFix"/>
<feBlend mode="normal" in="SourceGraphic" in2="BackgroundImageFix" result="shape"/>
<feGaussianBlur stdDeviation="110.372" result="effect1_foregroundBlur_287_1004"/>
</filter>
<linearGradient id="paint0_linear_287_1004" x1="141.5" y1="64" x2="318" y2="370" gradientUnits="userSpaceOnUse">
<stop stop-color="#5A6D58"/>
<stop offset="1"/>
</linearGradient>
<clipPath id="clip0_287_1004">
<rect x="12" y="6" width="426.667" height="426.667" rx="112" fill="white"/>
</clipPath>
</defs>
</svg>
