<svg width="601" height="130" viewBox="0 0 601 130" fill="none" xmlns="http://www.w3.org/2000/svg">
<path d="M97.4 83.6009C97.4 111.301 76.5 129.201 48.8 129.201C21.3 129.201 0.5 111.401 0.5 83.9009C0.5 56.2009 21.4 38.3009 49.1 38.3009C76.6 38.2009 97.4 56.0009 97.4 83.6009ZM48.7 106.001C61.6 106.001 70.8 96.5009 70.8 83.5009C70.8 70.5009 62 61.5009 49 61.5009C36 61.5009 26.9 71.0009 26.9 84.0009C27 96.9009 35.8 106.001 48.7 106.001ZM136.2 127.001H110.4V40.5009H136.2V50.3009C143 42.5009 152.8 38.1009 163.1 38.2009C183.2 38.2009 194.4 51.7009 194.4 74.7009V126.901H168.7V78.8009C168.7 67.8009 162.5 61.0009 152.4 61.0009C142.4 61.0009 136.1 67.8009 136.1 78.6009L136.2 127.001Z" fill="#0074FF"/>
<path d="M276.698 116.799C270.498 124.599 261.298 129.299 249.398 129.299C223.798 129.299 207.898 109.399 207.898 83.7992C207.898 58.1992 224.498 38.2992 250.098 38.2992C261.798 38.2992 270.698 42.5992 276.798 49.9992V0.799225H302.598V126.899H276.798V116.799H276.698ZM255.498 106.399C268.598 106.399 277.598 96.5992 277.598 83.3992C277.598 70.5992 268.898 61.0992 256.198 61.0992C243.098 61.0992 234.198 70.5992 234.198 83.7992C234.298 96.4992 242.798 106.399 255.498 106.399ZM315.498 83.7992C315.498 56.4992 335.598 38.2992 362.498 38.2992C388.398 38.2992 407.398 56.5992 407.398 81.8992C407.398 84.8992 407.198 87.9992 406.998 90.7992H341.998C344.798 100.599 352.898 107.399 364.298 107.399C372.598 107.399 379.198 104.299 385.098 97.5992L400.998 112.999C390.798 124.199 378.198 129.299 363.098 129.299C335.898 129.299 315.498 111.099 315.498 83.7992ZM342.498 73.9992H380.698C378.598 65.4992 371.198 59.7992 361.798 59.7992C351.798 59.7992 345.098 65.5992 342.498 73.9992ZM465.398 105.799C473.498 105.799 480.298 101.499 485.298 94.8992L502.698 110.399C493.398 122.099 480.598 129.099 464.998 129.099C437.698 129.099 417.298 110.899 417.298 83.5992C417.298 56.2992 437.698 38.0992 464.998 38.0992C480.398 38.0992 493.598 44.4992 502.698 56.3992L485.298 72.4992C480.398 65.8992 473.598 61.6992 465.398 61.6992C452.598 61.6992 443.798 70.9992 443.798 83.7992C443.798 96.4992 452.598 105.799 465.398 105.799ZM549.398 89.7992L538.798 96.7992V126.999H512.998V0.699219H538.798V69.9992L593.398 32.9992H594.498V61.5992L571.598 76.7992L600.498 125.899V126.999H571.098L549.398 89.7992Z" fill="#000082"/>
</svg>
