<svg width="1632" height="650" viewBox="0 0 1632 650" fill="none" xmlns="http://www.w3.org/2000/svg">
<path d="M437.834 622.232L262.176 386.273L411.617 225.472C419.482 217.606 415.986 209.741 404.625 209.741H285.772C279.655 209.741 275.285 211.489 270.915 216.732L131.088 368.795V13.1088C131.088 5.2435 125.845 0 117.979 0H13.1088C5.24352 0 0 5.2435 0 13.1088V624.853C0 632.719 5.24352 637.962 13.1088 637.962H117.979C125.845 637.962 131.088 632.719 131.088 624.853V527.848L182.649 471.917L301.503 630.097C305.872 636.214 310.242 637.962 317.233 637.962H429.969C440.456 637.962 443.078 630.971 437.834 622.232Z" fill="white"/>
<path d="M894.417 209.741H789.547C781.681 209.741 776.438 214.985 776.438 222.85V450.943C776.438 483.278 751.094 526.974 695.163 526.974C661.954 526.974 620.006 507.748 620.006 438.708V222.85C620.006 214.985 614.762 209.741 606.897 209.741H502.027C494.161 209.741 488.918 214.985 488.918 222.85V464.926C488.918 579.41 557.084 649.323 652.341 649.323C703.902 649.323 747.598 619.61 776.438 578.536L779.933 624.853C780.807 632.719 785.177 637.962 793.042 637.962H894.417C902.282 637.962 907.526 632.719 907.526 624.853V222.85C907.526 214.985 902.282 209.741 894.417 209.741Z" fill="white"/>
<path d="M984.014 13.1088V624.853C984.014 632.719 989.258 637.962 997.123 637.962H1101.99C1109.86 637.962 1115.1 632.719 1115.1 624.853V13.1088C1115.1 5.2435 1109.86 0 1101.99 0H997.123C989.258 0 984.014 5.2435 984.014 13.1088Z" fill="white"/>
<path d="M1618.73 209.741H1523.47C1515.6 209.741 1511.23 214.985 1510.36 222.85L1507.74 258.681C1477.15 223.724 1436.08 200.128 1385.39 200.128C1266.54 200.128 1179.14 299.755 1179.14 424.726C1179.14 549.696 1266.54 649.323 1385.39 649.323C1437.83 649.323 1478.03 626.601 1507.74 593.392L1510.36 624.853C1511.23 632.719 1515.6 637.962 1523.47 637.962H1618.73C1626.59 637.962 1631.84 632.719 1631.84 624.853V222.85C1631.84 214.985 1626.59 209.741 1618.73 209.741ZM1401.99 529.596C1346.06 529.596 1304.99 484.152 1304.99 423.852C1304.99 364.425 1346.06 318.981 1401.99 318.981C1457.05 318.981 1498.13 367.047 1498.13 423.852C1498.13 480.657 1457.05 529.596 1401.99 529.596Z" fill="white"/>
</svg>
