<svg width="136" height="40" viewBox="0 0 136 40" fill="none" xmlns="http://www.w3.org/2000/svg">
<path d="M39.4744 19.7372C39.4744 15.0673 32.7175 7.31861 26.9525 4.28112C25.4234 3.47525 23.977 3 22.7372 3C21.2495 3 19.4311 3.68188 17.5507 4.81836C15.7324 5.91351 13.852 7.44259 12.1576 9.13698C10.4426 10.852 8.91351 12.753 7.7977 14.5921C6.68189 16.4311 6 18.2288 6 19.7165C6 25.6262 16.8069 36.4538 22.7372 36.4538C24.225 36.4538 26.0433 35.7719 27.903 34.6354C29.7214 33.5402 31.6224 32.0112 33.3168 30.3168C35.0112 28.6224 36.5609 26.7007 37.6561 24.8824C38.7925 23.0227 39.4744 21.225 39.4744 19.7372Z" fill="#494949"/>
<path d="M28.2336 14.2406C26.5185 12.4222 24.6795 10.7072 22.7578 9.11613C21.1461 7.79368 19.493 6.61588 17.84 5.68604C16.1249 6.7192 14.3479 8.16562 12.7568 9.75669L22.7372 19.737L28.2336 14.2406Z" fill="#40C9FF"/>
<path d="M26.7254 5.16966C25.2789 4.40512 23.9152 3.97119 22.7374 3.97119C21.3323 3.97119 19.6172 4.63242 17.8608 5.68624C19.5139 6.61608 21.167 7.81455 22.7787 9.11633L26.7254 5.16966Z" fill="#9661BA"/>
<path d="M27.9445 24.9443L22.7373 19.7372L12.757 9.75684C11.1453 11.3686 9.69884 13.1663 8.64502 14.902C11.9925 20.667 18.3361 26.4527 22.7787 30.0894L27.9445 24.9443Z" fill="#FFA233"/>
<path d="M27.6139 33.788C27.2213 33.4988 25.2996 32.135 22.7787 30.0687C18.3361 26.4526 11.9925 20.6669 8.64507 14.9019C7.61191 16.6376 6.95068 18.332 6.95068 19.7371C6.95068 25.3161 17.1583 35.5031 22.7167 35.5031C24.1631 35.5031 25.8575 34.8625 27.6139 33.788Z" fill="#FF5A7E"/>
<path d="M38.524 19.737C38.524 15.3357 32.1391 8.04162 26.7253 5.16943L22.7786 9.11611C24.7003 10.7072 26.5187 12.4222 28.2337 14.2406L22.7373 19.737L27.9444 24.9441L22.7993 30.0893C25.3202 32.1556 27.2212 33.5194 27.6345 33.8087C29.3495 32.7755 31.1266 31.3291 32.7383 29.738C34.35 28.1263 35.7965 26.3286 36.8503 24.5929C37.8834 22.8365 38.524 21.1421 38.524 19.737Z" fill="#FFD91D"/>
<path d="M47.7397 24.8823C47.5951 24.8203 47.4918 24.717 47.3884 24.6136C47.1818 24.3244 47.2025 23.9524 47.4504 23.7045C47.5744 23.5598 47.7604 23.4978 47.9464 23.4978C48.0497 23.4978 48.1736 23.5185 48.277 23.5598C49.3308 24.0144 50.4673 24.2624 51.6244 24.2417C53.6081 24.2417 54.5999 23.5805 54.5999 22.2787C54.5999 21.9481 54.4759 21.6381 54.2073 21.4315C53.9387 21.1835 53.6081 21.0182 53.2568 20.8943C52.8849 20.7703 52.3476 20.605 51.6657 20.419C50.9012 20.233 50.1573 20.0057 49.4341 19.7371C48.8762 19.5305 48.3803 19.1792 47.967 18.7453C47.5537 18.3114 47.3471 17.7121 47.3471 16.9889C47.3471 16.369 47.5124 15.7491 47.8637 15.2325C48.2356 14.6746 48.7522 14.2407 49.3721 13.9927C50.0333 13.6828 50.8392 13.5175 51.7484 13.5175C52.9055 13.4968 54.042 13.6828 55.1372 14.0754C55.4264 14.1581 55.6331 14.4473 55.6124 14.7573C55.6124 14.9433 55.5504 15.1086 55.4264 15.2532C55.3025 15.3978 55.1165 15.4805 54.9305 15.4805C54.8272 15.4805 54.7446 15.4598 54.6619 15.4185C53.7734 15.1086 52.8642 14.9639 51.9344 14.9639C51.0458 14.9639 50.3226 15.1292 49.7441 15.4805C49.1861 15.8111 48.8969 16.2864 48.8969 16.9063C48.8762 17.2782 49.0208 17.6501 49.2895 17.8981C49.5787 18.1667 49.9094 18.3733 50.302 18.4973C50.8392 18.6833 51.3764 18.8279 51.9344 18.9519C52.6782 19.1172 53.4014 19.3445 54.104 19.5925C54.6412 19.7991 55.1372 20.1504 55.5091 20.605C55.9017 21.0596 56.0877 21.6588 56.0877 22.444C56.0877 23.0639 55.9017 23.6631 55.5504 24.1591C55.1578 24.6756 54.6206 25.0889 54.0213 25.3369C53.2981 25.6261 52.5129 25.7708 51.7484 25.7501C50.3846 25.7088 49.0002 25.4195 47.7397 24.8823ZM58.278 25.3988C58.1333 25.2542 58.0507 25.0682 58.0507 24.8616V13.8274C58.0507 13.6208 58.1333 13.4142 58.278 13.2695C58.4226 13.1249 58.6086 13.0422 58.8152 13.0422C59.2491 13.0422 59.6004 13.3935 59.6004 13.8274V18.2494C59.993 17.7948 60.4683 17.4022 60.9848 17.1129C61.5221 16.8236 62.1213 16.679 62.7412 16.6996C63.3198 16.679 63.8777 16.8443 64.3736 17.1336C64.8282 17.4228 65.2001 17.8361 65.4274 18.332C65.6754 18.8486 65.7994 19.4272 65.7994 20.0057V24.8203C65.7994 25.0269 65.7167 25.2129 65.5721 25.3575C65.4274 25.5022 65.2208 25.5848 65.0142 25.5848C64.6009 25.5848 64.2496 25.2542 64.2496 24.8409V20.1711C64.2496 18.7866 63.6297 18.1047 62.3899 18.1047C61.8527 18.1047 61.3155 18.2494 60.8815 18.5593C60.4063 18.8899 59.9723 19.2825 59.6211 19.7371V24.8203C59.6211 25.0269 59.5384 25.2129 59.3938 25.3575C59.2491 25.5022 59.0425 25.5848 58.8359 25.5848C58.6292 25.6261 58.4226 25.5435 58.278 25.3988ZM72.6389 23.9731C73.0935 23.7458 73.4861 23.4358 73.8167 23.0639V21.6381H71.957C70.242 21.6381 69.3948 22.0927 69.3948 22.9812C69.3741 23.3532 69.5394 23.7045 69.808 23.9524C70.0767 24.2004 70.5519 24.3244 71.1925 24.3244C71.6884 24.345 72.1843 24.221 72.6389 23.9731ZM69.2295 25.3988C68.8162 25.2129 68.4649 24.9029 68.217 24.5103C67.969 24.1177 67.845 23.6425 67.845 23.1672C67.8244 22.382 68.1963 21.6175 68.8369 21.1629C69.4981 20.667 70.4693 20.419 71.7504 20.419H73.796V20.2744C73.796 19.5305 73.6101 18.9932 73.2381 18.6626C72.8662 18.332 72.2876 18.1667 71.5231 18.1667C71.1305 18.1667 70.7586 18.1874 70.3659 18.27C69.994 18.3527 69.6221 18.456 69.2501 18.58C69.1881 18.6006 69.1055 18.6006 69.0228 18.6213C68.6716 18.6213 68.4029 18.332 68.4029 17.9807C68.4029 17.6915 68.5682 17.4228 68.8575 17.3402C69.7874 16.9476 70.7792 16.7203 71.7917 16.7203C72.5769 16.7203 73.2381 16.8856 73.7754 17.1955C74.292 17.4848 74.7052 17.8981 74.9738 18.4353C75.2218 18.9519 75.3458 19.5098 75.3458 20.0677V24.8823C75.3458 25.0889 75.2631 25.2749 75.1185 25.4195C74.9738 25.5642 74.7672 25.6468 74.5606 25.6468C74.1473 25.6468 73.796 25.3162 73.796 24.9029V24.4483C72.9488 25.3162 71.8744 25.7295 70.5932 25.7295C70.1387 25.7088 69.6634 25.6055 69.2295 25.3988ZM78.1766 25.3988C78.032 25.2542 77.9494 25.0682 77.9494 24.8616V17.5675C77.9494 17.3609 78.032 17.1542 78.1766 17.0096C78.3213 16.8649 78.5073 16.7823 78.7139 16.7823C79.1478 16.7823 79.4991 17.1336 79.4991 17.5675V18.2907C80.2843 17.2369 81.1728 16.6996 82.1646 16.6996H82.2473C82.4539 16.6996 82.6399 16.7823 82.7845 16.9269C82.9292 17.0716 82.9912 17.2782 82.9912 17.4642C82.9912 17.6708 82.9085 17.8568 82.7639 18.0014C82.6192 18.1461 82.4126 18.208 82.206 18.208H82.1233C81.6067 18.208 81.0902 18.3527 80.6356 18.6006C80.181 18.8693 79.7884 19.2412 79.4991 19.6958V24.8616C79.4991 25.0682 79.4164 25.2542 79.2718 25.3988C79.1272 25.5435 78.9205 25.6261 78.7139 25.6261C78.5073 25.6261 78.3006 25.5435 78.1766 25.3988ZM90.244 20.481C90.2233 19.9851 90.0787 19.5098 89.81 19.0966C89.5827 18.7453 89.2521 18.456 88.8595 18.27C88.1363 17.9188 87.2891 17.9188 86.5866 18.27C86.194 18.456 85.884 18.7453 85.6567 19.0966C85.3881 19.5098 85.2435 20.0057 85.2435 20.481H90.244ZM84.8302 24.531C84.045 23.7458 83.6731 22.6506 83.6731 21.2042C83.6731 20.4397 83.8177 19.6751 84.1277 18.9726C84.4169 18.3114 84.8715 17.7328 85.4708 17.3402C86.0907 16.9269 86.8345 16.7203 87.7231 16.7203C88.5496 16.7203 89.2935 16.9269 89.8927 17.2989C90.4919 17.6708 90.9672 18.208 91.2771 18.8486C91.6077 19.5098 91.7524 20.233 91.7524 20.9769C91.773 21.3902 91.4424 21.7208 91.0292 21.7415H85.2021C85.2848 22.5267 85.5947 23.1466 86.0907 23.6011C86.5866 24.0351 87.2891 24.2624 88.1776 24.2624C88.5909 24.2624 89.0248 24.221 89.4174 24.1177C89.7687 24.0351 90.12 23.8904 90.4713 23.7251C90.5746 23.6838 90.6779 23.6631 90.7812 23.6631C90.9672 23.6631 91.1325 23.7251 91.2565 23.8491C91.4011 23.9731 91.4631 24.1384 91.4631 24.3244C91.4631 24.5723 91.3185 24.7789 91.0085 24.9443C90.12 25.4815 89.0868 25.7295 88.033 25.6881C86.6899 25.7088 85.6154 25.3162 84.8302 24.531ZM96.2156 24.9649C95.3271 24.469 94.5832 23.7458 94.0873 22.8366C93.5707 21.9068 93.3228 20.8323 93.3228 19.5925C93.3228 18.3527 93.5707 17.2782 94.0873 16.3484C94.5832 15.4598 95.3065 14.716 96.2156 14.22C97.1455 13.7241 98.1993 13.4555 99.2738 13.4762C99.9763 13.4555 100.658 13.5588 101.34 13.7448C101.96 13.9308 102.58 14.1994 103.158 14.53C103.406 14.654 103.551 14.9019 103.53 15.1705C103.53 15.5218 103.241 15.8111 102.869 15.8111H102.849C102.745 15.8111 102.642 15.7904 102.539 15.7491C102.063 15.5012 101.588 15.2945 101.072 15.1499C100.534 15.0052 99.9763 14.9433 99.4184 14.9433C98.4473 14.9433 97.6207 15.1499 96.9389 15.5425C96.2776 15.9144 95.7404 16.493 95.3891 17.1955C94.7072 18.704 94.7072 20.419 95.3891 21.9274C95.7197 22.6093 96.257 23.1879 96.9389 23.5805C97.6207 23.9731 98.4473 24.1797 99.4184 24.1797C99.9763 24.1797 100.534 24.1177 101.072 23.9731C101.567 23.8284 102.063 23.6218 102.539 23.3739C102.642 23.3325 102.745 23.3119 102.849 23.3119C103.035 23.3119 103.2 23.3738 103.344 23.4978C103.468 23.6218 103.53 23.7871 103.53 23.9524C103.551 24.221 103.406 24.469 103.158 24.593C102.58 24.9236 101.981 25.1922 101.34 25.3782C100.658 25.5641 99.9763 25.6468 99.2738 25.6468C98.1993 25.7088 97.1455 25.4608 96.2156 24.9649ZM105.741 25.3988C105.597 25.2542 105.514 25.0682 105.535 24.8616V13.8274C105.535 13.6208 105.617 13.4142 105.762 13.2695C105.907 13.1249 106.093 13.0422 106.299 13.0422C106.733 13.0422 107.084 13.3935 107.084 13.8274V18.2494C107.477 17.7948 107.952 17.4022 108.469 17.1129C109.006 16.8236 109.605 16.679 110.225 16.6996C110.804 16.679 111.362 16.8443 111.858 17.1336C112.312 17.4228 112.684 17.8568 112.912 18.332C113.159 18.8486 113.283 19.4272 113.283 20.0057V24.8203C113.283 25.0269 113.201 25.2129 113.056 25.3575C112.912 25.5022 112.705 25.5848 112.498 25.5848C112.085 25.5848 111.734 25.2542 111.734 24.8409V20.1711C111.734 18.7866 111.114 18.1047 109.874 18.1047C109.337 18.1047 108.8 18.2494 108.366 18.5593C107.89 18.8899 107.456 19.2825 107.105 19.7578V24.8409C107.105 25.0476 107.023 25.2335 106.878 25.3782C106.733 25.5228 106.527 25.6055 106.32 25.6055C106.072 25.6261 105.886 25.5435 105.741 25.3988ZM120.082 23.9731C120.536 23.7458 120.929 23.4358 121.259 23.0639V21.6381H119.4C117.685 21.6381 116.838 22.0927 116.838 22.9812C116.817 23.3532 116.982 23.7045 117.251 23.9524C117.519 24.2004 117.995 24.3244 118.635 24.3244C119.152 24.345 119.648 24.221 120.082 23.9731ZM116.693 25.3988C116.28 25.2129 115.928 24.9029 115.68 24.5103C115.432 24.0971 115.288 23.6425 115.308 23.1672C115.288 22.382 115.66 21.6175 116.3 21.1629C116.962 20.667 117.933 20.419 119.214 20.419H121.259V20.2744C121.259 19.5305 121.074 18.9932 120.702 18.6626C120.33 18.332 119.751 18.1667 118.987 18.1667C118.594 18.1667 118.222 18.1874 117.829 18.27C117.457 18.3527 117.085 18.456 116.714 18.58C116.652 18.6006 116.569 18.6006 116.486 18.6213C116.135 18.6213 115.866 18.332 115.866 17.9807C115.866 17.6915 116.032 17.4228 116.321 17.3402C117.251 16.9476 118.243 16.7203 119.255 16.7203C120.04 16.7203 120.702 16.8856 121.239 17.1955C121.755 17.4848 122.169 17.8981 122.437 18.4353C122.685 18.9519 122.83 19.5098 122.83 20.0677V24.8823C122.83 25.0889 122.747 25.2749 122.603 25.4195C122.458 25.5642 122.251 25.6468 122.045 25.6468C121.631 25.6468 121.28 25.3162 121.28 24.9029V24.4483C120.433 25.3162 119.379 25.7501 118.077 25.7295C117.602 25.7088 117.127 25.6055 116.693 25.3988ZM130 24.7996C130 25.0682 129.876 25.2542 129.607 25.3988C129.173 25.6055 128.678 25.7088 128.202 25.7088C126.549 25.7088 125.723 24.9649 125.723 23.4772V18.208H124.752C124.566 18.208 124.4 18.1461 124.276 18.0221C124.152 17.8981 124.09 17.7328 124.09 17.5468C124.07 17.1955 124.359 16.9063 124.71 16.8856H125.743V13.8274C125.743 13.4142 126.074 13.0629 126.508 13.0629C126.715 13.0629 126.921 13.1456 127.066 13.2902C127.21 13.4348 127.293 13.6208 127.293 13.8274V16.8856H129.215C129.587 16.8856 129.876 17.1955 129.876 17.5675C129.876 17.7328 129.814 17.8981 129.69 18.0221C129.566 18.1461 129.401 18.2287 129.215 18.208H127.293V23.3325C127.293 23.7664 127.396 24.0557 127.603 24.1797C127.851 24.3037 128.12 24.3657 128.388 24.3657C128.616 24.3657 128.843 24.3244 129.07 24.2624L129.215 24.221C129.277 24.2004 129.339 24.2004 129.421 24.2004C129.587 24.2004 129.731 24.2624 129.835 24.3863C129.917 24.4897 130 24.6343 130 24.7996Z" fill="#494949"/>
</svg>
