<svg width="1000" height="1000" viewBox="0 0 1000 1000" fill="none" xmlns="http://www.w3.org/2000/svg">
<g clip-path="url(#clip0_508_2209)">
<rect width="1000" height="1000" fill="white"/>
<rect width="1000" height="2033.82" fill="url(#paint0_linear_508_2209)"/>
<g filter="url(#filter0_f_508_2209)">
<circle cx="45.5" cy="813.5" r="109.5" fill="#0C25E8" fill-opacity="0.9"/>
</g>
<g filter="url(#filter1_f_508_2209)">
<ellipse cx="216.797" cy="173.525" rx="120.313" ry="187.722" transform="rotate(-12.7806 216.797 173.525)" fill="url(#paint1_radial_508_2209)" fill-opacity="0.9"/>
</g>
<g filter="url(#filter2_f_508_2209)">
<path d="M503.774 96.9572C510.416 200.021 471.85 293.61 411.5 297.5C351.15 301.389 283.143 176.063 276.5 72.9997C269.858 -30.0638 322.123 -78.7237 382.473 -82.6132C442.823 -86.5026 497.131 -6.10623 503.774 96.9572Z" fill="#6B14D1" fill-opacity="0.7"/>
</g>
<g filter="url(#filter3_f_508_2209)">
<path d="M605.758 748.922C605.758 867.774 521.788 984.298 396.897 984.298C272.005 984.298 170.761 887.949 170.761 769.097C170.761 650.244 272.005 553.896 396.897 553.896C521.788 553.896 605.758 630.069 605.758 748.922Z" fill="url(#paint2_linear_508_2209)" fill-opacity="0.9"/>
</g>
<path d="M562.871 720.849C562.871 839.279 466.865 935.285 348.435 935.285C230.006 935.285 134 839.279 134 720.849C134 602.42 230.006 506.414 348.435 506.414C466.865 506.414 562.871 602.42 562.871 720.849Z" fill="url(#paint3_linear_508_2209)"/>
<mask id="mask0_508_2209" style="mask-type:alpha" maskUnits="userSpaceOnUse" x="134" y="506" width="429" height="430">
<path d="M562.871 720.849C562.871 839.279 466.865 935.285 348.435 935.285C230.006 935.285 134 839.279 134 720.849C134 602.42 230.006 506.414 348.435 506.414C466.865 506.414 562.871 602.42 562.871 720.849Z" fill="url(#paint4_linear_508_2209)"/>
</mask>
<g mask="url(#mask0_508_2209)">
<g filter="url(#filter4_f_508_2209)">
<path fill-rule="evenodd" clip-rule="evenodd" d="M160.923 824.956C193.528 773.593 252.906 730.425 327.095 710.549C417.773 686.256 506.685 703.161 561.13 748.308C547.649 853.77 457.562 935.285 348.436 935.285C267.787 935.285 197.537 890.763 160.923 824.956Z" fill="url(#paint5_linear_508_2209)"/>
</g>
</g>
<g filter="url(#filter5_f_508_2209)">
<ellipse cx="305.714" cy="694.16" rx="91.3599" ry="88.248" transform="rotate(-16.3823 305.714 694.16)" fill="#341CB3" fill-opacity="0.9"/>
</g>
<mask id="mask1_508_2209" style="mask-type:alpha" maskUnits="userSpaceOnUse" x="134" y="506" width="429" height="430">
<path d="M562.871 720.849C562.871 839.279 466.865 935.285 348.435 935.285C230.006 935.285 134 839.279 134 720.849C134 602.42 230.006 506.414 348.435 506.414C466.865 506.414 562.871 602.42 562.871 720.849Z" fill="url(#paint6_linear_508_2209)"/>
</mask>
<g mask="url(#mask1_508_2209)">
<g filter="url(#filter6_f_508_2209)">
<path fill-rule="evenodd" clip-rule="evenodd" d="M549.881 794.522C521.353 872.505 448.834 929.293 362.371 934.84C353.473 918.738 348.436 900.387 348.436 880.911C348.436 817.043 402.61 765.269 469.438 765.269C500.32 765.269 528.5 776.325 549.881 794.522Z" fill="#49ADFF"/>
</g>
</g>
<mask id="mask2_508_2209" style="mask-type:alpha" maskUnits="userSpaceOnUse" x="134" y="506" width="429" height="430">
<path d="M562.871 720.849C562.871 839.279 466.865 935.285 348.435 935.285C230.006 935.285 134 839.279 134 720.849C134 602.42 230.006 506.414 348.435 506.414C466.865 506.414 562.871 602.42 562.871 720.849Z" fill="url(#paint7_linear_508_2209)"/>
</mask>
<g mask="url(#mask2_508_2209)">
<g filter="url(#filter7_f_508_2209)">
<path fill-rule="evenodd" clip-rule="evenodd" d="M141.093 665.948C165.344 574.117 248.983 506.414 348.436 506.414C444.525 506.414 525.854 569.617 553.117 656.718C546.299 662.302 527.742 651.329 502.19 636.222C464.245 613.787 410.877 582.232 357.626 582.232C304.885 582.232 245.721 615.796 201.956 640.623C172.414 657.383 149.889 670.161 141.093 665.948Z" fill="url(#paint8_linear_508_2209)"/>
</g>
</g>
<g filter="url(#filter8_f_508_2209)">
<path fill-rule="evenodd" clip-rule="evenodd" d="M400.228 512.71C493.635 535.877 562.87 620.277 562.87 720.849C562.87 728.03 562.517 735.129 561.828 742.13C498.998 769.836 422.334 743.085 385.544 678.405C353.775 622.552 361.513 555.599 400.228 512.71Z" fill="url(#paint9_linear_508_2209)"/>
</g>
<g filter="url(#filter9_f_508_2209)">
<path d="M559.807 720.849C559.807 837.587 465.173 932.222 348.435 932.222C231.698 932.222 137.063 837.587 137.063 720.849C137.063 604.112 231.698 509.477 348.435 509.477C465.173 509.477 559.807 604.112 559.807 720.849Z" stroke="url(#paint10_linear_508_2209)" stroke-width="6.12673"/>
</g>
<g filter="url(#filter10_f_508_2209)">
<ellipse cx="413.533" cy="523.262" rx="55.9064" ry="30.6336" transform="rotate(19.1286 413.533 523.262)" fill="#BA27A0"/>
</g>
<g filter="url(#filter11_f_508_2209)">
<ellipse cx="732.91" cy="1044.52" rx="258.088" ry="246.601" fill="#14039E"/>
</g>
<circle cx="763.543" cy="1063.67" r="227.455" fill="url(#paint11_linear_508_2209)"/>
<mask id="mask3_508_2209" style="mask-type:alpha" maskUnits="userSpaceOnUse" x="536" y="836" width="455" height="456">
<circle cx="763.545" cy="1063.67" r="227.455" fill="url(#paint12_linear_508_2209)"/>
</mask>
<g mask="url(#mask3_508_2209)">
<g filter="url(#filter12_f_508_2209)">
<path fill-rule="evenodd" clip-rule="evenodd" d="M582.026 1200.76C553.192 1162.64 536.09 1115.15 536.09 1063.67C536.09 1023.24 546.64 985.268 565.138 952.365L839.362 1200.76H582.026Z" fill="url(#paint13_linear_508_2209)"/>
</g>
</g>
<g filter="url(#filter13_f_508_2209)">
<ellipse cx="290.254" cy="-15.3988" rx="238.176" ry="234.347" fill="#E26AC5"/>
</g>
<circle cx="227.455" cy="-34.5453" r="227.455" fill="url(#paint14_linear_508_2209)"/>
<g filter="url(#filter14_f_508_2209)">
<circle cx="227.455" cy="-34.5453" r="224.391" stroke="url(#paint15_linear_508_2209)" stroke-width="6.12673"/>
</g>
<g filter="url(#filter15_b_508_2209)">
<circle cx="286.5" cy="294.5" r="240.5" fill="url(#paint16_linear_508_2209)" fill-opacity="0.33"/>
</g>
<g filter="url(#filter16_b_508_2209)">
<circle cx="704.5" cy="693.5" r="240.5" fill="url(#paint17_linear_508_2209)" fill-opacity="0.33"/>
</g>
<path d="M613.947 638.363C613.55 639.327 612.87 640.233 612.077 640.913C604.426 648.621 596.719 656.272 589.238 664.092C584.817 668.74 580.114 673.217 575.637 677.864C569.516 684.381 562.998 690.502 556.878 696.963C550.247 703.82 543.39 710.394 536.816 717.365C536.532 717.591 536.362 717.818 536.192 718.101C535.342 718.045 535.172 717.365 535.059 716.685C535.002 716.288 535.002 715.835 535.002 715.438V697.019C534.946 694.582 535.966 692.315 537.666 690.615C541.52 686.648 545.487 682.851 549.284 678.827C554.498 673.33 559.995 668.116 565.209 662.619C569.289 658.369 573.483 654.231 577.563 650.038C582.154 645.391 586.688 640.8 591.221 636.096C592.922 634.283 595.415 633.603 597.795 634.226C602.159 635.076 606.58 636.04 610.944 636.89C612.077 637.06 613.097 637.57 613.947 638.363Z" fill="white"/>
<path d="M617.232 661.032C614.399 664.036 611.395 666.87 608.505 669.76C607.485 670.723 606.521 671.743 605.614 672.82C604.821 673.727 603.914 674.52 602.951 675.257C598.077 680.131 593.203 684.948 588.386 689.822C586.119 692.089 583.625 694.186 581.415 696.509C580.338 697.643 579.432 698.833 578.298 699.91C572.744 705.067 567.53 710.621 562.09 715.891C560.56 717.308 558.576 718.158 556.536 718.215C550.189 718.555 543.898 718.442 537.607 718.442C537.097 718.442 536.53 718.612 536.19 718.215C536.36 717.932 536.53 717.648 536.814 717.478C543.388 710.507 550.245 703.99 556.876 697.076C563.053 690.615 569.514 684.495 575.635 677.977C580.055 673.274 584.702 668.853 589.236 664.206C596.773 656.385 604.424 648.734 612.075 641.027C612.925 640.347 613.549 639.44 613.945 638.477C615.135 639.383 615.929 640.687 616.156 642.16C616.722 644.824 617.006 647.601 617.686 650.208C618.139 652.021 618.366 653.835 618.819 655.648C619.272 657.575 618.649 659.615 617.232 661.032Z" fill="#D9D9D9"/>
<path d="M866.877 690.729C866.65 690.389 866.367 690.049 866.14 689.709C865.573 688.859 865.573 688.745 866.537 688.462C866.99 688.349 867.444 688.179 867.84 688.009C869.824 687.215 871.411 685.685 872.204 683.702C874.188 679.168 872.147 673.897 867.614 671.914C867.047 671.687 866.423 671.46 865.857 671.347C864.383 671.064 862.91 670.894 861.436 670.894H851.349C849.988 670.894 849.988 670.894 849.988 672.254V700.59C849.988 702.404 849.818 702.233 851.689 702.233H854.749C856.732 702.233 856.506 702.46 856.506 700.42V690.332C856.506 689.312 856.846 689.142 857.696 689.482C858.546 689.766 859.283 690.332 859.736 691.126C860.303 691.862 860.87 692.656 861.38 693.393C863.136 696.056 864.893 698.776 866.65 701.553C866.877 701.95 867.104 702.347 867.727 702.347H875.094C872.261 698.21 869.654 694.356 866.877 690.729ZM863.363 684.042C861.21 684.495 859.056 684.665 856.846 684.495C856.336 684.495 856.336 684.042 856.336 683.702V680.188V676.674C856.336 676.221 856.449 675.937 856.959 675.937C858.943 675.767 860.926 675.881 862.853 676.277C865.063 676.731 866.537 678.884 866.083 681.095C866.027 681.435 865.913 681.831 865.743 682.171C865.233 683.022 864.383 683.758 863.363 684.042Z" fill="white"/>
<path d="M820.803 702.176H802.838C801.307 702.176 801.421 702.346 801.421 700.76V671.517C801.421 670.95 801.648 670.78 802.158 670.836H820.123C821.313 670.836 821.313 670.836 821.086 672.027C820.973 672.82 820.746 673.67 820.633 674.52C820.293 676.334 820.293 676.05 818.876 676.05H808.788C808.222 676.05 807.938 676.22 807.938 676.844V682.454C807.938 683.191 808.335 683.248 808.958 683.248H817.686C818.139 683.248 818.366 683.418 818.366 683.871V687.668C818.366 688.235 818.139 688.405 817.629 688.405H809.185C808.108 688.405 808.052 688.462 808.052 689.538V695.546C808.052 696.679 808.052 696.679 809.298 696.679H820.236C821.993 696.679 821.823 696.509 821.823 698.266C821.823 699.286 821.766 700.193 821.823 701.213C821.88 702.006 821.54 702.176 820.803 702.176Z" fill="white"/>
<path d="M722.815 702.177H705.077C703.943 702.177 703.943 702.176 703.943 700.986V671.517C703.943 671.007 704.17 670.837 704.623 670.893H723.042C723.552 670.893 723.835 671.063 723.722 671.63C723.495 672.877 723.269 674.124 723.042 675.37C722.929 676.05 722.419 676.05 721.909 676.05H712.898C710.461 676.05 710.461 676.05 710.461 678.487V682.114C710.461 683.191 710.517 683.248 711.594 683.248H719.302C721.002 683.248 720.888 683.191 720.888 684.778C720.888 685.741 720.832 686.648 720.888 687.612C720.888 688.292 720.662 688.462 720.038 688.462H712.218C710.631 688.462 710.631 688.462 710.631 689.992V695.206C710.631 696.793 710.631 696.793 712.274 696.793H723.042C724.289 696.793 724.289 696.793 724.289 698.096V700.76C724.289 702.29 724.459 702.177 722.815 702.177Z" fill="white"/>
<path d="M776.995 670.836C775.918 673.443 775.068 675.88 774.104 678.261C771.157 685.798 768.21 693.335 765.263 700.873C765.15 701.156 765.037 701.383 764.923 701.666C764.81 702.176 764.357 702.516 763.847 702.403C763.847 702.403 763.847 702.403 763.79 702.403C762.43 702.346 761.126 702.346 759.709 702.403C758.916 702.46 758.576 702.176 758.293 701.383C757.046 697.983 755.742 694.639 754.439 691.295C752.002 684.891 749.565 678.544 747.128 672.197C746.901 671.857 746.845 671.403 746.788 671.006C747.015 670.666 747.411 670.836 747.751 670.836H752.965C753.589 670.723 754.155 671.176 754.269 671.8C754.836 673.557 755.516 675.257 756.082 676.957C757.726 681.604 759.539 686.138 760.9 690.899C761.07 691.579 761.296 692.259 761.41 692.939C761.466 693.165 761.523 693.505 761.92 693.562C762.26 692.825 762.543 692.032 762.656 691.182C763.903 686.761 765.83 682.454 767.417 678.147C768.154 675.994 769.06 673.953 769.797 671.913C769.91 671.233 770.591 670.836 771.214 670.95C773.027 670.893 774.841 670.836 776.995 670.836Z" fill="white"/>
<path d="M616.553 718.158C616.043 718.328 615.533 718.385 615.023 718.328H581.076C580.452 718.385 579.829 718.272 579.262 718.158C578.469 717.818 578.242 717.365 578.809 716.628C579.036 716.345 579.319 716.061 579.546 715.835C583.173 712.434 586.686 708.977 590.37 705.69C592.127 704.104 593.771 702.347 595.641 700.873C596.774 699.74 598.588 699.626 599.834 700.647C600.175 700.817 600.458 701.1 600.685 701.327C604.255 704.67 607.712 708.014 611.339 711.301C613.096 712.888 614.683 714.531 616.496 716.061C616.723 716.231 616.893 716.458 617.063 716.685C617.516 717.422 617.346 717.818 616.553 718.158Z" fill="white"/>
<path d="M677.646 697.643C677.306 698.89 677.079 700.08 676.796 701.327C676.739 701.837 676.286 702.233 675.776 702.233H675.719H659.114C658.264 702.233 658.264 702.177 658.264 701.1V672.31C658.264 670.894 658.094 670.894 659.681 670.894H663.988C664.611 670.894 664.838 671.12 664.781 671.687V695.83C664.838 696.793 664.838 696.85 665.858 696.85H676.796C677.589 696.736 677.759 697.076 677.646 697.643Z" fill="white"/>
<path d="M158.952 285.027C158.952 288.032 157.68 290.691 155.599 292.772C153.287 295.084 149.935 295.662 149.935 297.627C149.935 300.286 154.212 299.477 158.316 303.58C161.032 306.297 162.709 309.88 162.709 314.042C162.709 322.249 156.119 328.781 147.854 328.781C139.589 328.781 133 322.255 133 314.048C133 309.886 134.676 306.303 137.393 303.586C141.496 299.482 145.774 300.292 145.774 297.633C145.774 295.668 142.421 295.09 140.109 292.778C138.028 290.697 136.757 288.038 136.757 284.917C136.757 278.906 141.67 274.051 147.681 274.051C148.837 274.051 149.877 274.224 150.744 274.224C152.305 274.224 153.114 273.531 153.114 272.433C153.114 271.797 152.825 270.988 152.825 270.121C152.825 268.155 154.501 266.537 156.524 266.537C158.547 266.537 160.165 268.213 160.165 270.236C160.165 272.375 158.489 273.357 157.218 273.82C156.177 274.167 155.368 274.629 155.368 275.669C155.368 277.629 158.952 279.536 158.952 285.027ZM157.796 314.048C157.796 308.326 153.576 303.702 147.854 303.702C142.132 303.702 137.913 308.326 137.913 314.048C137.913 319.712 142.132 324.394 147.854 324.394C153.576 324.394 157.796 319.706 157.796 314.048ZM154.386 284.911C154.386 281.27 151.438 278.264 147.854 278.264C144.271 278.264 141.323 281.27 141.323 284.911C141.323 288.553 144.271 291.558 147.854 291.558C151.438 291.558 154.386 288.553 154.386 284.911Z" fill="white"/>
<path d="M179.759 274.623C181.608 274.623 182.995 276.01 182.995 277.744C182.995 279.478 181.666 280.865 179.816 280.865C177.909 280.865 176.869 279.651 174.961 279.651C173.112 279.651 171.667 280.98 171.667 283.235V301.441C171.667 302.828 170.569 303.927 169.181 303.927C167.852 303.927 166.754 302.828 166.754 301.441V276.935C166.754 275.547 167.852 274.449 169.181 274.449C171.667 274.449 171.204 276.819 173.69 276.819C176.059 276.819 176.926 274.623 179.759 274.623Z" fill="white"/>
<path d="M185.136 289.188C185.136 280.46 191.147 274.16 199.412 274.16C206.984 274.16 212.995 279.709 212.995 287.28C212.995 289.072 211.839 290.286 210.163 290.286H191.378C190.569 290.286 190.28 290.575 190.28 291.211C190.28 292.656 191.436 295.314 193.17 297.048C194.904 298.782 197.273 299.823 200.626 299.823C203.111 299.823 205.307 298.898 206.984 297.684C207.504 297.28 208.082 297.048 208.66 297.048C209.874 297.048 210.856 298.147 210.856 299.303C210.856 299.996 210.625 300.574 210.047 301.094C207.619 303.117 204.209 304.215 200.51 304.215C191.551 304.215 185.136 297.742 185.136 289.188ZM205.596 280.865C203.978 279.246 201.897 278.437 199.412 278.437C196.927 278.437 194.615 279.42 192.939 281.096C191.609 282.425 190.684 284.159 190.684 285.315C190.684 285.893 191.031 286.124 191.783 286.124H206.81C207.504 286.124 207.851 285.893 207.851 285.315C207.851 283.928 206.752 282.021 205.596 280.865Z" fill="white"/>
<path d="M217.965 289.188C217.965 280.46 223.976 274.16 232.241 274.16C239.813 274.16 245.824 279.709 245.824 287.28C245.824 289.072 244.668 290.286 242.992 290.286H224.207C223.398 290.286 223.109 290.575 223.109 291.211C223.109 292.656 224.265 295.314 225.999 297.048C227.733 298.782 230.103 299.823 233.455 299.823C235.94 299.823 238.137 298.898 239.813 297.684C240.333 297.28 240.911 297.048 241.489 297.048C242.703 297.048 243.685 298.147 243.685 299.303C243.685 299.996 243.454 300.574 242.876 301.094C240.449 303.117 237.038 304.215 233.339 304.215C224.381 304.215 217.965 297.742 217.965 289.188ZM238.426 280.865C236.807 279.246 234.726 278.437 232.241 278.437C229.756 278.437 227.444 279.42 225.768 281.096C224.438 282.425 223.514 284.159 223.514 285.315C223.514 285.893 223.86 286.124 224.612 286.124H239.639C240.333 286.124 240.68 285.893 240.68 285.315C240.68 283.928 239.582 282.021 238.426 280.865Z" fill="white"/>
<path d="M274.781 303.926C273.394 303.926 272.295 302.828 272.295 301.441V285.72C272.295 281.616 269.059 278.495 264.897 278.495C260.678 278.495 257.441 281.674 257.441 285.72V301.441C257.441 302.828 256.343 303.926 254.956 303.926C253.626 303.926 252.528 302.828 252.528 301.441V276.877C252.528 275.547 253.626 274.449 254.898 274.449C257.326 274.449 257.21 276.645 258.482 276.645C259.753 276.645 261.487 274.16 265.995 274.16C272.295 274.16 277.208 279.42 277.208 285.72V301.441C277.208 302.828 276.11 303.926 274.781 303.926Z" fill="white"/>
<path d="M307.957 303.927C306.569 303.927 305.471 302.829 305.471 301.442V285.72C305.471 281.617 302.235 278.496 298.073 278.496C293.854 278.496 290.617 281.675 290.617 285.72V301.442C290.617 302.829 289.519 303.927 288.132 303.927C286.802 303.927 285.704 302.829 285.704 301.442V262.485C285.704 261.098 286.802 260 288.132 260C289.519 260 290.617 261.098 290.617 262.485V275.259C290.617 275.952 290.906 276.357 291.657 276.357C292.929 276.357 294.663 274.161 299.171 274.161C305.471 274.161 310.384 279.42 310.384 285.72V301.442C310.384 302.829 309.286 303.927 307.957 303.927Z" fill="white"/>
<path d="M317.14 289.188C317.14 280.807 323.844 274.16 332.283 274.16C340.722 274.16 347.426 280.807 347.426 289.188C347.426 297.569 340.722 304.215 332.283 304.215C323.85 304.215 317.14 297.569 317.14 289.188ZM342.519 289.188C342.519 283.35 338.184 278.553 332.289 278.553C326.451 278.553 322.116 283.35 322.116 289.188C322.116 295.025 326.451 299.823 332.289 299.823C338.184 299.823 342.519 295.025 342.519 289.188Z" fill="white"/>
<path d="M356.617 274.449C358.004 274.449 359.102 275.547 359.102 276.935V292.656C359.102 296.76 362.339 299.881 366.501 299.881C370.72 299.881 373.957 296.702 373.957 292.656V276.935C373.957 275.547 375.055 274.449 376.442 274.449C377.771 274.449 378.87 275.547 378.87 276.935V301.499C378.87 302.828 377.771 303.927 376.5 303.927C374.072 303.927 374.188 301.73 372.916 301.73C371.645 301.73 369.911 304.216 365.402 304.216C359.102 304.216 354.189 298.956 354.189 292.656V276.935C354.195 275.547 355.288 274.449 356.617 274.449Z" fill="white"/>
<path d="M387.599 302.077C386.5 301.383 385.749 300.69 385.749 299.36C385.749 298.089 386.732 297.106 387.945 297.106C389.39 297.106 390.026 297.973 391.24 298.609C392.743 299.476 394.477 299.938 396.615 299.938C400.545 299.938 402.511 298.147 402.511 295.95C402.511 292.829 399.621 292.251 395.69 291.211C390.835 289.939 386.154 288.494 386.154 282.888C386.154 277.917 389.968 274.16 396.731 274.16C399.39 274.16 401.875 274.854 403.84 276.068C404.534 276.472 405.227 277.339 405.227 278.322C405.227 279.593 404.187 280.691 402.857 280.691C401.99 280.691 401.297 280.113 400.43 279.535C399.563 278.957 398.291 278.437 396.557 278.437C392.685 278.437 391.009 280.113 391.009 282.368C391.009 285.315 393.841 286.009 397.887 286.991C402.626 288.147 407.308 289.65 407.308 295.372C407.308 300.343 403.609 304.215 396.5 304.215C393.032 304.215 389.911 303.522 387.599 302.077Z" fill="white"/>
<path d="M411.93 289.188C411.93 280.46 417.941 274.16 426.206 274.16C433.778 274.16 439.789 279.709 439.789 287.28C439.789 289.072 438.633 290.286 436.957 290.286H418.172C417.363 290.286 417.074 290.575 417.074 291.211C417.074 292.656 418.23 295.314 419.964 297.048C421.698 298.782 424.067 299.823 427.42 299.823C429.905 299.823 432.101 298.898 433.778 297.684C434.298 297.28 434.876 297.048 435.454 297.048C436.668 297.048 437.65 298.147 437.65 299.303C437.65 299.996 437.419 300.574 436.841 301.094C434.413 303.117 431.003 304.215 427.304 304.215C418.351 304.215 411.93 297.742 411.93 289.188ZM432.396 280.865C430.778 279.246 428.697 278.437 426.212 278.437C423.726 278.437 421.414 279.42 419.738 281.096C418.409 282.425 417.484 284.159 417.484 285.315C417.484 285.893 417.831 286.124 418.582 286.124H433.61C434.304 286.124 434.65 285.893 434.65 285.315C434.65 283.928 433.552 282.021 432.396 280.865Z" fill="white"/>
</g>
<defs>
<filter id="filter0_f_508_2209" x="-184" y="584" width="459" height="459" filterUnits="userSpaceOnUse" color-interpolation-filters="sRGB">
<feFlood flood-opacity="0" result="BackgroundImageFix"/>
<feBlend mode="normal" in="SourceGraphic" in2="BackgroundImageFix" result="shape"/>
<feGaussianBlur stdDeviation="60" result="effect1_foregroundBlur_508_2209"/>
</filter>
<filter id="filter1_f_508_2209" x="-16.7012" y="-120.495" width="466.995" height="588.039" filterUnits="userSpaceOnUse" color-interpolation-filters="sRGB">
<feFlood flood-opacity="0" result="BackgroundImageFix"/>
<feBlend mode="normal" in="SourceGraphic" in2="BackgroundImageFix" result="shape"/>
<feGaussianBlur stdDeviation="54.5" result="effect1_foregroundBlur_508_2209"/>
</filter>
<filter id="filter2_f_508_2209" x="110.929" y="-247.749" width="558.586" height="710.337" filterUnits="userSpaceOnUse" color-interpolation-filters="sRGB">
<feFlood flood-opacity="0" result="BackgroundImageFix"/>
<feBlend mode="normal" in="SourceGraphic" in2="BackgroundImageFix" result="shape"/>
<feGaussianBlur stdDeviation="82.5" result="effect1_foregroundBlur_508_2209"/>
</filter>
<filter id="filter3_f_508_2209" x="84.9866" y="468.121" width="606.545" height="601.951" filterUnits="userSpaceOnUse" color-interpolation-filters="sRGB">
<feFlood flood-opacity="0" result="BackgroundImageFix"/>
<feBlend mode="normal" in="SourceGraphic" in2="BackgroundImageFix" result="shape"/>
<feGaussianBlur stdDeviation="42.8871" result="effect1_foregroundBlur_508_2209"/>
</filter>
<filter id="filter4_f_508_2209" x="38.3883" y="576.914" width="645.276" height="480.906" filterUnits="userSpaceOnUse" color-interpolation-filters="sRGB">
<feFlood flood-opacity="0" result="BackgroundImageFix"/>
<feBlend mode="normal" in="SourceGraphic" in2="BackgroundImageFix" result="shape"/>
<feGaussianBlur stdDeviation="61.2673" result="effect1_foregroundBlur_508_2209"/>
</filter>
<filter id="filter5_f_508_2209" x="92.0397" y="483.103" width="427.348" height="422.115" filterUnits="userSpaceOnUse" color-interpolation-filters="sRGB">
<feFlood flood-opacity="0" result="BackgroundImageFix"/>
<feBlend mode="normal" in="SourceGraphic" in2="BackgroundImageFix" result="shape"/>
<feGaussianBlur stdDeviation="61.2673" result="effect1_foregroundBlur_508_2209"/>
</filter>
<filter id="filter6_f_508_2209" x="225.901" y="642.734" width="446.514" height="414.64" filterUnits="userSpaceOnUse" color-interpolation-filters="sRGB">
<feFlood flood-opacity="0" result="BackgroundImageFix"/>
<feBlend mode="normal" in="SourceGraphic" in2="BackgroundImageFix" result="shape"/>
<feGaussianBlur stdDeviation="61.2673" result="effect1_foregroundBlur_508_2209"/>
</filter>
<filter id="filter7_f_508_2209" x="67.5721" y="432.893" width="559.065" height="307.386" filterUnits="userSpaceOnUse" color-interpolation-filters="sRGB">
<feFlood flood-opacity="0" result="BackgroundImageFix"/>
<feBlend mode="normal" in="SourceGraphic" in2="BackgroundImageFix" result="shape"/>
<feGaussianBlur stdDeviation="36.7604" result="effect1_foregroundBlur_508_2209"/>
</filter>
<filter id="filter8_f_508_2209" x="224.875" y="371.795" width="478.909" height="522.111" filterUnits="userSpaceOnUse" color-interpolation-filters="sRGB">
<feFlood flood-opacity="0" result="BackgroundImageFix"/>
<feBlend mode="normal" in="SourceGraphic" in2="BackgroundImageFix" result="shape"/>
<feGaussianBlur stdDeviation="70.4574" result="effect1_foregroundBlur_508_2209"/>
</filter>
<filter id="filter9_f_508_2209" x="89.5812" y="461.995" width="517.709" height="517.709" filterUnits="userSpaceOnUse" color-interpolation-filters="sRGB">
<feFlood flood-opacity="0" result="BackgroundImageFix"/>
<feBlend mode="normal" in="SourceGraphic" in2="BackgroundImageFix" result="shape"/>
<feGaussianBlur stdDeviation="22.2094" result="effect1_foregroundBlur_508_2209"/>
</filter>
<filter id="filter10_f_508_2209" x="257.136" y="386.382" width="312.794" height="273.76" filterUnits="userSpaceOnUse" color-interpolation-filters="sRGB">
<feFlood flood-opacity="0" result="BackgroundImageFix"/>
<feBlend mode="normal" in="SourceGraphic" in2="BackgroundImageFix" result="shape"/>
<feGaussianBlur stdDeviation="51.3113" result="effect1_foregroundBlur_508_2209"/>
</filter>
<filter id="filter11_f_508_2209" x="375.262" y="698.365" width="715.295" height="692.32" filterUnits="userSpaceOnUse" color-interpolation-filters="sRGB">
<feFlood flood-opacity="0" result="BackgroundImageFix"/>
<feBlend mode="normal" in="SourceGraphic" in2="BackgroundImageFix" result="shape"/>
<feGaussianBlur stdDeviation="49.7796" result="effect1_foregroundBlur_508_2209"/>
</filter>
<filter id="filter12_f_508_2209" x="398.239" y="814.514" width="578.975" height="524.094" filterUnits="userSpaceOnUse" color-interpolation-filters="sRGB">
<feFlood flood-opacity="0" result="BackgroundImageFix"/>
<feBlend mode="normal" in="SourceGraphic" in2="BackgroundImageFix" result="shape"/>
<feGaussianBlur stdDeviation="68.9257" result="effect1_foregroundBlur_508_2209"/>
</filter>
<filter id="filter13_f_508_2209" x="-75.0524" y="-376.876" width="730.612" height="722.953" filterUnits="userSpaceOnUse" color-interpolation-filters="sRGB">
<feFlood flood-opacity="0" result="BackgroundImageFix"/>
<feBlend mode="normal" in="SourceGraphic" in2="BackgroundImageFix" result="shape"/>
<feGaussianBlur stdDeviation="63.5648" result="effect1_foregroundBlur_508_2209"/>
</filter>
<filter id="filter14_f_508_2209" x="-30.6336" y="-292.634" width="516.176" height="516.176" filterUnits="userSpaceOnUse" color-interpolation-filters="sRGB">
<feFlood flood-opacity="0" result="BackgroundImageFix"/>
<feBlend mode="normal" in="SourceGraphic" in2="BackgroundImageFix" result="shape"/>
<feGaussianBlur stdDeviation="15.3168" result="effect1_foregroundBlur_508_2209"/>
</filter>
<filter id="filter15_b_508_2209" x="0.190479" y="8.19048" width="572.619" height="572.619" filterUnits="userSpaceOnUse" color-interpolation-filters="sRGB">
<feFlood flood-opacity="0" result="BackgroundImageFix"/>
<feGaussianBlur in="BackgroundImage" stdDeviation="22.9048"/>
<feComposite in2="SourceAlpha" operator="in" result="effect1_backgroundBlur_508_2209"/>
<feBlend mode="normal" in="SourceGraphic" in2="effect1_backgroundBlur_508_2209" result="shape"/>
</filter>
<filter id="filter16_b_508_2209" x="418.19" y="407.19" width="572.619" height="572.619" filterUnits="userSpaceOnUse" color-interpolation-filters="sRGB">
<feFlood flood-opacity="0" result="BackgroundImageFix"/>
<feGaussianBlur in="BackgroundImage" stdDeviation="22.9048"/>
<feComposite in2="SourceAlpha" operator="in" result="effect1_backgroundBlur_508_2209"/>
<feBlend mode="normal" in="SourceGraphic" in2="effect1_backgroundBlur_508_2209" result="shape"/>
</filter>
<linearGradient id="paint0_linear_508_2209" x1="146.135" y1="-3.42315e-06" x2="814.01" y2="2033.82" gradientUnits="userSpaceOnUse">
<stop stop-color="#ED7BDA"/>
<stop offset="0.493684" stop-color="#5C0F9F"/>
<stop offset="0.947917" stop-color="#1901A7"/>
</linearGradient>
<radialGradient id="paint1_radial_508_2209" cx="0" cy="0" r="1" gradientUnits="userSpaceOnUse" gradientTransform="translate(234.919 54.4924) rotate(90.6379) scale(174.644 111.946)">
<stop stop-color="#FF98E6"/>
<stop offset="0.901042" stop-color="#ED74D0"/>
</radialGradient>
<linearGradient id="paint2_linear_508_2209" x1="547.654" y1="915.553" x2="408.823" y2="599.469" gradientUnits="userSpaceOnUse">
<stop stop-color="#1B0280"/>
<stop offset="1" stop-color="#1B0280" stop-opacity="0.5"/>
</linearGradient>
<linearGradient id="paint3_linear_508_2209" x1="273.383" y1="527.858" x2="412.766" y2="935.285" gradientUnits="userSpaceOnUse">
<stop stop-color="#FF32C9"/>
<stop offset="1" stop-color="#278AFF"/>
</linearGradient>
<linearGradient id="paint4_linear_508_2209" x1="273.383" y1="527.858" x2="412.766" y2="935.285" gradientUnits="userSpaceOnUse">
<stop stop-color="#FF32C9"/>
<stop offset="1" stop-color="#278AFF"/>
</linearGradient>
<linearGradient id="paint5_linear_508_2209" x1="298.656" y1="697.874" x2="455.654" y2="915.373" gradientUnits="userSpaceOnUse">
<stop stop-color="#2226AF"/>
<stop offset="1" stop-color="#4DABFE"/>
</linearGradient>
<linearGradient id="paint6_linear_508_2209" x1="273.383" y1="527.858" x2="412.766" y2="935.285" gradientUnits="userSpaceOnUse">
<stop stop-color="#FF32C9"/>
<stop offset="1" stop-color="#278AFF"/>
</linearGradient>
<linearGradient id="paint7_linear_508_2209" x1="273.383" y1="527.858" x2="412.766" y2="935.285" gradientUnits="userSpaceOnUse">
<stop stop-color="#FF32C9"/>
<stop offset="1" stop-color="#278AFF"/>
</linearGradient>
<linearGradient id="paint8_linear_508_2209" x1="376.006" y1="496.458" x2="347.613" y2="764.148" gradientUnits="userSpaceOnUse">
<stop stop-color="#EC49C6"/>
<stop offset="1" stop-color="#821B94"/>
</linearGradient>
<linearGradient id="paint9_linear_508_2209" x1="487.818" y1="563.852" x2="416.595" y2="684.089" gradientUnits="userSpaceOnUse">
<stop stop-color="#A530D3"/>
<stop offset="1" stop-color="#5B22B2"/>
</linearGradient>
<linearGradient id="paint10_linear_508_2209" x1="305.548" y1="506.414" x2="470.97" y2="916.905" gradientUnits="userSpaceOnUse">
<stop stop-color="#FF2EC4"/>
<stop offset="1" stop-color="#41ABFF"/>
</linearGradient>
<linearGradient id="paint11_linear_508_2209" x1="751.289" y1="851.533" x2="603.482" y2="1181.61" gradientUnits="userSpaceOnUse">
<stop stop-color="#5749E1"/>
<stop offset="1" stop-color="#2343C4"/>
<stop offset="1" stop-color="#7590FF"/>
</linearGradient>
<linearGradient id="paint12_linear_508_2209" x1="751.291" y1="851.533" x2="603.484" y2="1181.61" gradientUnits="userSpaceOnUse">
<stop stop-color="#5749E1"/>
<stop offset="1" stop-color="#2343C4"/>
<stop offset="1" stop-color="#7590FF"/>
</linearGradient>
<linearGradient id="paint13_linear_508_2209" x1="504.69" y1="991.682" x2="792.646" y2="1200.76" gradientUnits="userSpaceOnUse">
<stop stop-color="#4A67FB"/>
<stop offset="1" stop-color="#435BD8" stop-opacity="0.5"/>
</linearGradient>
<linearGradient id="paint14_linear_508_2209" x1="425.807" y1="59.6531" x2="154.7" y2="-107.3" gradientUnits="userSpaceOnUse">
<stop stop-color="#9C1F9E"/>
<stop offset="1" stop-color="#4C0E85"/>
</linearGradient>
<linearGradient id="paint15_linear_508_2209" x1="438.827" y1="24.4245" x2="161.592" y2="-108.066" gradientUnits="userSpaceOnUse">
<stop stop-color="#B617B2"/>
<stop offset="1" stop-color="#30047C"/>
</linearGradient>
<linearGradient id="paint16_linear_508_2209" x1="46" y1="54" x2="623.243" y2="246.699" gradientUnits="userSpaceOnUse">
<stop stop-color="white" stop-opacity="0.8"/>
<stop offset="1" stop-color="white" stop-opacity="0.2"/>
</linearGradient>
<linearGradient id="paint17_linear_508_2209" x1="464" y1="453" x2="1041.24" y2="645.699" gradientUnits="userSpaceOnUse">
<stop stop-color="white" stop-opacity="0.8"/>
<stop offset="1" stop-color="white" stop-opacity="0.2"/>
</linearGradient>
<clipPath id="clip0_508_2209">
<rect width="1000" height="1000" fill="white"/>
</clipPath>
</defs>
</svg>
