<svg width="498" height="213" viewBox="0 0 498 213" fill="none" xmlns="http://www.w3.org/2000/svg">
<g clip-path="url(#clip0_7_30)">
<path d="M84.2605 90.565H162.99V193.461C157.723 195.176 152.454 196.723 147.138 198.148C141.822 199.574 136.264 200.734 130.488 201.653C124.713 202.57 118.696 203.369 112.437 203.9C106.178 204.432 99.4603 204.722 92.3558 204.722C78.9189 204.957 65.5525 202.729 52.9182 198.148C41.8308 194.027 31.8886 187.317 23.9201 178.574C15.75 169.307 9.67536 158.385 6.11029 146.555C1.8229 132.273 -0.231228 117.413 0.0206449 102.503C-0.188547 88.1425 2.10938 73.8562 6.81106 60.286C10.9975 48.2205 17.8346 37.2464 26.8198 28.1705C36.0664 19.0907 47.1833 12.1385 59.3945 7.79928C73.6662 2.8354 88.7021 0.430289 103.81 0.694705C114.245 0.695648 124.648 1.83001 134.838 4.07783C144.366 6.14913 153.678 9.11026 162.652 12.9223L148.758 46.5603C142.079 43.2969 135.094 40.7065 127.903 38.8273C119.955 36.7268 111.765 35.6787 103.544 35.7101C94.9954 35.589 86.5136 37.2344 78.63 40.5431C71.405 43.6639 64.9477 48.3233 59.7086 54.1965C54.2704 60.4032 50.1587 67.6563 47.6261 75.5101C44.7167 84.4907 43.2884 93.8848 43.3971 103.324C43.3017 112.339 44.2669 121.334 46.2728 130.124C47.9614 137.681 51.0871 144.842 55.4797 151.219C59.5938 157.071 65.1222 161.784 71.5495 164.922C78.9235 168.333 86.9888 169.988 95.1107 169.755C100.165 169.815 105.218 169.548 110.238 168.957C114.346 168.401 118.237 167.773 121.765 167.048V125.581H84.2605V90.565Z" fill="#626B71"/>
<path d="M244.68 205.088H203.334V3.57471H317.08V38.0343H244.729V89.192H312.054V123.531H244.68V205.088Z" fill="#626B71"/>
<path d="M439.427 35.709C432.053 35.5695 424.75 37.176 418.114 40.397C411.885 43.5355 406.52 48.1479 402.479 53.8328C398.006 60.286 394.77 67.5129 392.934 75.1465C390.666 84.3642 389.57 93.8311 389.672 103.323C389.553 112.81 390.518 122.28 392.547 131.548C394.165 139.012 397.209 146.094 401.512 152.403C405.46 157.967 410.791 162.407 416.979 165.283C424.058 168.373 431.73 169.874 439.452 169.681C447.582 169.671 455.686 168.764 463.618 166.975C472.551 164.919 481.354 162.337 489.982 159.242L493.074 191.454C488.269 194.962 482.864 197.567 477.126 199.138C472.867 200.415 468.543 201.464 464.173 202.279C459.727 203.077 455.184 203.73 450.519 204.116C445.855 204.503 440.854 204.721 435.513 204.721C421.898 205.059 408.357 202.592 395.737 197.471C384.956 192.902 375.421 185.826 367.923 176.834C360.309 167.412 354.76 156.494 351.636 144.79C347.92 131.211 346.098 117.184 346.223 103.106C346.088 89.0991 348.176 75.1599 352.409 61.8074C356.129 49.9152 362.221 38.8998 370.315 29.426C378.336 20.2949 388.315 13.092 399.506 8.35397C412.154 3.1223 425.744 0.555629 439.427 0.814424C449.427 0.81743 459.388 2.06756 469.078 4.53587C478.876 6.99677 488.404 10.4291 497.52 14.7819L483.94 48.879C476.625 45.3753 469.122 42.2775 461.466 39.5996C454.391 37.0756 446.94 35.7604 439.427 35.709Z" fill="#626B71"/>
</g>
<defs>
<clipPath id="clip0_7_30">
<rect width="498" height="211.65" fill="white" transform="translate(0 0.675049)"/>
</clipPath>
</defs>
</svg>
