<svg width="136" height="40" viewBox="0 0 136 40" fill="none" xmlns="http://www.w3.org/2000/svg">
<path d="M16.77 19.94C16.77 17.05 19.12 14.71 22.02 14.71C24.92 14.71 27.27 17.05 27.27 19.94C27.27 22.83 24.92 25.17 22.02 25.17C19.12 25.17 16.77 22.83 16.77 19.94Z" fill="#00AA13"/>
<path d="M22 6.002C14.27 6.002 8 12.242 8 19.902C8 25.682 11.5 30.602 16.59 32.802C16.9482 32.9535 17.3356 33.0234 17.7241 33.0065C18.1126 32.9897 18.4926 32.8866 18.8363 32.7047C19.18 32.5228 19.4789 32.2666 19.7113 31.9548C19.9438 31.643 20.1039 31.2834 20.18 30.902C20.3003 30.3085 20.2104 29.6916 19.9258 29.1571C19.6412 28.6225 19.1796 28.2036 18.62 27.972V27.971C15.47 26.651 13.25 23.551 13.25 19.931C13.25 15.111 17.17 11.211 22 11.211C26.83 11.211 30.75 15.111 30.75 19.931C30.75 23.551 28.53 26.651 25.38 27.971V27.973C24.8156 28.2009 24.3486 28.6188 24.0597 29.1546C23.7708 29.6904 23.6783 30.3103 23.7982 30.907C23.918 31.5038 24.2426 32.0399 24.7159 32.4227C25.1892 32.8054 25.7814 33.0107 26.39 33.003C26.7365 33.0003 27.0793 32.9314 27.4 32.8C32.49 30.65 36 25.72 36 19.9C36 12.2 29.73 6 22 6" fill="#00AA13"/>
<path d="M76.5998 18.4401C76.5998 15.9201 74.8598 14.0401 72.1598 14.0401C69.4498 14.0401 67.7098 15.9201 67.7098 18.4401C67.7098 20.9601 69.4498 22.8401 72.1598 22.8401C74.8698 22.8401 76.5998 20.9601 76.5998 18.4401V18.4401ZM63.3998 18.4401C63.3998 13.8101 67.0798 10.2301 72.1998 10.2301C77.3498 10.2301 80.9998 13.8101 80.9998 18.4401C80.9998 23.0701 77.3498 26.6501 72.1998 26.6501C67.0798 26.6501 63.3998 23.0701 63.3998 18.4401V18.4401ZM79.4998 30.0401H81.8598C83.1298 30.0401 83.5698 29.5701 83.5698 28.4601V10.2601H87.9298V28.4601C87.9298 32.3001 86.3698 33.9401 82.2198 33.9401H79.5098V29.9801L79.4998 30.0401ZM56.3998 19.3401C56.3998 21.2601 54.4398 22.7901 51.9598 22.7901C49.1498 22.7901 47.3998 21.1401 47.3998 18.3901C47.3998 15.8501 49.2698 14.1101 52.1398 14.1101C54.4198 14.1101 56.4098 15.7001 56.4098 17.5001V19.3301L56.3998 19.3401ZM56.5778 10.2701V12.1001H56.5178C55.3878 10.9201 53.5278 10.2701 51.3078 10.2701C46.5378 10.2701 43.0078 13.8101 43.0078 18.3901C43.0078 23.1401 46.6278 26.6301 51.4478 26.6301C53.6078 26.6301 55.4178 25.9501 56.5178 24.7401H56.5778V26.3201C56.5778 28.4401 54.7378 30.0101 52.3078 30.0101C49.8578 30.0101 48.4278 29.3221 47.1978 28.1401L44.3578 30.8601C46.2578 32.8701 49.1278 34.0101 52.3978 34.0101C57.3778 34.0101 60.7778 30.6801 60.7778 26.2601V10.2601H56.5678L56.5778 10.2701ZM99.0778 13.7901C101.398 13.7901 103.018 14.9901 103.228 16.8101H94.8678C95.1038 14.9901 96.7278 13.7901 99.0778 13.7901ZM99.5278 23.1801C96.9178 23.1801 94.8678 21.5001 94.8078 19.8701H107.508V18.6401C107.508 13.9801 104.268 10.2801 99.0278 10.2801C94.0778 10.2801 90.5478 13.7401 90.5478 18.5201C90.5478 23.4501 94.2778 26.7001 99.7478 26.7001C103.108 26.7001 105.508 25.1001 106.768 23.5601L103.818 21.5001C102.508 22.7201 101.318 23.1801 99.5678 23.1801H99.5278ZM110.068 6.08008H114.278L114.301 16.8801H114.358L121.398 10.3001H127.038L119.738 17.1801L127.008 26.7501H121.978L116.988 19.8301H116.931L114.281 22.3301V26.7601H110.071L110.068 6.08008Z" fill="black"/>
</svg>
