<svg width="1025" height="319" viewBox="0 0 1025 319" fill="none" xmlns="http://www.w3.org/2000/svg">
<path d="M478.289 199.42V199.419V126.917C478.289 62.6514 478.289 51.1175 479.115 37.9354C479.937 23.5165 483.233 16.5127 494.356 14.4533C499.297 13.6307 501.771 13.2195 504.652 13.2195C506.301 13.2195 507.949 12.3939 507.949 10.7457C507.949 8.27504 505.889 7.44946 501.356 7.44946C489 7.45246 463.048 8.68631 460.989 8.68631C458.929 8.68631 432.977 7.45249 414.439 7.45249C409.906 7.44946 407.847 8.27504 407.847 10.7457C407.847 12.3939 409.495 13.2195 411.143 13.2195C414.851 13.2195 421.854 13.6307 425.147 14.4533C438.744 17.3383 442.04 23.9278 442.862 37.9354C443.688 51.1175 443.688 62.6514 443.688 126.917V135.565C443.688 137.628 442.451 138.039 441.214 138.039H266.548V153.695H441.214C442.451 153.695 443.688 154.517 443.688 156.166V199.419V199.421C443.688 238.966 443.688 271.511 441.629 288.812C439.981 300.76 437.918 309.82 429.681 311.472C425.973 312.294 421.029 313.12 417.321 313.12C414.851 313.12 414.028 314.354 414.028 315.59C414.028 318.061 416.088 318.884 420.617 318.884C432.977 318.884 458.929 317.65 460.989 317.65C463.048 317.65 489 318.884 511.656 318.884C516.19 318.884 518.249 317.65 518.249 315.59C518.249 314.354 517.427 313.12 514.953 313.12C511.245 313.12 502.182 312.294 496.415 311.472C484.056 309.82 481.585 300.76 480.348 288.812C478.289 271.511 478.289 238.966 478.289 199.42Z" fill="#23235F"/>
<path d="M173.432 261.872C197.326 206.67 252.528 62.9014 261.591 33.2409C263.65 27.0597 265.298 21.2927 265.298 17.5882C265.298 14.2889 264.062 10.1701 259.943 8.11065C254.998 6.46253 248.82 6.4625 244.29 6.4625C241.816 6.4625 239.757 6.05123 239.757 3.99182C239.757 1.52112 242.228 0.695557 248.82 0.695557C265.298 0.695557 284.248 1.93241 289.192 1.93241C291.663 1.93241 309.378 0.695557 321.323 0.695557C325.853 0.695557 328.327 1.52112 328.327 3.58054C328.327 5.63995 326.679 6.4625 323.382 6.4625C320.5 6.4625 311.437 6.46253 303.608 11.4069C298.255 15.1145 292.074 22.1183 280.951 50.1305C276.421 61.6644 255.824 111.099 234.812 161.768C209.685 221.915 191.147 266.405 181.673 286.588C170.136 311.307 168.491 317.9 164.369 317.9C159.425 317.9 157.365 312.13 149.539 292.358L48.6126 39.8304C39.5491 16.7626 33.371 12.2295 18.952 8.11065C12.7708 6.46253 5.76997 6.4625 3.29627 6.4625C0.825565 6.4625 0 5.22868 0 3.58054C0 1.10984 4.12185 0.695557 10.7114 0.695557C30.486 0.695557 53.9682 1.93241 58.9127 1.93241C63.0313 1.93241 81.5663 0.695557 97.222 0.695557C104.637 0.695557 108.344 1.52112 108.344 3.58054C108.344 5.63995 107.108 6.4625 104.226 6.4625C99.6956 6.4625 92.2775 6.8768 88.5701 8.52196C84.0399 10.5814 83.2172 13.8776 83.2172 16.7626C83.2172 22.1183 88.1585 34.8891 94.3369 50.9531L173.432 261.872Z" fill="#E97124"/>
<path d="M575.471 136.424C580.251 125.378 591.302 96.6036 593.114 90.6661C593.524 89.4326 593.856 88.2757 593.856 87.5335C593.856 86.8749 593.607 86.0491 592.782 85.638C591.795 85.3069 590.556 85.3069 589.648 85.3069C589.155 85.3069 588.745 85.2233 588.745 84.8156C588.745 84.3208 589.238 84.1536 590.556 84.1536C593.856 84.1536 597.649 84.4045 598.636 84.4045C599.133 84.4045 602.677 84.1536 605.069 84.1536C605.973 84.1536 606.47 84.3208 606.47 84.732C606.47 85.1466 606.139 85.3069 605.48 85.3069C604.903 85.3069 603.088 85.3069 601.521 86.2965C600.451 87.0387 599.216 88.443 596.989 94.046C596.082 96.3562 591.961 106.249 587.754 116.388C582.725 128.427 579.015 137.334 577.121 141.369C574.811 146.32 574.48 147.637 573.655 147.637C572.668 147.637 572.254 146.48 570.687 142.525L550.491 91.9867C548.675 87.3697 547.44 86.4638 544.554 85.638C543.315 85.3069 541.914 85.3069 541.42 85.3069C540.927 85.3069 540.761 85.063 540.761 84.732C540.761 84.2372 541.586 84.1536 542.905 84.1536C546.863 84.1536 551.56 84.4045 552.551 84.4045C553.376 84.4045 557.086 84.1536 560.22 84.1536C561.7 84.1536 562.442 84.3208 562.442 84.732C562.442 85.1466 562.197 85.3069 561.621 85.3069C560.713 85.3069 559.229 85.3906 558.487 85.7216C557.579 86.1328 557.414 86.7913 557.414 87.3697C557.414 88.443 558.404 91.0006 559.64 94.2132L575.471 136.424Z" fill="#000054"/>
<path d="M624.959 108.064C624.959 95.1994 624.959 92.8927 624.793 90.255C624.627 87.4535 623.968 86.1328 621.249 85.5544C620.589 85.3941 619.185 85.3105 618.446 85.3105C618.115 85.3105 617.787 85.1433 617.787 84.8122C617.787 84.3174 618.198 84.1537 619.105 84.1537C621 84.1537 623.226 84.1537 625.041 84.2373L628.42 84.4011C629 84.4011 645.404 84.4011 647.302 84.3175C648.869 84.2373 650.187 84.07 650.843 83.9063C651.258 83.8261 651.589 83.4951 651.999 83.4951C652.248 83.4951 652.331 83.8261 652.331 84.2373C652.331 84.8122 651.916 85.8018 651.668 88.112C651.589 88.9379 651.423 92.5652 651.258 93.5548C651.175 93.966 651.009 94.4573 650.681 94.4573C650.187 94.4573 650.022 94.0496 650.022 93.3875C650.022 92.8126 649.939 91.4083 649.525 90.4222C648.948 89.1016 648.127 88.112 643.672 87.6172C642.274 87.4535 633.283 87.3698 632.376 87.3698C632.048 87.3698 631.882 87.6172 631.882 88.1957V110.949C631.882 111.524 631.965 111.775 632.376 111.775C633.449 111.775 643.592 111.775 645.487 111.608C647.468 111.444 648.621 111.28 649.363 110.451C649.939 109.792 650.267 109.381 650.598 109.381C650.843 109.381 651.009 109.549 651.009 110.04C651.009 110.535 650.598 111.939 650.35 114.66C650.187 116.305 650.022 119.361 650.022 119.936C650.022 120.594 650.022 121.504 649.446 121.504C649.031 121.504 648.869 121.173 648.869 120.762C648.869 119.936 648.869 119.11 648.538 118.04C648.207 116.887 647.468 115.483 644.248 115.152C642.025 114.908 633.863 114.744 632.462 114.744C632.048 114.744 631.882 114.988 631.882 115.319V122.573C631.882 125.378 631.799 134.94 631.882 136.672C632.131 142.358 633.366 143.432 641.449 143.432C643.592 143.432 647.219 143.432 649.363 142.526C651.506 141.616 652.497 139.971 653.073 136.588C653.238 135.682 653.401 135.354 653.815 135.354C654.308 135.354 654.308 136.013 654.308 136.588C654.308 137.247 653.649 142.857 653.238 144.585C652.659 146.728 651.999 146.728 648.786 146.728C642.602 146.728 638.067 146.568 634.854 146.484C631.637 146.317 629.659 146.237 628.42 146.237C628.254 146.237 626.853 146.236 625.124 146.317C623.475 146.317 621.576 146.484 620.341 146.484C619.433 146.484 619.023 146.317 619.023 145.825C619.023 145.574 619.185 145.327 619.682 145.327C620.424 145.327 621.414 145.167 622.156 145C623.806 144.669 624.217 142.857 624.545 140.466C624.959 137.003 624.959 130.487 624.959 122.573V108.064Z" fill="#000054"/>
<path d="M683.68 135.271C683.846 142.027 684.671 144.173 686.897 144.835C688.464 145.25 690.275 145.327 691.017 145.327C691.432 145.327 691.677 145.494 691.677 145.825C691.677 146.32 691.183 146.484 690.192 146.484C685.495 146.484 682.196 146.236 681.454 146.236C680.712 146.236 677.25 146.484 673.54 146.484C672.715 146.484 672.222 146.4 672.222 145.825C672.222 145.494 672.467 145.327 672.881 145.327C673.54 145.327 675.024 145.25 676.263 144.835C678.32 144.257 678.735 141.867 678.735 134.365L678.817 87.1221C678.817 83.906 679.062 83 679.721 83C680.384 83 681.785 84.8119 682.61 85.6377C683.846 87.0385 696.132 100.314 708.826 113.918C716.988 122.657 725.976 132.713 728.612 135.434L727.708 93.551C727.625 88.1953 727.049 86.3799 724.492 85.7214C723.008 85.3903 721.113 85.3067 720.453 85.3067C719.874 85.3067 719.791 85.0628 719.791 84.7318C719.791 84.237 720.453 84.1533 721.441 84.1533C725.15 84.1533 729.109 84.4008 730.013 84.4008C730.921 84.4008 733.644 84.1533 737.023 84.1533C737.931 84.1533 738.507 84.237 738.507 84.7318C738.507 85.0628 738.176 85.3067 737.599 85.3067C737.189 85.3067 736.609 85.3067 735.622 85.5541C732.902 86.1325 732.571 87.9479 732.571 92.8924L732.405 141.208C732.405 146.647 732.243 147.062 731.663 147.062C731.004 147.062 730.013 146.153 725.644 141.783C724.737 140.957 712.868 128.838 704.126 119.441C694.562 109.134 685.247 98.7463 682.61 95.7776L683.68 135.271Z" fill="#000054"/>
<path d="M783.298 122.573C783.298 130.486 783.298 136.999 783.712 140.466C783.957 142.853 784.451 144.668 786.925 144.999C788.081 145.163 789.893 145.327 790.636 145.327C791.129 145.327 791.295 145.578 791.295 145.825C791.295 146.236 790.884 146.484 789.976 146.484C785.441 146.484 780.247 146.236 779.837 146.236C779.422 146.236 774.228 146.484 771.757 146.484C770.849 146.484 770.439 146.32 770.439 145.825C770.439 145.578 770.601 145.327 771.098 145.327C771.84 145.327 772.827 145.163 773.569 144.999C775.219 144.668 775.633 142.853 775.961 140.466C776.375 136.999 776.375 130.486 776.375 122.573V87.6971L764.171 87.8643C759.06 87.9479 757.082 88.5229 755.764 90.5021C754.856 91.9028 754.608 92.4812 754.359 93.0596C754.111 93.7182 753.866 93.882 753.534 93.882C753.289 93.882 753.124 93.6346 753.124 93.1398C753.124 92.3175 754.773 85.2231 754.939 84.568C755.101 84.0697 755.433 83 755.764 83C756.34 83 757.165 83.8258 759.388 83.9896C761.779 84.237 764.913 84.4042 765.9 84.4042H796.82C799.457 84.4042 801.355 84.237 802.674 83.9896C803.909 83.8258 804.651 83.5784 804.983 83.5784C805.393 83.5784 805.393 84.0697 805.393 84.568C805.393 87.0385 805.145 92.7286 805.145 93.6346C805.145 94.3768 804.9 94.7078 804.568 94.7078C804.154 94.7078 803.992 94.4604 803.909 93.3036L803.826 92.3976C803.578 89.9236 801.6 88.0316 793.687 87.8643L783.298 87.6971V122.573Z" fill="#000054"/>
<path d="M824.126 108.064C824.126 95.1993 824.126 92.8926 823.962 90.2549C823.795 87.4534 823.14 86.1327 820.419 85.5543C819.76 85.3906 818.356 85.3104 817.614 85.3104C817.283 85.3104 816.955 85.1432 816.955 84.8121C816.955 84.3173 817.366 84.1536 818.276 84.1536C821.983 84.1536 827.011 84.401 827.753 84.401C828.496 84.401 833.447 84.1536 835.918 84.1536C836.824 84.1536 837.235 84.3173 837.235 84.8121C837.235 85.1432 836.907 85.3104 836.576 85.3104C836.001 85.3104 835.506 85.3906 834.517 85.5543C832.29 85.8853 831.632 87.3697 831.464 90.2549C831.301 92.8926 831.301 95.1993 831.301 108.064V119.605C831.301 131.476 833.938 136.588 837.486 139.971C841.524 143.762 845.232 144.505 849.932 144.505C854.96 144.505 859.912 142.114 862.873 138.571C866.672 133.87 867.658 126.859 867.658 118.368V108.064C867.658 95.1993 867.658 92.8926 867.494 90.2549C867.327 87.4534 866.672 86.1327 863.95 85.5543C863.288 85.3906 861.887 85.3104 861.145 85.3104C860.814 85.3104 860.487 85.1432 860.487 84.8121C860.487 84.3173 860.898 84.1536 861.804 84.1536C865.515 84.1536 870.051 84.401 870.543 84.401C871.121 84.401 874.996 84.1536 877.47 84.1536C878.379 84.1536 878.791 84.3173 878.791 84.8121C878.791 85.1432 878.456 85.3104 878.128 85.3104C877.554 85.3104 877.055 85.3906 876.066 85.5543C873.843 86.0526 873.184 87.3697 873.02 90.2549C872.853 92.8926 872.853 95.1993 872.853 108.064V116.887C872.853 125.79 871.867 135.682 865.267 141.532C859.33 146.811 853.148 147.637 848.284 147.637C845.482 147.637 837.151 147.31 831.301 141.783C827.262 137.912 824.126 132.135 824.126 120.103V108.064Z" fill="#000054"/>
<path d="M910.145 115.235C910.145 115.646 910.309 115.977 910.724 116.228C911.957 116.967 915.752 117.545 919.382 117.545C921.358 117.545 923.665 117.298 925.564 115.977C928.449 114.002 930.592 109.548 930.592 103.28C930.592 92.9763 925.153 86.7948 916.327 86.7948C913.856 86.7948 911.629 87.0387 910.804 87.2896C910.392 87.4534 910.145 87.7809 910.145 88.2792V115.235ZM903.549 108.064C903.549 95.2028 903.549 92.8926 903.385 90.2549C903.218 87.4534 902.559 86.1327 899.842 85.5543C899.179 85.3906 897.779 85.3069 897.037 85.3069C896.705 85.3069 896.378 85.1466 896.378 84.8121C896.378 84.3208 896.789 84.1536 897.699 84.1536C901.406 84.1536 906.601 84.4045 907.013 84.4045C907.919 84.4045 914.187 84.1536 916.741 84.1536C921.937 84.1536 927.456 84.6484 931.829 87.7809C933.892 89.2653 937.519 93.3073 937.519 98.9939C937.519 105.095 934.962 111.197 927.54 118.04C934.303 126.699 939.909 134.034 944.69 139.146C949.143 143.843 952.687 144.752 954.746 145.083C956.314 145.327 957.471 145.327 957.962 145.327C958.377 145.327 958.705 145.578 958.705 145.825C958.705 146.32 958.213 146.484 956.729 146.484H950.875C946.258 146.484 944.195 146.069 942.052 144.919C938.509 143.02 935.62 138.982 930.923 132.797C927.456 128.26 923.585 122.741 921.937 120.598C921.606 120.267 921.358 120.103 920.863 120.103L910.724 119.936C910.309 119.936 910.145 120.186 910.145 120.598V122.573C910.145 130.487 910.145 136.999 910.556 140.466C910.804 142.853 911.298 144.668 913.772 144.999C914.929 145.167 916.741 145.327 917.483 145.327C917.978 145.327 918.142 145.578 918.142 145.825C918.142 146.236 917.731 146.484 916.825 146.484C912.288 146.484 907.096 146.236 906.685 146.236C906.601 146.236 901.406 146.484 898.932 146.484C898.026 146.484 897.615 146.32 897.615 145.825C897.615 145.578 897.779 145.327 898.273 145.327C899.016 145.327 900.005 145.167 900.747 144.999C902.396 144.668 902.807 142.853 903.138 140.466C903.549 136.999 903.549 130.487 903.549 122.573V108.064Z" fill="#000054"/>
<path d="M971.92 108.064C971.92 95.1994 971.92 92.8927 971.753 90.255C971.586 87.4535 970.927 86.1328 968.209 85.5544C967.551 85.3941 966.146 85.3105 965.404 85.3105C965.073 85.3105 964.746 85.1433 964.746 84.8122C964.746 84.3174 965.157 84.1537 966.066 84.1537C967.958 84.1537 970.185 84.1537 972 84.2373L975.384 84.4011C975.959 84.4011 992.364 84.4011 994.263 84.3175C995.824 84.2373 997.148 84.07 997.806 83.9063C998.217 83.8261 998.548 83.4951 998.96 83.4951C999.207 83.4951 999.291 83.8261 999.291 84.2373C999.291 84.8122 998.876 85.8018 998.632 88.112C998.548 88.9379 998.381 92.5652 998.217 93.5548C998.134 93.966 997.974 94.4573 997.642 94.4573C997.148 94.4573 996.98 94.0496 996.98 93.3875C996.98 92.8126 996.9 91.4083 996.489 90.4222C995.911 89.1016 995.085 88.112 990.635 87.6172C989.231 87.4535 980.248 87.3698 979.339 87.3698C979.008 87.3698 978.84 87.6172 978.84 88.1957V110.949C978.84 111.524 978.924 111.775 979.339 111.775C980.408 111.775 990.548 111.775 992.447 111.608C994.426 111.444 995.58 111.28 996.322 110.451C996.9 109.792 997.231 109.381 997.559 109.381C997.806 109.381 997.974 109.549 997.974 110.04C997.974 110.535 997.559 111.939 997.308 114.66C997.148 116.305 996.98 119.361 996.98 119.936C996.98 120.594 996.98 121.504 996.402 121.504C995.991 121.504 995.824 121.173 995.824 120.762C995.824 119.936 995.824 119.11 995.496 118.04C995.169 116.887 994.426 115.483 991.21 115.152C988.984 114.908 980.823 114.744 979.422 114.744C979.008 114.744 978.84 114.988 978.84 115.319V122.573C978.84 125.378 978.764 134.94 978.84 136.672C979.091 142.358 980.328 143.432 988.409 143.432C990.548 143.432 994.179 143.432 996.322 142.526C998.465 141.616 999.458 139.971 1000.03 136.588C1000.19 135.682 1000.36 135.354 1000.77 135.354C1001.27 135.354 1001.27 136.013 1001.27 136.588C1001.27 137.247 1000.61 142.857 1000.19 144.585C999.618 146.728 998.96 146.728 995.747 146.728C989.562 146.728 985.025 146.568 981.813 146.484C978.596 146.317 976.621 146.237 975.384 146.237C975.216 146.237 973.812 146.236 972.084 146.317C970.436 146.317 968.54 146.484 967.3 146.484C966.394 146.484 965.983 146.317 965.983 145.825C965.983 145.574 966.146 145.327 966.641 145.327C967.383 145.327 968.373 145.167 969.115 145C970.763 144.669 971.178 142.857 971.505 140.466C971.92 137.003 971.92 130.487 971.92 122.573V108.064Z" fill="#000054"/>
<path d="M590.967 207.758C590.967 215.672 590.967 222.188 591.381 225.651C591.626 228.042 592.123 229.853 594.594 230.184C595.75 230.348 597.562 230.509 598.304 230.509C598.798 230.509 598.963 230.763 598.963 231.01C598.963 231.418 598.553 231.669 597.645 231.669C593.11 231.669 587.916 231.418 587.505 231.418C587.091 231.418 581.897 231.669 579.426 231.669C578.518 231.669 578.107 231.505 578.107 231.01C578.107 230.763 578.269 230.509 578.766 230.509C579.509 230.509 580.495 230.348 581.237 230.184C582.887 229.853 583.301 228.042 583.629 225.651C584.043 222.188 584.043 215.672 584.043 207.758V199.103C584.043 198.772 583.795 198.608 583.546 198.608H548.592C548.343 198.608 548.095 198.688 548.095 199.103V207.758C548.095 215.672 548.095 222.188 548.509 225.651C548.754 228.042 549.247 229.853 551.722 230.184C552.879 230.348 554.69 230.509 555.432 230.509C555.926 230.509 556.092 230.763 556.092 231.01C556.092 231.418 555.681 231.669 554.773 231.669C550.238 231.669 545.044 231.418 544.633 231.418C544.219 231.418 539.028 231.669 536.554 231.669C535.646 231.669 535.236 231.505 535.236 231.01C535.236 230.763 535.401 230.509 535.895 230.509C536.637 230.509 537.623 230.348 538.366 230.184C540.015 229.853 540.43 228.042 540.757 225.651C541.172 222.188 541.172 215.672 541.172 207.758V193.249C541.172 180.384 541.172 178.078 541.006 175.436C540.84 172.638 540.181 171.318 537.461 170.739C536.799 170.579 535.401 170.492 534.659 170.492C534.328 170.492 534 170.332 534 170.004C534 169.506 534.41 169.339 535.318 169.339C539.028 169.339 544.219 169.586 544.633 169.586C545.044 169.586 550.238 169.339 552.713 169.339C553.62 169.339 554.031 169.506 554.031 170.004C554.031 170.332 553.703 170.492 553.372 170.492C552.796 170.492 552.302 170.579 551.312 170.739C549.085 171.154 548.426 172.555 548.261 175.436C548.095 178.078 548.095 180.384 548.095 193.249V194.981C548.095 195.389 548.343 195.476 548.592 195.476H583.546C583.795 195.476 584.043 195.389 584.043 194.981V193.249C584.043 180.384 584.043 178.078 583.878 175.436C583.712 172.638 583.053 171.318 580.33 170.739C579.671 170.579 578.269 170.492 577.531 170.492C577.199 170.492 576.868 170.332 576.868 170.004C576.868 169.506 577.282 169.339 578.19 169.339C581.897 169.339 587.091 169.586 587.505 169.586C587.916 169.586 593.11 169.339 595.585 169.339C596.492 169.339 596.903 169.506 596.903 170.004C596.903 170.332 596.575 170.492 596.243 170.492C595.667 170.492 595.17 170.579 594.183 170.739C591.957 171.154 591.298 172.555 591.132 175.436C590.967 178.078 590.967 180.384 590.967 193.249V207.758Z" fill="#000054"/>
<path d="M633.454 207.758C633.454 215.672 633.454 222.188 633.868 225.651C634.113 228.042 634.607 229.853 637.081 230.184C638.238 230.348 640.049 230.509 640.791 230.509C641.285 230.509 641.451 230.763 641.451 231.01C641.451 231.418 641.04 231.669 640.132 231.669C635.597 231.669 630.403 231.418 629.992 231.418C629.578 231.418 624.384 231.669 621.913 231.669C621.005 231.669 620.595 231.505 620.595 231.01C620.595 230.763 620.76 230.509 621.254 230.509C621.996 230.509 622.983 230.348 623.725 230.184C625.375 229.853 625.789 228.042 626.116 225.651C626.531 222.188 626.531 215.672 626.531 207.758V193.249C626.531 180.384 626.531 178.078 626.365 175.436C626.199 172.638 625.375 171.234 623.559 170.823C622.655 170.579 621.581 170.492 621.005 170.492C620.678 170.492 620.346 170.332 620.346 170.004C620.346 169.506 620.76 169.339 621.664 169.339C624.384 169.339 629.578 169.586 629.992 169.586C630.403 169.586 635.597 169.339 638.072 169.339C638.979 169.339 639.39 169.506 639.39 170.004C639.39 170.332 639.062 170.492 638.731 170.492C638.155 170.492 637.661 170.579 636.671 170.739C634.444 171.154 633.785 172.555 633.62 175.436C633.454 178.078 633.454 180.384 633.454 193.249V207.758Z" fill="#000054"/>
<path d="M706.925 210.643C706.925 203.964 706.515 203.061 703.215 202.152C702.556 201.991 701.155 201.904 700.413 201.904C700.085 201.904 699.753 201.741 699.753 201.413C699.753 200.915 700.168 200.751 701.072 200.751C704.782 200.751 709.976 200.998 710.387 200.998C710.801 200.998 715.995 200.751 718.47 200.751C719.374 200.751 719.788 200.915 719.788 201.413C719.788 201.741 719.457 201.904 719.129 201.904C718.553 201.904 718.055 201.991 717.065 202.152C714.839 202.566 714.18 203.964 714.018 206.849C713.852 209.49 713.852 211.96 713.852 215.428V224.658C713.852 228.372 713.769 228.536 712.782 229.111C707.505 231.913 700.085 232.822 695.301 232.822C689.037 232.822 677.327 231.996 668.178 223.999C663.149 219.63 658.366 210.811 658.366 200.507C658.366 187.311 664.795 177.997 672.133 173.377C679.553 168.764 687.715 168.185 694.066 168.185C699.26 168.185 705.113 169.255 706.68 169.586C708.409 170 711.294 170.332 713.358 170.412C714.18 170.495 714.346 170.823 714.346 171.154C714.346 172.307 713.769 174.614 713.769 182.862C713.769 184.179 713.603 184.593 713.027 184.593C712.616 184.593 712.534 184.099 712.451 183.353C712.368 182.203 711.954 179.893 710.718 177.914C708.658 174.781 701.979 171.237 691.342 171.237C686.148 171.237 679.967 171.729 673.7 176.677C668.92 180.468 665.537 187.973 665.537 197.618C665.537 209.243 671.391 217.651 674.28 220.459C680.792 226.801 688.295 229.278 695.877 229.278C698.846 229.278 703.132 228.78 705.275 227.543C706.349 226.968 706.925 226.059 706.925 224.658V210.643Z" fill="#000054"/>
<path d="M794.835 207.758C794.835 215.672 794.835 222.188 795.25 225.651C795.494 228.042 795.988 229.853 798.463 230.184C799.619 230.348 801.431 230.509 802.173 230.509C802.666 230.509 802.832 230.763 802.832 231.01C802.832 231.418 802.421 231.669 801.514 231.669C796.979 231.669 791.784 231.418 791.374 231.418C790.959 231.418 785.765 231.669 783.294 231.669C782.387 231.669 781.976 231.505 781.976 231.01C781.976 230.763 782.142 230.509 782.635 230.509C783.377 230.509 784.364 230.348 785.106 230.184C786.756 229.853 787.17 228.042 787.498 225.651C787.912 222.188 787.912 215.672 787.912 207.758V199.103C787.912 198.772 787.664 198.608 787.415 198.608H752.457C752.212 198.608 751.963 198.688 751.963 199.103V207.758C751.963 215.672 751.963 222.188 752.378 225.651C752.623 228.042 753.12 229.853 755.591 230.184C756.747 230.348 758.559 230.509 759.301 230.509C759.794 230.509 759.96 230.763 759.96 231.01C759.96 231.418 759.549 231.669 758.642 231.669C754.107 231.669 748.913 231.418 748.502 231.418C748.091 231.418 742.897 231.669 740.422 231.669C739.515 231.669 739.104 231.505 739.104 231.01C739.104 230.763 739.266 230.509 739.763 230.509C740.505 230.509 741.492 230.348 742.238 230.184C743.884 229.853 744.298 228.042 744.626 225.651C745.04 222.188 745.04 215.672 745.04 207.758V193.249C745.04 180.384 745.04 178.078 744.875 175.436C744.709 172.638 744.05 171.318 741.33 170.739C740.667 170.579 739.266 170.492 738.528 170.492C738.197 170.492 737.869 170.332 737.869 170.004C737.869 169.506 738.279 169.339 739.187 169.339C742.897 169.339 748.091 169.586 748.502 169.586C748.913 169.586 754.107 169.339 756.581 169.339C757.489 169.339 757.9 169.506 757.9 170.004C757.9 170.332 757.572 170.492 757.241 170.492C756.664 170.492 756.171 170.579 755.18 170.739C752.954 171.154 752.295 172.555 752.129 175.436C751.963 178.078 751.963 180.384 751.963 193.249V194.981C751.963 195.389 752.212 195.476 752.457 195.476H787.415C787.664 195.476 787.912 195.389 787.912 194.981V193.249C787.912 180.384 787.912 178.078 787.746 175.436C787.581 172.638 786.922 171.318 784.199 170.739C783.539 170.579 782.142 170.492 781.399 170.492C781.068 170.492 780.741 170.332 780.741 170.004C780.741 169.506 781.151 169.339 782.059 169.339C785.765 169.339 790.959 169.586 791.374 169.586C791.784 169.586 796.979 169.339 799.453 169.339C800.361 169.339 800.771 169.506 800.771 170.004C800.771 170.332 800.444 170.492 800.112 170.492C799.536 170.492 799.039 170.579 798.052 170.739C795.826 171.154 795.167 172.555 795.001 175.436C794.835 178.078 794.835 180.384 794.835 193.249V207.758Z" fill="#000054"/>
<path d="M881.513 220.289H881.844C884.07 212.706 891.653 188.799 894.538 178.245C895.364 175.193 895.444 174.039 895.444 172.969C895.444 171.485 894.538 170.495 890.747 170.495C890.335 170.495 890.001 170.245 890.001 169.917C890.001 169.502 890.416 169.339 891.409 169.339C895.611 169.339 899.074 169.586 899.813 169.586C900.395 169.586 903.939 169.339 906.493 169.339C907.235 169.339 907.65 169.502 907.65 169.83C907.65 170.245 907.399 170.495 906.908 170.495C906.577 170.495 905.009 170.576 904.103 170.907C901.629 171.813 900.311 175.276 898.743 179.809C895.116 190.28 886.788 216.497 883.572 225.735C881.429 231.833 881.018 232.826 880.112 232.826C879.286 232.826 878.791 231.749 877.638 228.533L861.481 182.698H861.317C858.345 190.611 847.051 220.787 844.083 228.456C842.765 231.916 842.351 232.826 841.365 232.826C840.539 232.826 840.124 231.916 838.48 226.31L823.803 177.419C822.482 173.053 821.409 171.813 819.27 170.99C818.196 170.576 816.134 170.495 815.555 170.495C815.144 170.495 814.813 170.412 814.813 169.917C814.813 169.502 815.311 169.339 816.134 169.339C820.423 169.339 824.956 169.586 825.866 169.586C826.608 169.586 830.232 169.339 834.354 169.339C835.511 169.339 835.838 169.586 835.838 169.917C835.838 170.412 835.427 170.495 835.012 170.495C834.354 170.495 832.786 170.495 831.8 170.99C831.305 171.234 830.727 171.893 830.727 172.969C830.727 174.039 831.469 176.924 832.295 180.555C833.528 185.831 842.107 216.086 843.34 220.459H843.508L860.986 173.461C862.223 170.081 862.55 169.67 863.045 169.67C863.62 169.67 864.118 170.739 865.104 173.544L881.513 220.289Z" fill="#000054"/>
<path d="M943.212 204.378C943.623 204.378 943.623 204.131 943.539 203.803L935.71 181.541C935.299 180.301 934.884 180.301 934.473 181.541L927.218 203.803C927.051 204.211 927.218 204.378 927.462 204.378H943.212ZM934.64 171.401C935.626 168.676 935.957 168.185 936.449 168.185C936.943 168.185 937.274 168.596 938.26 171.154C939.501 174.286 952.442 208.337 957.474 220.863C960.443 228.202 962.833 229.529 964.565 230.017C965.798 230.428 967.035 230.512 967.865 230.512C968.352 230.512 968.687 230.595 968.687 231.01C968.687 231.501 967.945 231.669 967.035 231.669C965.798 231.669 959.784 231.669 954.094 231.501C952.526 231.418 951.623 231.418 951.623 230.927C951.623 230.595 951.867 230.428 952.198 230.348C952.693 230.184 953.188 229.442 952.693 228.121L945.024 207.842C944.86 207.511 944.696 207.347 944.282 207.347H926.556C926.145 207.347 925.898 207.594 925.73 208.006L920.786 222.599C920.044 224.658 919.632 226.641 919.632 228.121C919.632 229.773 921.364 230.512 922.765 230.512H923.591C924.166 230.512 924.413 230.679 924.413 231.01C924.413 231.501 923.918 231.669 923.176 231.669C921.2 231.669 917.65 231.418 916.747 231.418C915.838 231.418 911.305 231.669 907.43 231.669C906.36 231.669 905.862 231.501 905.862 231.01C905.862 230.679 906.193 230.512 906.604 230.512C907.182 230.512 908.336 230.428 908.994 230.348C912.789 229.853 914.437 226.717 915.922 222.599L934.64 171.401Z" fill="#000054"/>
<path d="M991.709 210.313C991.709 205.866 990.886 204.051 989.813 201.661C989.235 200.336 978.189 182.2 975.3 177.917C973.237 174.861 971.182 172.802 969.697 171.816C968.46 170.99 966.892 170.492 966.15 170.492C965.739 170.492 965.324 170.332 965.324 169.917C965.324 169.586 965.655 169.339 966.397 169.339C967.962 169.339 974.147 169.586 974.558 169.586C975.133 169.586 978.273 169.339 981.485 169.339C982.391 169.339 982.558 169.586 982.558 169.917C982.558 170.248 982.06 170.332 981.318 170.659C980.663 170.99 980.248 171.485 980.248 172.144C980.248 173.133 980.663 174.123 981.318 175.36C982.639 177.747 995.005 199.019 996.489 201.41C998.057 197.946 1008.53 179.893 1010.18 177.172C1011.25 175.436 1011.58 174.039 1011.58 172.969C1011.58 171.816 1011.25 170.91 1010.26 170.659C1009.51 170.412 1009.02 170.248 1009.02 169.833C1009.02 169.506 1009.51 169.339 1010.34 169.339C1012.49 169.339 1015.12 169.586 1015.78 169.586C1016.28 169.586 1022.21 169.339 1023.78 169.339C1024.35 169.339 1024.85 169.506 1024.85 169.833C1024.85 170.248 1024.44 170.492 1023.78 170.492C1022.87 170.492 1021.31 170.823 1019.99 171.649C1018.34 172.638 1017.43 173.625 1015.62 175.855C1012.9 179.151 1001.36 198.528 999.873 202.072C998.632 205.037 998.632 207.595 998.632 210.313V217.407C998.632 218.724 998.632 222.188 998.88 225.651C999.043 228.042 999.786 229.853 1002.26 230.184C1003.42 230.348 1005.23 230.509 1005.97 230.509C1006.47 230.509 1006.63 230.763 1006.63 231.01C1006.63 231.418 1006.21 231.669 1005.31 231.669C1000.78 231.669 995.583 231.418 995.172 231.418C994.761 231.418 989.562 231.669 987.092 231.669C986.186 231.669 985.775 231.505 985.775 231.01C985.775 230.763 985.935 230.509 986.43 230.509C987.172 230.509 988.165 230.348 988.907 230.184C990.555 229.853 991.297 228.042 991.461 225.651C991.709 222.188 991.709 218.724 991.709 217.407V210.313Z" fill="#000054"/>
</svg>
